<?xml version="1.0" encoding="UTF-8" standalone="no"?>
<!-- Created with Inkscape (http://www.inkscape.org/) -->

<svg
   xmlns:dc="http://purl.org/dc/elements/1.1/"
   xmlns:cc="http://creativecommons.org/ns#"
   xmlns:rdf="http://www.w3.org/1999/02/22-rdf-syntax-ns#"
   xmlns:svg="http://www.w3.org/2000/svg"
   xmlns="http://www.w3.org/2000/svg"
   xmlns:xlink="http://www.w3.org/1999/xlink"
   xmlns:sodipodi="http://sodipodi.sourceforge.net/DTD/sodipodi-0.dtd"
   xmlns:inkscape="http://www.inkscape.org/namespaces/inkscape"
   width="210mm"
   height="297mm"
   viewBox="0 0 210 297"
   version="1.1"
   id="svg8"
   sodipodi:docname="land-carrot-ready.svg"
   inkscape:version="0.92.3 (3ce5693, 2018-03-11)">
  <defs
     id="defs2">
    <linearGradient
       inkscape:collect="always"
       id="linearGradient878">
      <stop
         style="stop-color:#61370a;stop-opacity:1;"
         offset="0"
         id="stop874" />
      <stop
         style="stop-color:#61370a;stop-opacity:0;"
         offset="1"
         id="stop876" />
    </linearGradient>
    <linearGradient
       inkscape:collect="always"
       id="linearGradient825-3">
      <stop
         style="stop-color:#60330a;stop-opacity:1;"
         offset="0"
         id="stop821" />
      <stop
         style="stop-color:#60330a;stop-opacity:0;"
         offset="1"
         id="stop823" />
    </linearGradient>
    <linearGradient
       inkscape:collect="always"
       xlink:href="#linearGradient825-3"
       id="linearGradient827"
       x1="65.895508"
       y1="230.21138"
       x2="65.729057"
       y2="233.35179"
       gradientUnits="userSpaceOnUse" />
    <linearGradient
       inkscape:collect="always"
       xlink:href="#linearGradient878"
       id="linearGradient880"
       x1="65.180351"
       y1="230.43413"
       x2="65.257027"
       y2="234.34294"
       gradientUnits="userSpaceOnUse" />
    <linearGradient
       gradientTransform="translate(0.01177819,4.2586726)"
       inkscape:collect="always"
       xlink:href="#linearGradient878"
       id="linearGradient880-6"
       x1="65.180351"
       y1="230.43413"
       x2="65.257027"
       y2="234.34294"
       gradientUnits="userSpaceOnUse" />
    <linearGradient
       gradientTransform="translate(0.27904774,8.8022546)"
       inkscape:collect="always"
       xlink:href="#linearGradient878"
       id="linearGradient880-5"
       x1="65.180351"
       y1="230.43413"
       x2="65.257027"
       y2="234.34294"
       gradientUnits="userSpaceOnUse" />
    <linearGradient
       gradientTransform="translate(0.60349804,21.839118)"
       inkscape:collect="always"
       xlink:href="#linearGradient878"
       id="linearGradient880-5-8"
       x1="65.180351"
       y1="230.43413"
       x2="65.257027"
       y2="234.34294"
       gradientUnits="userSpaceOnUse" />
    <linearGradient
       gradientTransform="translate(0.33622904,17.295538)"
       inkscape:collect="always"
       xlink:href="#linearGradient878"
       id="linearGradient880-6-3"
       x1="65.180351"
       y1="230.43413"
       x2="65.257027"
       y2="234.34294"
       gradientUnits="userSpaceOnUse" />
    <linearGradient
       gradientTransform="translate(0.32445004,13.036868)"
       inkscape:collect="always"
       xlink:href="#linearGradient878"
       id="linearGradient880-14"
       x1="65.180351"
       y1="230.43413"
       x2="65.257027"
       y2="234.34294"
       gradientUnits="userSpaceOnUse" />
  </defs>
  <sodipodi:namedview
     id="base"
     pagecolor="#ffffff"
     bordercolor="#666666"
     borderopacity="1.0"
     inkscape:pageopacity="0.0"
     inkscape:pageshadow="2"
     inkscape:zoom="2"
     inkscape:cx="189.11453"
     inkscape:cy="167.34883"
     inkscape:document-units="mm"
     inkscape:current-layer="layer1"
     showgrid="false"
     inkscape:window-width="1317"
     inkscape:window-height="750"
     inkscape:window-x="49"
     inkscape:window-y="18"
     inkscape:window-maximized="1" />
  <metadata
     id="metadata5">
    <rdf:RDF>
      <cc:Work
         rdf:about="">
        <dc:format>image/svg+xml</dc:format>
        <dc:type
           rdf:resource="http://purl.org/dc/dcmitype/StillImage" />
        <dc:title></dc:title>
      </cc:Work>
    </rdf:RDF>
  </metadata>
  <g
     inkscape:label="Layer 1"
     inkscape:groupmode="layer"
     id="layer1">
    <rect
       style="fill:#904e0a;fill-opacity:1;stroke:none;stroke-width:0.065;stroke-miterlimit:4;stroke-dasharray:none;stroke-opacity:1"
       id="rect817"
       width="28.631697"
       height="28.631697"
       x="50.554317"
       y="228.20834" />
    <path
       style="fill:url(#linearGradient880);fill-opacity:1;stroke:none;stroke-width:0.26458332px;stroke-linecap:butt;stroke-linejoin:miter;stroke-opacity:1"
       d="m 52.652096,233.38985 c 0,0 0.994221,-2.14843 2.004523,-2.47224 0.638054,-0.2045 1.335059,1.44244 2.004519,1.46997 0.837991,0.0344 1.050332,-1.64349 1.870887,-1.46998 0.767637,0.16232 0.89361,1.29291 1.670435,1.40317 0.976258,0.13857 1.394875,-1.45151 2.338609,-1.73725 0.972196,-0.29436 1.330526,1.22174 2.271791,1.60362 0.527395,0.21397 1.411653,-2.00664 1.870886,-1.67044 0.719298,0.5266 1.313557,1.59512 2.204974,1.60362 0,0 1.131935,-1.31098 1.804068,-1.73725 0.739545,-0.46903 2.204975,1.67044 2.472245,1.73725 0.267268,0.0668 1.546317,-1.74141 2.004522,-1.33634 0.383927,0.33941 1.764761,-0.17684 1.473117,2.77158 -5.114019,0.0322 -23.990576,-0.16571 -23.990576,-0.16571"
       id="path819"
       inkscape:connector-curvature="0"
       sodipodi:nodetypes="cssssssssssscc" />
    <path
       style="fill:url(#linearGradient880-6);fill-opacity:1;stroke:none;stroke-width:0.26458332px;stroke-linecap:butt;stroke-linejoin:miter;stroke-opacity:1"
       d="m 52.663874,237.64852 c 0,0 0.994221,-2.14843 2.004523,-2.47224 0.638054,-0.2045 1.335059,1.44244 2.004519,1.46997 0.837991,0.0344 1.050332,-1.64349 1.870887,-1.46998 0.767637,0.16232 0.893611,1.29291 1.670435,1.40317 0.976258,0.13857 1.394876,-1.45151 2.338609,-1.73725 0.972196,-0.29436 1.330526,1.22174 2.271791,1.60362 0.527395,0.21397 1.411653,-2.00664 1.870886,-1.67044 0.719298,0.5266 1.313557,1.59512 2.204974,1.60362 0,0 1.131935,-1.31098 1.804068,-1.73725 0.739545,-0.46903 2.204975,1.67044 2.472245,1.73725 0.267268,0.0668 1.546317,-1.74141 2.004522,-1.33634 0.383927,0.33941 1.764761,-0.17684 1.473117,2.77158 -5.114019,0.0322 -23.990576,-0.16571 -23.990576,-0.16571"
       id="path819-3"
       inkscape:connector-curvature="0"
       sodipodi:nodetypes="cssssssssssscc" />
    <path
       style="fill:url(#linearGradient880-5);fill-opacity:1;stroke:none;stroke-width:0.26458332px;stroke-linecap:butt;stroke-linejoin:miter;stroke-opacity:1"
       d="m 52.931144,242.1921 c 0,0 0.994221,-2.14843 2.004523,-2.47224 0.638054,-0.2045 1.335059,1.44244 2.004519,1.46997 0.837991,0.0344 1.050332,-1.64349 1.870887,-1.46998 0.767637,0.16232 0.89361,1.29291 1.670435,1.40317 0.976258,0.13857 1.394875,-1.45151 2.338609,-1.73725 0.972196,-0.29436 1.330526,1.22174 2.271791,1.60362 0.527395,0.21397 1.411653,-2.00664 1.870886,-1.67044 0.719298,0.5266 1.313557,1.59512 2.204974,1.60362 0,0 1.131935,-1.31098 1.804068,-1.73725 0.739545,-0.46903 2.204975,1.67044 2.472245,1.73725 0.267268,0.0668 1.546317,-1.74141 2.004522,-1.33634 0.383927,0.33941 1.764761,-0.17684 1.473117,2.77158 -5.114019,0.0322 -23.990576,-0.16571 -23.990576,-0.16571"
       id="path819-9"
       inkscape:connector-curvature="0"
       sodipodi:nodetypes="cssssssssssscc" />
    <path
       style="fill:#009b0a;fill-opacity:1;stroke:none;stroke-width:0.66308135px;stroke-linecap:butt;stroke-linejoin:miter;stroke-opacity:1"
       d="m 54.413378,231.61425 c 0.207208,-0.79925 0.500546,-1.90139 -0.609641,-1.95433 -0.406717,-0.0194 -0.622354,1.03755 -0.562894,0.95758 0,0 -0.423699,-0.0923 -0.207788,-0.38186 0.199106,-0.26704 0.186443,-0.7834 0.646722,-0.90673 0.427207,-0.11447 0.584796,0.30997 1.027058,0.31299 0.337517,0.002 0.386187,-0.16091 0.755202,-0.22593 0.620378,0.14361 0.620483,0.62555 0.789145,1.01555 l -0.219272,0.0887 -0.372603,-0.67799 c -0.113861,-0.20718 -0.50292,-0.0457 -0.683399,0.0254 -0.315827,0.5483 0.02959,1.71694 0.02959,1.71694 z"
       id="path996"
       inkscape:connector-curvature="0"
       sodipodi:nodetypes="cssssscccsccc" />
    <path
       style="fill:url(#linearGradient880-14);fill-opacity:1;stroke:none;stroke-width:0.26458332px;stroke-linecap:butt;stroke-linejoin:miter;stroke-opacity:1"
       d="m 52.976546,246.42671 c 0,0 0.994221,-2.14843 2.004523,-2.47224 0.638054,-0.2045 1.335059,1.44244 2.004519,1.46997 0.837991,0.0344 1.050332,-1.64349 1.870887,-1.46998 0.767637,0.16232 0.89361,1.29291 1.670435,1.40317 0.976258,0.13857 1.394875,-1.45151 2.338609,-1.73725 0.972196,-0.29436 1.330526,1.22174 2.271791,1.60362 0.527395,0.21397 1.411653,-2.00664 1.870886,-1.67044 0.719298,0.5266 1.313557,1.59512 2.204974,1.60362 0,0 1.131935,-1.31098 1.804068,-1.73725 0.739545,-0.46903 2.204975,1.67044 2.472245,1.73725 0.267268,0.0668 1.546317,-1.74141 2.004522,-1.33634 0.383927,0.33941 1.764761,-0.17684 1.473117,2.77158 -5.114019,0.0322 -23.990576,-0.16571 -23.990576,-0.16571"
       id="path819-92"
       inkscape:connector-curvature="0"
       sodipodi:nodetypes="cssssssssssscc" />
    <path
       style="fill:url(#linearGradient880-6-3);fill-opacity:1;stroke:none;stroke-width:0.26458332px;stroke-linecap:butt;stroke-linejoin:miter;stroke-opacity:1"
       d="m 52.988324,250.68538 c 0,0 0.994221,-2.14843 2.004523,-2.47224 0.638054,-0.2045 1.335059,1.44244 2.004519,1.46997 0.837991,0.0344 1.050332,-1.64349 1.870887,-1.46998 0.767637,0.16232 0.893611,1.29291 1.670435,1.40317 0.976258,0.13857 1.394876,-1.45151 2.338609,-1.73725 0.972196,-0.29436 1.330526,1.22174 2.271791,1.60362 0.527395,0.21397 1.411653,-2.00664 1.870886,-1.67044 0.719298,0.5266 1.313557,1.59512 2.204974,1.60362 0,0 1.131935,-1.31098 1.804068,-1.73725 0.739545,-0.46903 2.204975,1.67044 2.472245,1.73725 0.267268,0.0668 1.546317,-1.74141 2.004522,-1.33634 0.383927,0.33941 1.764761,-0.17684 1.473117,2.77158 -5.114019,0.0322 -23.990576,-0.16571 -23.990576,-0.16571"
       id="path819-3-0"
       inkscape:connector-curvature="0"
       sodipodi:nodetypes="cssssssssssscc" />
    <path
       style="fill:url(#linearGradient880-5-8);fill-opacity:1;stroke:none;stroke-width:0.26458332px;stroke-linecap:butt;stroke-linejoin:miter;stroke-opacity:1"
       d="m 53.255594,255.22896 c 0,0 0.994221,-2.14843 2.004523,-2.47224 0.638054,-0.2045 1.335059,1.44244 2.004519,1.46997 0.837991,0.0344 1.050332,-1.64349 1.870887,-1.46998 0.767637,0.16232 0.89361,1.29291 1.670435,1.40317 0.976258,0.13857 1.394875,-1.45151 2.338609,-1.73725 0.972196,-0.29436 1.330526,1.22174 2.271791,1.60362 0.527395,0.21397 1.411653,-2.00664 1.870886,-1.67044 0.719298,0.5266 1.313557,1.59512 2.204974,1.60362 0,0 1.131935,-1.31098 1.804068,-1.73725 0.739545,-0.46903 2.204975,1.67044 2.472245,1.73725 0.267268,0.0668 1.546317,-1.74141 2.004522,-1.33634 0.383927,0.33941 1.764761,-0.17684 1.473117,2.77158 -5.114019,0.0322 -23.990576,-0.16571 -23.990576,-0.16571"
       id="path819-9-6"
       inkscape:connector-curvature="0"
       sodipodi:nodetypes="cssssssssssscc" />
    <path
       style="fill:#ff7d00;fill-opacity:1;stroke:none;stroke-width:0.33545634px;stroke-linecap:butt;stroke-linejoin:miter;stroke-opacity:1"
       d="m 53.98159,232.51124 c 0,0 -0.08498,-0.43904 0.0021,-0.6316 0.06782,-0.15011 0.216362,-0.26927 0.371154,-0.33255 0.233734,-0.0956 0.529538,-0.14223 0.759003,-0.0373 0.134884,0.0617 0.212037,0.21438 0.268846,0.34903 0.07891,0.18706 0.08479,0.6014 0.08479,0.6014 -0.391521,-0.22664 -0.815665,-0.37668 -1.485847,0.0509 z"
       id="path1329"
       inkscape:connector-curvature="0"
       sodipodi:nodetypes="csssscc" />
    <path
       style="fill:#ff7d00;fill-opacity:1;stroke:none;stroke-width:0.25984645px;stroke-linecap:butt;stroke-linejoin:miter;stroke-opacity:1"
       d="m 57.944467,231.8157 c 0,0 -0.06932,-0.32294 0.0017,-0.46457 0.05532,-0.11041 0.176496,-0.19806 0.302766,-0.24461 0.190666,-0.0703 0.431966,-0.10461 0.619149,-0.0274 0.11003,0.0454 0.172967,0.15768 0.219309,0.25672 0.06437,0.13759 0.06916,0.44236 0.06916,0.44236 -0.31938,-0.16671 -0.665372,-0.27707 -1.212066,0.0374 z"
       id="path1329-1"
       inkscape:connector-curvature="0"
       sodipodi:nodetypes="csssscc" />
    <path
       style="fill:#ff7d00;fill-opacity:1;stroke:none;stroke-width:0.33545634px;stroke-linecap:butt;stroke-linejoin:miter;stroke-opacity:1"
       d="m 61.926949,232.02617 c 0,0 -0.08498,-0.43904 0.0021,-0.6316 0.06782,-0.15011 0.216362,-0.26927 0.371154,-0.33255 0.233734,-0.0956 0.529538,-0.14223 0.759003,-0.0373 0.134884,0.0617 0.212037,0.21438 0.268846,0.34903 0.07891,0.18706 0.08479,0.6014 0.08479,0.6014 -0.391521,-0.22664 -0.815665,-0.37668 -1.485847,0.0509 z"
       id="path1329-0"
       inkscape:connector-curvature="0"
       sodipodi:nodetypes="csssscc" />
    <path
       style="fill:#ff7d00;fill-opacity:1;stroke:none;stroke-width:0.27171764px;stroke-linecap:butt;stroke-linejoin:miter;stroke-opacity:1"
       d="m 66.058294,231.61407 c 0,0 -0.06883,-0.35562 0.0017,-0.51159 0.05493,-0.12159 0.175252,-0.21811 0.300633,-0.26937 0.189323,-0.0774 0.428923,-0.1152 0.614788,-0.0302 0.109255,0.05 0.171749,0.17365 0.217764,0.28271 0.06392,0.15152 0.06868,0.48713 0.06868,0.48713 -0.31713,-0.18357 -0.660684,-0.30511 -1.203527,0.0412 z"
       id="path1329-6"
       inkscape:connector-curvature="0"
       sodipodi:nodetypes="csssscc" />
    <path
       style="fill:#ff7d00;fill-opacity:1;stroke:none;stroke-width:0.37005734px;stroke-linecap:butt;stroke-linejoin:miter;stroke-opacity:1"
       d="m 70.328356,231.79187 c 0,0 -0.09374,-0.48433 0.0023,-0.69675 0.07482,-0.16559 0.238679,-0.29704 0.409437,-0.36685 0.257843,-0.10546 0.584158,-0.1569 0.837291,-0.0412 0.148797,0.0681 0.233908,0.23649 0.296577,0.38503 0.08705,0.20636 0.09354,0.66343 0.09354,0.66343 -0.431905,-0.25001 -0.899797,-0.41553 -1.639106,0.0562 z"
       id="path1329-15"
       inkscape:connector-curvature="0"
       sodipodi:nodetypes="csssscc" />
    <path
       style="fill:#ff7d00;fill-opacity:1;stroke:none;stroke-width:0.31143552px;stroke-linecap:butt;stroke-linejoin:miter;stroke-opacity:1"
       d="m 74.496148,232.27773 c 0,0 -0.07621,-0.42194 0.0019,-0.607 0.06082,-0.14426 0.194046,-0.25878 0.332871,-0.31959 0.209626,-0.0919 0.474919,-0.13669 0.680715,-0.0359 0.120971,0.0593 0.190166,0.20603 0.241116,0.33544 0.07077,0.17977 0.07604,0.57797 0.07604,0.57797 -0.351137,-0.21781 -0.731532,-0.36201 -1.332588,0.0489 z"
       id="path1329-9"
       inkscape:connector-curvature="0"
       sodipodi:nodetypes="csssscc" />
    <path
       style="fill:#009b0a;fill-opacity:1;stroke:none;stroke-width:0.66308135px;stroke-linecap:butt;stroke-linejoin:miter;stroke-opacity:1"
       d="m 58.208686,231.11367 c 0.207208,-0.79925 0.500546,-1.90139 -0.609641,-1.95433 -0.406717,-0.0194 -0.622354,1.03755 -0.562894,0.95758 0,0 -0.423699,-0.0923 -0.207788,-0.38186 0.199106,-0.26704 0.186443,-0.7834 0.646722,-0.90673 0.427207,-0.11447 0.584796,0.30997 1.027058,0.31299 0.337517,0.002 0.386187,-0.16091 0.755202,-0.22593 0.620378,0.14361 0.620483,0.62555 0.789145,1.01555 l -0.219272,0.0887 -0.372603,-0.67799 c -0.113861,-0.20718 -0.50292,-0.0457 -0.683399,0.0254 -0.315827,0.5483 0.02959,1.71694 0.02959,1.71694 z"
       id="path996-49"
       inkscape:connector-curvature="0"
       sodipodi:nodetypes="cssssscccsccc" />
    <path
       style="fill:#009b0a;fill-opacity:1;stroke:none;stroke-width:0.66308135px;stroke-linecap:butt;stroke-linejoin:miter;stroke-opacity:1"
       d="m 62.309728,231.11366 c 0.207208,-0.79925 0.500546,-1.90139 -0.609641,-1.95433 -0.406717,-0.0194 -0.622354,1.03755 -0.562894,0.95758 0,0 -0.423699,-0.0923 -0.207788,-0.38186 0.199106,-0.26704 0.186443,-0.7834 0.646722,-0.90673 0.427207,-0.11447 0.584796,0.30997 1.027058,0.31299 0.337517,0.002 0.386187,-0.16091 0.755202,-0.22593 0.620378,0.14361 0.620483,0.62555 0.789145,1.01555 l -0.219272,0.0887 -0.372603,-0.67799 c -0.113861,-0.20718 -0.50292,-0.0457 -0.683399,0.0254 -0.315827,0.5483 0.02959,1.71694 0.02959,1.71694 z"
       id="path996-0"
       inkscape:connector-curvature="0"
       sodipodi:nodetypes="cssssscccsccc" />
    <path
       style="fill:#009b0a;fill-opacity:1;stroke:none;stroke-width:0.66308135px;stroke-linecap:butt;stroke-linejoin:miter;stroke-opacity:1"
       d="m 66.377697,230.816 c 0.207208,-0.79925 0.500546,-1.90139 -0.609641,-1.95433 -0.406717,-0.0194 -0.622354,1.03755 -0.562894,0.95758 0,0 -0.423699,-0.0923 -0.207788,-0.38186 0.199106,-0.26704 0.186443,-0.7834 0.646722,-0.90673 0.427207,-0.11447 0.584796,0.30997 1.027058,0.31299 0.337517,0.002 0.386187,-0.16091 0.755202,-0.22593 0.620378,0.14361 0.620483,0.62555 0.789145,1.01555 l -0.219272,0.0887 -0.372603,-0.67799 c -0.113861,-0.20718 -0.50292,-0.0457 -0.683399,0.0254 -0.315827,0.5483 0.02959,1.71694 0.02959,1.71694 z"
       id="path996-9"
       inkscape:connector-curvature="0"
       sodipodi:nodetypes="cssssscccsccc" />
    <path
       style="fill:#009b0a;fill-opacity:1;stroke:none;stroke-width:0.66308135px;stroke-linecap:butt;stroke-linejoin:miter;stroke-opacity:1"
       d="m 70.84254,230.68371 c 0.207208,-0.79925 0.500546,-1.90139 -0.609641,-1.95433 -0.406717,-0.0194 -0.622354,1.03755 -0.562894,0.95758 0,0 -0.423699,-0.0923 -0.207788,-0.38186 0.199106,-0.26704 0.186443,-0.7834 0.646722,-0.90673 0.427207,-0.11447 0.584796,0.30997 1.027058,0.31299 0.337517,0.002 0.386187,-0.16091 0.755202,-0.22593 0.620378,0.14361 0.620483,0.62555 0.789145,1.01555 l -0.219272,0.0887 -0.372603,-0.67799 c -0.113861,-0.20718 -0.50292,-0.0457 -0.683399,0.0254 -0.315827,0.5483 0.02959,1.71694 0.02959,1.71694 z"
       id="path996-1"
       inkscape:connector-curvature="0"
       sodipodi:nodetypes="cssssscccsccc" />
    <path
       style="fill:#009b0a;fill-opacity:1;stroke:none;stroke-width:0.66308135px;stroke-linecap:butt;stroke-linejoin:miter;stroke-opacity:1"
       d="m 74.877437,231.37824 c 0.207208,-0.79925 0.500546,-1.90139 -0.609642,-1.95433 -0.406717,-0.0194 -0.622354,1.03755 -0.562894,0.95758 0,0 -0.423699,-0.0923 -0.207788,-0.38186 0.199106,-0.26704 0.186443,-0.7834 0.646722,-0.90673 0.427208,-0.11447 0.584797,0.30997 1.027059,0.31299 0.337517,0.002 0.386187,-0.16091 0.755202,-0.22593 0.620378,0.14361 0.620483,0.62555 0.789144,1.01555 l -0.219271,0.0887 -0.372604,-0.67799 c -0.11386,-0.20718 -0.502919,-0.0457 -0.683398,0.0254 -0.315827,0.5483 0.02959,1.71694 0.02959,1.71694 z"
       id="path996-7"
       inkscape:connector-curvature="0"
       sodipodi:nodetypes="cssssscccsccc" />
    <path
       style="fill:#009b0a;fill-opacity:1;stroke:none;stroke-width:0.66308135px;stroke-linecap:butt;stroke-linejoin:miter;stroke-opacity:1"
       d="m 54.374289,235.84332 c 0.207208,-0.79925 0.500546,-1.90139 -0.609641,-1.95433 -0.406717,-0.0194 -0.622354,1.03755 -0.562894,0.95758 0,0 -0.423699,-0.0923 -0.207788,-0.38186 0.199106,-0.26704 0.186443,-0.7834 0.646722,-0.90673 0.427207,-0.11447 0.584796,0.30997 1.027058,0.31299 0.337517,0.002 0.386187,-0.16091 0.755202,-0.22593 0.620378,0.14361 0.620483,0.62555 0.789145,1.01555 l -0.219272,0.0887 -0.372603,-0.67799 c -0.113861,-0.20718 -0.50292,-0.0457 -0.683399,0.0254 -0.315827,0.5483 0.02959,1.71694 0.02959,1.71694 z"
       id="path996-71"
       inkscape:connector-curvature="0"
       sodipodi:nodetypes="cssssscccsccc" />
    <path
       style="fill:#ff7d00;fill-opacity:1;stroke:none;stroke-width:0.33545634px;stroke-linecap:butt;stroke-linejoin:miter;stroke-opacity:1"
       d="m 53.942501,236.74031 c 0,0 -0.08498,-0.43904 0.0021,-0.6316 0.06782,-0.15011 0.216362,-0.26927 0.371154,-0.33255 0.233734,-0.0956 0.529538,-0.14223 0.759003,-0.0373 0.134884,0.0617 0.212037,0.21438 0.268846,0.34903 0.07891,0.18706 0.08479,0.6014 0.08479,0.6014 -0.391522,-0.22664 -0.815666,-0.37668 -1.485848,0.0509 z"
       id="path1329-159"
       inkscape:connector-curvature="0"
       sodipodi:nodetypes="csssscc" />
    <path
       style="fill:#ff7d00;fill-opacity:1;stroke:none;stroke-width:0.25984645px;stroke-linecap:butt;stroke-linejoin:miter;stroke-opacity:1"
       d="m 57.905378,236.04477 c 0,0 -0.06932,-0.32294 0.0017,-0.46457 0.05532,-0.11041 0.176496,-0.19806 0.302766,-0.24461 0.190666,-0.0703 0.431966,-0.10461 0.619149,-0.0274 0.11003,0.0454 0.172967,0.15768 0.219309,0.25672 0.06437,0.13759 0.06916,0.44236 0.06916,0.44236 -0.31938,-0.16671 -0.665372,-0.27707 -1.212066,0.0374 z"
       id="path1329-1-7"
       inkscape:connector-curvature="0"
       sodipodi:nodetypes="csssscc" />
    <path
       style="fill:#ff7d00;fill-opacity:1;stroke:none;stroke-width:0.33545634px;stroke-linecap:butt;stroke-linejoin:miter;stroke-opacity:1"
       d="m 61.88786,236.25524 c 0,0 -0.08498,-0.43904 0.0021,-0.6316 0.06782,-0.15011 0.216362,-0.26927 0.371154,-0.33255 0.233734,-0.0956 0.529538,-0.14223 0.759003,-0.0373 0.134884,0.0617 0.212037,0.21438 0.268846,0.34903 0.07891,0.18706 0.08479,0.6014 0.08479,0.6014 -0.391521,-0.22664 -0.815665,-0.37668 -1.485847,0.0509 z"
       id="path1329-0-7"
       inkscape:connector-curvature="0"
       sodipodi:nodetypes="csssscc" />
    <path
       style="fill:#ff7d00;fill-opacity:1;stroke:none;stroke-width:0.27171764px;stroke-linecap:butt;stroke-linejoin:miter;stroke-opacity:1"
       d="m 66.019205,235.84314 c 0,0 -0.06883,-0.35562 0.0017,-0.51159 0.05493,-0.12159 0.175252,-0.21811 0.300633,-0.26937 0.189323,-0.0774 0.428923,-0.1152 0.614788,-0.0302 0.109255,0.05 0.171749,0.17365 0.217764,0.28271 0.06392,0.15152 0.06868,0.48713 0.06868,0.48713 -0.31713,-0.18357 -0.660684,-0.30511 -1.203527,0.0412 z"
       id="path1329-6-6"
       inkscape:connector-curvature="0"
       sodipodi:nodetypes="csssscc" />
    <path
       style="fill:#ff7d00;fill-opacity:1;stroke:none;stroke-width:0.37005734px;stroke-linecap:butt;stroke-linejoin:miter;stroke-opacity:1"
       d="m 70.289267,236.02094 c 0,0 -0.09374,-0.48433 0.0023,-0.69675 0.07482,-0.16559 0.238679,-0.29704 0.409437,-0.36685 0.257843,-0.10546 0.584158,-0.1569 0.837291,-0.0412 0.148797,0.0681 0.233908,0.23649 0.296577,0.38503 0.08705,0.20636 0.09354,0.66343 0.09354,0.66343 -0.431905,-0.25001 -0.899797,-0.41553 -1.639106,0.0562 z"
       id="path1329-15-7"
       inkscape:connector-curvature="0"
       sodipodi:nodetypes="csssscc" />
    <path
       style="fill:#ff7d00;fill-opacity:1;stroke:none;stroke-width:0.31143555px;stroke-linecap:butt;stroke-linejoin:miter;stroke-opacity:1"
       d="m 74.457059,236.5068 c 0,0 -0.07621,-0.42194 0.0019,-0.607 0.06082,-0.14426 0.194046,-0.25878 0.332871,-0.31959 0.209626,-0.0919 0.474919,-0.13669 0.680715,-0.0359 0.120971,0.0593 0.190166,0.20603 0.241116,0.33544 0.07077,0.17977 0.07604,0.57797 0.07604,0.57797 -0.351137,-0.21781 -0.731532,-0.36201 -1.332588,0.0489 z"
       id="path1329-9-3"
       inkscape:connector-curvature="0"
       sodipodi:nodetypes="csssscc" />
    <path
       style="fill:#009b0a;fill-opacity:1;stroke:none;stroke-width:0.66308135px;stroke-linecap:butt;stroke-linejoin:miter;stroke-opacity:1"
       d="m 58.169597,235.34274 c 0.207208,-0.79925 0.500546,-1.90139 -0.609641,-1.95433 -0.406717,-0.0194 -0.622354,1.03755 -0.562894,0.95758 0,0 -0.423699,-0.0923 -0.207788,-0.38186 0.199106,-0.26704 0.186443,-0.7834 0.646722,-0.90673 0.427207,-0.11447 0.584796,0.30997 1.027058,0.31299 0.337517,0.002 0.386187,-0.16091 0.755202,-0.22593 0.620378,0.14361 0.620483,0.62555 0.789145,1.01555 l -0.219272,0.0887 -0.372603,-0.67799 c -0.113861,-0.20718 -0.50292,-0.0457 -0.683399,0.0254 -0.315827,0.5483 0.02959,1.71694 0.02959,1.71694 z"
       id="path996-49-6"
       inkscape:connector-curvature="0"
       sodipodi:nodetypes="cssssscccsccc" />
    <path
       style="fill:#009b0a;fill-opacity:1;stroke:none;stroke-width:0.66308135px;stroke-linecap:butt;stroke-linejoin:miter;stroke-opacity:1"
       d="m 62.270639,235.34273 c 0.207208,-0.79925 0.500546,-1.90139 -0.609641,-1.95433 -0.406717,-0.0194 -0.622354,1.03755 -0.562894,0.95758 0,0 -0.423699,-0.0923 -0.207788,-0.38186 0.199106,-0.26704 0.186443,-0.7834 0.646722,-0.90673 0.427207,-0.11447 0.584796,0.30997 1.027058,0.31299 0.337517,0.002 0.386187,-0.16091 0.755202,-0.22593 0.620378,0.14361 0.620483,0.62555 0.789145,1.01555 l -0.219272,0.0887 -0.372603,-0.67799 c -0.113861,-0.20718 -0.50292,-0.0457 -0.683399,0.0254 -0.315827,0.5483 0.02959,1.71694 0.02959,1.71694 z"
       id="path996-0-5"
       inkscape:connector-curvature="0"
       sodipodi:nodetypes="cssssscccsccc" />
    <path
       style="fill:#009b0a;fill-opacity:1;stroke:none;stroke-width:0.66308135px;stroke-linecap:butt;stroke-linejoin:miter;stroke-opacity:1"
       d="m 66.338608,235.04507 c 0.207208,-0.79925 0.500546,-1.90139 -0.609641,-1.95433 -0.406717,-0.0194 -0.622354,1.03755 -0.562894,0.95758 0,0 -0.423699,-0.0923 -0.207788,-0.38186 0.199106,-0.26704 0.186443,-0.7834 0.646722,-0.90673 0.427207,-0.11447 0.584796,0.30997 1.027058,0.31299 0.337517,0.002 0.386187,-0.16091 0.755202,-0.22593 0.620378,0.14361 0.620483,0.62555 0.789145,1.01555 l -0.219272,0.0887 -0.372603,-0.67799 c -0.113861,-0.20718 -0.50292,-0.0457 -0.683399,0.0254 -0.315827,0.5483 0.02959,1.71694 0.02959,1.71694 z"
       id="path996-9-6"
       inkscape:connector-curvature="0"
       sodipodi:nodetypes="cssssscccsccc" />
    <path
       style="fill:#009b0a;fill-opacity:1;stroke:none;stroke-width:0.66308135px;stroke-linecap:butt;stroke-linejoin:miter;stroke-opacity:1"
       d="m 70.803451,234.91278 c 0.207208,-0.79925 0.500546,-1.90139 -0.609641,-1.95433 -0.406717,-0.0194 -0.622354,1.03755 -0.562894,0.95758 0,0 -0.423699,-0.0923 -0.207788,-0.38186 0.199106,-0.26704 0.186443,-0.7834 0.646722,-0.90673 0.427207,-0.11447 0.584796,0.30997 1.027058,0.31299 0.337517,0.002 0.386187,-0.16091 0.755202,-0.22593 0.620378,0.14361 0.620483,0.62555 0.789145,1.01555 l -0.219272,0.0887 -0.372603,-0.67799 c -0.113861,-0.20718 -0.50292,-0.0457 -0.683399,0.0254 -0.315827,0.5483 0.02959,1.71694 0.02959,1.71694 z"
       id="path996-1-3"
       inkscape:connector-curvature="0"
       sodipodi:nodetypes="cssssscccsccc" />
    <path
       style="fill:#009b0a;fill-opacity:1;stroke:none;stroke-width:0.66308135px;stroke-linecap:butt;stroke-linejoin:miter;stroke-opacity:1"
       d="m 74.838348,235.60731 c 0.207208,-0.79925 0.500546,-1.90139 -0.609642,-1.95433 -0.406717,-0.0194 -0.622354,1.03755 -0.562894,0.95758 0,0 -0.423699,-0.0923 -0.207788,-0.38186 0.199106,-0.26704 0.186443,-0.7834 0.646722,-0.90673 0.427208,-0.11447 0.584797,0.30997 1.027059,0.31299 0.337517,0.002 0.386187,-0.16091 0.755202,-0.22593 0.620378,0.14361 0.620483,0.62555 0.789144,1.01555 l -0.219271,0.0887 -0.372604,-0.67799 c -0.11386,-0.20718 -0.502919,-0.0457 -0.683398,0.0254 -0.315827,0.5483 0.02959,1.71694 0.02959,1.71694 z"
       id="path996-7-9"
       inkscape:connector-curvature="0"
       sodipodi:nodetypes="cssssscccsccc" />
    <path
       style="fill:#009b0a;fill-opacity:1;stroke:none;stroke-width:0.66308135px;stroke-linecap:butt;stroke-linejoin:miter;stroke-opacity:1"
       d="m 54.933896,240.50136 c 0.207208,-0.79925 0.500546,-1.90139 -0.609641,-1.95433 -0.406717,-0.0194 -0.622354,1.03755 -0.562894,0.95758 0,0 -0.423699,-0.0923 -0.207788,-0.38186 0.199106,-0.26704 0.186443,-0.7834 0.646722,-0.90673 0.427207,-0.11447 0.584796,0.30997 1.027058,0.31299 0.337517,0.002 0.386187,-0.16091 0.755202,-0.22593 0.620378,0.14361 0.620483,0.62555 0.789145,1.01555 l -0.219272,0.0887 -0.372603,-0.67799 c -0.113861,-0.20718 -0.50292,-0.0457 -0.683399,0.0254 -0.315827,0.5483 0.02959,1.71694 0.02959,1.71694 z"
       id="path996-4"
       inkscape:connector-curvature="0"
       sodipodi:nodetypes="cssssscccsccc" />
    <path
       style="fill:#ff7d00;fill-opacity:1;stroke:none;stroke-width:0.33545634px;stroke-linecap:butt;stroke-linejoin:miter;stroke-opacity:1"
       d="m 54.502108,241.39835 c 0,0 -0.08498,-0.43904 0.0021,-0.6316 0.06782,-0.15011 0.216362,-0.26927 0.371154,-0.33255 0.233734,-0.0956 0.529538,-0.14223 0.759003,-0.0373 0.134884,0.0617 0.212037,0.21438 0.268846,0.34903 0.07891,0.18706 0.08479,0.6014 0.08479,0.6014 -0.391522,-0.22664 -0.815666,-0.37668 -1.485848,0.0509 z"
       id="path1329-8"
       inkscape:connector-curvature="0"
       sodipodi:nodetypes="csssscc" />
    <path
       style="fill:#ff7d00;fill-opacity:1;stroke:none;stroke-width:0.25984645px;stroke-linecap:butt;stroke-linejoin:miter;stroke-opacity:1"
       d="m 58.464985,240.70281 c 0,0 -0.06932,-0.32294 0.0017,-0.46457 0.05532,-0.11041 0.176496,-0.19806 0.302766,-0.24461 0.190666,-0.0703 0.431966,-0.10461 0.619149,-0.0274 0.11003,0.0454 0.172967,0.15768 0.219309,0.25672 0.06437,0.13759 0.06916,0.44236 0.06916,0.44236 -0.31938,-0.16671 -0.665372,-0.27707 -1.212066,0.0374 z"
       id="path1329-1-1"
       inkscape:connector-curvature="0"
       sodipodi:nodetypes="csssscc" />
    <path
       style="fill:#ff7d00;fill-opacity:1;stroke:none;stroke-width:0.33545634px;stroke-linecap:butt;stroke-linejoin:miter;stroke-opacity:1"
       d="m 62.447467,240.91328 c 0,0 -0.08498,-0.43904 0.0021,-0.6316 0.06782,-0.15011 0.216362,-0.26927 0.371154,-0.33255 0.233734,-0.0956 0.529538,-0.14223 0.759003,-0.0373 0.134884,0.0617 0.212037,0.21438 0.268846,0.34903 0.07891,0.18706 0.08479,0.6014 0.08479,0.6014 -0.391521,-0.22664 -0.815665,-0.37668 -1.485847,0.0509 z"
       id="path1329-0-2"
       inkscape:connector-curvature="0"
       sodipodi:nodetypes="csssscc" />
    <path
       style="fill:#ff7d00;fill-opacity:1;stroke:none;stroke-width:0.27171764px;stroke-linecap:butt;stroke-linejoin:miter;stroke-opacity:1"
       d="m 66.578812,240.50118 c 0,0 -0.06883,-0.35562 0.0017,-0.51159 0.05493,-0.12159 0.175252,-0.21811 0.300633,-0.26937 0.189323,-0.0774 0.428923,-0.1152 0.614788,-0.0302 0.109255,0.05 0.171749,0.17365 0.217764,0.28271 0.06392,0.15152 0.06868,0.48713 0.06868,0.48713 -0.31713,-0.18357 -0.660684,-0.30511 -1.203527,0.0412 z"
       id="path1329-6-9"
       inkscape:connector-curvature="0"
       sodipodi:nodetypes="csssscc" />
    <path
       style="fill:#ff7d00;fill-opacity:1;stroke:none;stroke-width:0.37005734px;stroke-linecap:butt;stroke-linejoin:miter;stroke-opacity:1"
       d="m 70.848874,240.67898 c 0,0 -0.09374,-0.48433 0.0023,-0.69675 0.07482,-0.16559 0.238679,-0.29704 0.409437,-0.36685 0.257843,-0.10546 0.584158,-0.1569 0.837291,-0.0412 0.148797,0.0681 0.233908,0.23649 0.296577,0.38503 0.08705,0.20636 0.09354,0.66343 0.09354,0.66343 -0.431905,-0.25001 -0.899797,-0.41553 -1.639106,0.0562 z"
       id="path1329-15-3"
       inkscape:connector-curvature="0"
       sodipodi:nodetypes="csssscc" />
    <path
       style="fill:#ff7d00;fill-opacity:1;stroke:none;stroke-width:0.31143555px;stroke-linecap:butt;stroke-linejoin:miter;stroke-opacity:1"
       d="m 75.016666,241.16484 c 0,0 -0.07621,-0.42194 0.0019,-0.607 0.06082,-0.14426 0.194046,-0.25878 0.332871,-0.31959 0.209626,-0.0919 0.474919,-0.13669 0.680715,-0.0359 0.120971,0.0593 0.190166,0.20603 0.241116,0.33544 0.07077,0.17977 0.07604,0.57797 0.07604,0.57797 -0.351137,-0.21781 -0.731532,-0.36201 -1.332588,0.0489 z"
       id="path1329-9-9"
       inkscape:connector-curvature="0"
       sodipodi:nodetypes="csssscc" />
    <path
       style="fill:#009b0a;fill-opacity:1;stroke:none;stroke-width:0.66308135px;stroke-linecap:butt;stroke-linejoin:miter;stroke-opacity:1"
       d="m 58.729204,240.00078 c 0.207208,-0.79925 0.500546,-1.90139 -0.609641,-1.95433 -0.406717,-0.0194 -0.622354,1.03755 -0.562894,0.95758 0,0 -0.423699,-0.0923 -0.207788,-0.38186 0.199106,-0.26704 0.186443,-0.7834 0.646722,-0.90673 0.427207,-0.11447 0.584796,0.30997 1.027058,0.31299 0.337517,0.002 0.386187,-0.16091 0.755202,-0.22593 0.620378,0.14361 0.620483,0.62555 0.789145,1.01555 l -0.219272,0.0887 -0.372603,-0.67799 c -0.113861,-0.20718 -0.50292,-0.0457 -0.683399,0.0254 -0.315827,0.5483 0.02959,1.71694 0.02959,1.71694 z"
       id="path996-49-0"
       inkscape:connector-curvature="0"
       sodipodi:nodetypes="cssssscccsccc" />
    <path
       style="fill:#009b0a;fill-opacity:1;stroke:none;stroke-width:0.66308135px;stroke-linecap:butt;stroke-linejoin:miter;stroke-opacity:1"
       d="m 62.830246,240.00077 c 0.207208,-0.79925 0.500546,-1.90139 -0.609641,-1.95433 -0.406717,-0.0194 -0.622354,1.03755 -0.562894,0.95758 0,0 -0.423699,-0.0923 -0.207788,-0.38186 0.199106,-0.26704 0.186443,-0.7834 0.646722,-0.90673 0.427207,-0.11447 0.584796,0.30997 1.027058,0.31299 0.337517,0.002 0.386187,-0.16091 0.755202,-0.22593 0.620378,0.14361 0.620483,0.62555 0.789145,1.01555 l -0.219272,0.0887 -0.372603,-0.67799 c -0.113861,-0.20718 -0.50292,-0.0457 -0.683399,0.0254 -0.315827,0.5483 0.02959,1.71694 0.02959,1.71694 z"
       id="path996-0-8"
       inkscape:connector-curvature="0"
       sodipodi:nodetypes="cssssscccsccc" />
    <path
       style="fill:#009b0a;fill-opacity:1;stroke:none;stroke-width:0.66308135px;stroke-linecap:butt;stroke-linejoin:miter;stroke-opacity:1"
       d="m 66.898215,239.70311 c 0.207208,-0.79925 0.500546,-1.90139 -0.609641,-1.95433 -0.406717,-0.0194 -0.622354,1.03755 -0.562894,0.95758 0,0 -0.423699,-0.0923 -0.207788,-0.38186 0.199106,-0.26704 0.186443,-0.7834 0.646722,-0.90673 0.427207,-0.11447 0.584796,0.30997 1.027058,0.31299 0.337517,0.002 0.386187,-0.16091 0.755202,-0.22593 0.620378,0.14361 0.620483,0.62555 0.789145,1.01555 l -0.219272,0.0887 -0.372603,-0.67799 c -0.113861,-0.20718 -0.50292,-0.0457 -0.683399,0.0254 -0.315827,0.5483 0.02959,1.71694 0.02959,1.71694 z"
       id="path996-9-8"
       inkscape:connector-curvature="0"
       sodipodi:nodetypes="cssssscccsccc" />
    <path
       style="fill:#009b0a;fill-opacity:1;stroke:none;stroke-width:0.66308135px;stroke-linecap:butt;stroke-linejoin:miter;stroke-opacity:1"
       d="m 71.363058,239.57082 c 0.207208,-0.79925 0.500546,-1.90139 -0.609641,-1.95433 -0.406717,-0.0194 -0.622354,1.03755 -0.562894,0.95758 0,0 -0.423699,-0.0923 -0.207788,-0.38186 0.199106,-0.26704 0.186443,-0.7834 0.646722,-0.90673 0.427207,-0.11447 0.584796,0.30997 1.027058,0.31299 0.337517,0.002 0.386187,-0.16091 0.755202,-0.22593 0.620378,0.14361 0.620483,0.62555 0.789145,1.01555 l -0.219272,0.0887 -0.372603,-0.67799 c -0.113861,-0.20718 -0.50292,-0.0457 -0.683399,0.0254 -0.315827,0.5483 0.02959,1.71694 0.02959,1.71694 z"
       id="path996-1-5"
       inkscape:connector-curvature="0"
       sodipodi:nodetypes="cssssscccsccc" />
    <path
       style="fill:#009b0a;fill-opacity:1;stroke:none;stroke-width:0.66308135px;stroke-linecap:butt;stroke-linejoin:miter;stroke-opacity:1"
       d="m 75.397955,240.26535 c 0.207208,-0.79925 0.500546,-1.90139 -0.609642,-1.95433 -0.406717,-0.0194 -0.622354,1.03755 -0.562894,0.95758 0,0 -0.423699,-0.0923 -0.207788,-0.38186 0.199106,-0.26704 0.186443,-0.7834 0.646722,-0.90673 0.427208,-0.11447 0.584797,0.30997 1.027059,0.31299 0.337517,0.002 0.386187,-0.16091 0.755202,-0.22593 0.620378,0.14361 0.620483,0.62555 0.789144,1.01555 l -0.219271,0.0887 -0.372604,-0.67799 c -0.11386,-0.20718 -0.502919,-0.0457 -0.683398,0.0254 -0.315827,0.5483 0.02959,1.71694 0.02959,1.71694 z"
       id="path996-7-0"
       inkscape:connector-curvature="0"
       sodipodi:nodetypes="cssssscccsccc" />
    <path
       style="fill:#009b0a;fill-opacity:1;stroke:none;stroke-width:0.66308135px;stroke-linecap:butt;stroke-linejoin:miter;stroke-opacity:1"
       d="m 54.891567,244.69718 c 0.207208,-0.79925 0.500546,-1.90139 -0.609641,-1.95433 -0.406717,-0.0194 -0.622354,1.03755 -0.562894,0.95758 0,0 -0.423699,-0.0923 -0.207788,-0.38186 0.199106,-0.26704 0.186443,-0.7834 0.646722,-0.90673 0.427207,-0.11447 0.584796,0.30997 1.027058,0.31299 0.337517,0.002 0.386187,-0.16091 0.755202,-0.22593 0.620378,0.14361 0.620483,0.62555 0.789145,1.01555 l -0.219272,0.0887 -0.372603,-0.67799 c -0.113861,-0.20718 -0.50292,-0.0457 -0.683399,0.0254 -0.315827,0.5483 0.02959,1.71694 0.02959,1.71694 z"
       id="path996-96"
       inkscape:connector-curvature="0"
       sodipodi:nodetypes="cssssscccsccc" />
    <path
       style="fill:#ff7d00;fill-opacity:1;stroke:none;stroke-width:0.33545634px;stroke-linecap:butt;stroke-linejoin:miter;stroke-opacity:1"
       d="m 54.459779,245.59417 c 0,0 -0.08498,-0.43904 0.0021,-0.6316 0.06782,-0.15011 0.216362,-0.26927 0.371154,-0.33255 0.233734,-0.0956 0.529538,-0.14223 0.759003,-0.0373 0.134884,0.0617 0.212037,0.21438 0.268846,0.34903 0.07891,0.18706 0.08479,0.6014 0.08479,0.6014 -0.391522,-0.22664 -0.815666,-0.37668 -1.485848,0.0509 z"
       id="path1329-3"
       inkscape:connector-curvature="0"
       sodipodi:nodetypes="csssscc" />
    <path
       style="fill:#ff7d00;fill-opacity:1;stroke:none;stroke-width:0.25984645px;stroke-linecap:butt;stroke-linejoin:miter;stroke-opacity:1"
       d="m 58.422656,244.89863 c 0,0 -0.06932,-0.32294 0.0017,-0.46457 0.05532,-0.11041 0.176496,-0.19806 0.302766,-0.24461 0.190666,-0.0703 0.431966,-0.10461 0.619149,-0.0274 0.11003,0.0454 0.172967,0.15768 0.219309,0.25672 0.06437,0.13759 0.06916,0.44236 0.06916,0.44236 -0.31938,-0.16671 -0.665372,-0.27707 -1.212066,0.0374 z"
       id="path1329-1-8"
       inkscape:connector-curvature="0"
       sodipodi:nodetypes="csssscc" />
    <path
       style="fill:#ff7d00;fill-opacity:1;stroke:none;stroke-width:0.33545634px;stroke-linecap:butt;stroke-linejoin:miter;stroke-opacity:1"
       d="m 62.405138,245.1091 c 0,0 -0.08498,-0.43904 0.0021,-0.6316 0.06782,-0.15011 0.216362,-0.26927 0.371154,-0.33255 0.233734,-0.0956 0.529538,-0.14223 0.759003,-0.0373 0.134884,0.0617 0.212037,0.21438 0.268846,0.34903 0.07891,0.18706 0.08479,0.6014 0.08479,0.6014 -0.391521,-0.22664 -0.815665,-0.37668 -1.485847,0.0509 z"
       id="path1329-0-5"
       inkscape:connector-curvature="0"
       sodipodi:nodetypes="csssscc" />
    <path
       style="fill:#ff7d00;fill-opacity:1;stroke:none;stroke-width:0.27171764px;stroke-linecap:butt;stroke-linejoin:miter;stroke-opacity:1"
       d="m 66.536483,244.697 c 0,0 -0.06883,-0.35562 0.0017,-0.51159 0.05493,-0.12159 0.175252,-0.21811 0.300633,-0.26937 0.189323,-0.0774 0.428923,-0.1152 0.614788,-0.0302 0.109255,0.05 0.171749,0.17365 0.217764,0.28271 0.06392,0.15152 0.06868,0.48713 0.06868,0.48713 -0.31713,-0.18357 -0.660684,-0.30511 -1.203527,0.0412 z"
       id="path1329-6-61"
       inkscape:connector-curvature="0"
       sodipodi:nodetypes="csssscc" />
    <path
       style="fill:#ff7d00;fill-opacity:1;stroke:none;stroke-width:0.37005734px;stroke-linecap:butt;stroke-linejoin:miter;stroke-opacity:1"
       d="m 70.806545,244.8748 c 0,0 -0.09374,-0.48433 0.0023,-0.69675 0.07482,-0.16559 0.238679,-0.29704 0.409437,-0.36685 0.257843,-0.10546 0.584158,-0.1569 0.837291,-0.0412 0.148797,0.0681 0.233908,0.23649 0.296577,0.38503 0.08705,0.20636 0.09354,0.66343 0.09354,0.66343 -0.431905,-0.25001 -0.899797,-0.41553 -1.639106,0.0562 z"
       id="path1329-15-1"
       inkscape:connector-curvature="0"
       sodipodi:nodetypes="csssscc" />
    <path
       style="fill:#ff7d00;fill-opacity:1;stroke:none;stroke-width:0.31143555px;stroke-linecap:butt;stroke-linejoin:miter;stroke-opacity:1"
       d="m 74.974337,245.36066 c 0,0 -0.07621,-0.42194 0.0019,-0.607 0.06082,-0.14426 0.194046,-0.25878 0.332871,-0.31959 0.209626,-0.0919 0.474919,-0.13669 0.680715,-0.0359 0.120971,0.0593 0.190166,0.20603 0.241116,0.33544 0.07077,0.17977 0.07604,0.57797 0.07604,0.57797 -0.351137,-0.21781 -0.731532,-0.36201 -1.332588,0.0489 z"
       id="path1329-9-5"
       inkscape:connector-curvature="0"
       sodipodi:nodetypes="csssscc" />
    <path
       style="fill:#009b0a;fill-opacity:1;stroke:none;stroke-width:0.66308135px;stroke-linecap:butt;stroke-linejoin:miter;stroke-opacity:1"
       d="m 58.686875,244.1966 c 0.207208,-0.79925 0.500546,-1.90139 -0.609641,-1.95433 -0.406717,-0.0194 -0.622354,1.03755 -0.562894,0.95758 0,0 -0.423699,-0.0923 -0.207788,-0.38186 0.199106,-0.26704 0.186443,-0.7834 0.646722,-0.90673 0.427207,-0.11447 0.584796,0.30997 1.027058,0.31299 0.337517,0.002 0.386187,-0.16091 0.755202,-0.22593 0.620378,0.14361 0.620483,0.62555 0.789145,1.01555 l -0.219272,0.0887 -0.372603,-0.67799 c -0.113861,-0.20718 -0.50292,-0.0457 -0.683399,0.0254 -0.315827,0.5483 0.02959,1.71694 0.02959,1.71694 z"
       id="path996-49-9"
       inkscape:connector-curvature="0"
       sodipodi:nodetypes="cssssscccsccc" />
    <path
       style="fill:#009b0a;fill-opacity:1;stroke:none;stroke-width:0.66308135px;stroke-linecap:butt;stroke-linejoin:miter;stroke-opacity:1"
       d="m 62.787917,244.19659 c 0.207208,-0.79925 0.500546,-1.90139 -0.609641,-1.95433 -0.406717,-0.0194 -0.622354,1.03755 -0.562894,0.95758 0,0 -0.423699,-0.0923 -0.207788,-0.38186 0.199106,-0.26704 0.186443,-0.7834 0.646722,-0.90673 0.427207,-0.11447 0.584796,0.30997 1.027058,0.31299 0.337517,0.002 0.386187,-0.16091 0.755202,-0.22593 0.620378,0.14361 0.620483,0.62555 0.789145,1.01555 l -0.219272,0.0887 -0.372603,-0.67799 c -0.113861,-0.20718 -0.50292,-0.0457 -0.683399,0.0254 -0.315827,0.5483 0.02959,1.71694 0.02959,1.71694 z"
       id="path996-0-84"
       inkscape:connector-curvature="0"
       sodipodi:nodetypes="cssssscccsccc" />
    <path
       style="fill:#009b0a;fill-opacity:1;stroke:none;stroke-width:0.66308135px;stroke-linecap:butt;stroke-linejoin:miter;stroke-opacity:1"
       d="m 66.855886,243.89893 c 0.207208,-0.79925 0.500546,-1.90139 -0.609641,-1.95433 -0.406717,-0.0194 -0.622354,1.03755 -0.562894,0.95758 0,0 -0.423699,-0.0923 -0.207788,-0.38186 0.199106,-0.26704 0.186443,-0.7834 0.646722,-0.90673 0.427207,-0.11447 0.584796,0.30997 1.027058,0.31299 0.337517,0.002 0.386187,-0.16091 0.755202,-0.22593 0.620378,0.14361 0.620483,0.62555 0.789145,1.01555 l -0.219272,0.0887 -0.372603,-0.67799 c -0.113861,-0.20718 -0.50292,-0.0457 -0.683399,0.0254 -0.315827,0.5483 0.02959,1.71694 0.02959,1.71694 z"
       id="path996-9-81"
       inkscape:connector-curvature="0"
       sodipodi:nodetypes="cssssscccsccc" />
    <path
       style="fill:#009b0a;fill-opacity:1;stroke:none;stroke-width:0.66308135px;stroke-linecap:butt;stroke-linejoin:miter;stroke-opacity:1"
       d="m 71.320729,243.76664 c 0.207208,-0.79925 0.500546,-1.90139 -0.609641,-1.95433 -0.406717,-0.0194 -0.622354,1.03755 -0.562894,0.95758 0,0 -0.423699,-0.0923 -0.207788,-0.38186 0.199106,-0.26704 0.186443,-0.7834 0.646722,-0.90673 0.427207,-0.11447 0.584796,0.30997 1.027058,0.31299 0.337517,0.002 0.386187,-0.16091 0.755202,-0.22593 0.620378,0.14361 0.620483,0.62555 0.789145,1.01555 l -0.219272,0.0887 -0.372603,-0.67799 c -0.113861,-0.20718 -0.50292,-0.0457 -0.683399,0.0254 -0.315827,0.5483 0.02959,1.71694 0.02959,1.71694 z"
       id="path996-1-0"
       inkscape:connector-curvature="0"
       sodipodi:nodetypes="cssssscccsccc" />
    <path
       style="fill:#009b0a;fill-opacity:1;stroke:none;stroke-width:0.66308135px;stroke-linecap:butt;stroke-linejoin:miter;stroke-opacity:1"
       d="m 75.355626,244.46117 c 0.207208,-0.79925 0.500546,-1.90139 -0.609642,-1.95433 -0.406717,-0.0194 -0.622354,1.03755 -0.562894,0.95758 0,0 -0.423699,-0.0923 -0.207788,-0.38186 0.199106,-0.26704 0.186443,-0.7834 0.646722,-0.90673 0.427208,-0.11447 0.584797,0.30997 1.027059,0.31299 0.337517,0.002 0.386187,-0.16091 0.755202,-0.22593 0.620378,0.14361 0.620483,0.62555 0.789144,1.01555 l -0.219271,0.0887 -0.372604,-0.67799 c -0.11386,-0.20718 -0.502919,-0.0457 -0.683398,0.0254 -0.315827,0.5483 0.02959,1.71694 0.02959,1.71694 z"
       id="path996-7-3"
       inkscape:connector-curvature="0"
       sodipodi:nodetypes="cssssscccsccc" />
    <path
       style="fill:#009b0a;fill-opacity:1;stroke:none;stroke-width:0.66308135px;stroke-linecap:butt;stroke-linejoin:miter;stroke-opacity:1"
       d="m 54.556912,248.82284 c 0.207208,-0.79925 0.500546,-1.90139 -0.609641,-1.95433 -0.406717,-0.0194 -0.622354,1.03755 -0.562894,0.95758 0,0 -0.423699,-0.0923 -0.207788,-0.38186 0.199106,-0.26704 0.186443,-0.7834 0.646722,-0.90673 0.427207,-0.11447 0.584796,0.30997 1.027058,0.31299 0.337517,0.002 0.386187,-0.16091 0.755202,-0.22593 0.620378,0.14361 0.620483,0.62555 0.789145,1.01555 l -0.219272,0.0887 -0.372603,-0.67799 c -0.113861,-0.20718 -0.50292,-0.0457 -0.683399,0.0254 -0.315827,0.5483 0.02959,1.71694 0.02959,1.71694 z"
       id="path996-04"
       inkscape:connector-curvature="0"
       sodipodi:nodetypes="cssssscccsccc" />
    <path
       style="fill:#ff7d00;fill-opacity:1;stroke:none;stroke-width:0.33545634px;stroke-linecap:butt;stroke-linejoin:miter;stroke-opacity:1"
       d="m 54.125124,249.71983 c 0,0 -0.08498,-0.43904 0.0021,-0.6316 0.06782,-0.15011 0.216362,-0.26927 0.371154,-0.33255 0.233734,-0.0956 0.529538,-0.14223 0.759003,-0.0373 0.134884,0.0617 0.212037,0.21438 0.268846,0.34903 0.07891,0.18706 0.08479,0.6014 0.08479,0.6014 -0.391522,-0.22664 -0.815666,-0.37668 -1.485848,0.0509 z"
       id="path1329-4"
       inkscape:connector-curvature="0"
       sodipodi:nodetypes="csssscc" />
    <path
       style="fill:#ff7d00;fill-opacity:1;stroke:none;stroke-width:0.25984645px;stroke-linecap:butt;stroke-linejoin:miter;stroke-opacity:1"
       d="m 58.088001,249.02429 c 0,0 -0.06932,-0.32294 0.0017,-0.46457 0.05532,-0.11041 0.176496,-0.19806 0.302766,-0.24461 0.190666,-0.0703 0.431966,-0.10461 0.619149,-0.0274 0.11003,0.0454 0.172967,0.15768 0.219309,0.25672 0.06437,0.13759 0.06916,0.44236 0.06916,0.44236 -0.31938,-0.16671 -0.665372,-0.27707 -1.212066,0.0374 z"
       id="path1329-1-4"
       inkscape:connector-curvature="0"
       sodipodi:nodetypes="csssscc" />
    <path
       style="fill:#ff7d00;fill-opacity:1;stroke:none;stroke-width:0.33545634px;stroke-linecap:butt;stroke-linejoin:miter;stroke-opacity:1"
       d="m 62.070483,249.23476 c 0,0 -0.08498,-0.43904 0.0021,-0.6316 0.06782,-0.15011 0.216362,-0.26927 0.371154,-0.33255 0.233734,-0.0956 0.529538,-0.14223 0.759003,-0.0373 0.134884,0.0617 0.212037,0.21438 0.268846,0.34903 0.07891,0.18706 0.08479,0.6014 0.08479,0.6014 -0.391521,-0.22664 -0.815665,-0.37668 -1.485847,0.0509 z"
       id="path1329-0-4"
       inkscape:connector-curvature="0"
       sodipodi:nodetypes="csssscc" />
    <path
       style="fill:#ff7d00;fill-opacity:1;stroke:none;stroke-width:0.27171764px;stroke-linecap:butt;stroke-linejoin:miter;stroke-opacity:1"
       d="m 66.201828,248.82266 c 0,0 -0.06883,-0.35562 0.0017,-0.51159 0.05493,-0.12159 0.175252,-0.21811 0.300633,-0.26937 0.189323,-0.0774 0.428923,-0.1152 0.614788,-0.0302 0.109255,0.05 0.171749,0.17365 0.217764,0.28271 0.06392,0.15152 0.06868,0.48713 0.06868,0.48713 -0.31713,-0.18357 -0.660684,-0.30511 -1.203527,0.0412 z"
       id="path1329-6-7"
       inkscape:connector-curvature="0"
       sodipodi:nodetypes="csssscc" />
    <path
       style="fill:#ff7d00;fill-opacity:1;stroke:none;stroke-width:0.37005734px;stroke-linecap:butt;stroke-linejoin:miter;stroke-opacity:1"
       d="m 70.47189,249.00046 c 0,0 -0.09374,-0.48433 0.0023,-0.69675 0.07482,-0.16559 0.238679,-0.29704 0.409437,-0.36685 0.257843,-0.10546 0.584158,-0.1569 0.837291,-0.0412 0.148797,0.0681 0.233908,0.23649 0.296577,0.38503 0.08705,0.20636 0.09354,0.66343 0.09354,0.66343 -0.431905,-0.25001 -0.899797,-0.41553 -1.639106,0.0562 z"
       id="path1329-15-6"
       inkscape:connector-curvature="0"
       sodipodi:nodetypes="csssscc" />
    <path
       style="fill:#ff7d00;fill-opacity:1;stroke:none;stroke-width:0.31143555px;stroke-linecap:butt;stroke-linejoin:miter;stroke-opacity:1"
       d="m 74.639682,249.48632 c 0,0 -0.07621,-0.42194 0.0019,-0.607 0.06082,-0.14426 0.194046,-0.25878 0.332871,-0.31959 0.209626,-0.0919 0.474919,-0.13669 0.680715,-0.0359 0.120971,0.0593 0.190166,0.20603 0.241116,0.33544 0.07077,0.17977 0.07604,0.57797 0.07604,0.57797 -0.351137,-0.21781 -0.731532,-0.36201 -1.332588,0.0489 z"
       id="path1329-9-31"
       inkscape:connector-curvature="0"
       sodipodi:nodetypes="csssscc" />
    <path
       style="fill:#009b0a;fill-opacity:1;stroke:none;stroke-width:0.66308135px;stroke-linecap:butt;stroke-linejoin:miter;stroke-opacity:1"
       d="m 58.35222,248.32226 c 0.207208,-0.79925 0.500546,-1.90139 -0.609641,-1.95433 -0.406717,-0.0194 -0.622354,1.03755 -0.562894,0.95758 0,0 -0.423699,-0.0923 -0.207788,-0.38186 0.199106,-0.26704 0.186443,-0.7834 0.646722,-0.90673 0.427207,-0.11447 0.584796,0.30997 1.027058,0.31299 0.337517,0.002 0.386187,-0.16091 0.755202,-0.22593 0.620378,0.14361 0.620483,0.62555 0.789145,1.01555 l -0.219272,0.0887 -0.372603,-0.67799 c -0.113861,-0.20718 -0.50292,-0.0457 -0.683399,0.0254 -0.315827,0.5483 0.02959,1.71694 0.02959,1.71694 z"
       id="path996-49-7"
       inkscape:connector-curvature="0"
       sodipodi:nodetypes="cssssscccsccc" />
    <path
       style="fill:#009b0a;fill-opacity:1;stroke:none;stroke-width:0.66308135px;stroke-linecap:butt;stroke-linejoin:miter;stroke-opacity:1"
       d="m 62.453262,248.32225 c 0.207208,-0.79925 0.500546,-1.90139 -0.609641,-1.95433 -0.406717,-0.0194 -0.622354,1.03755 -0.562894,0.95758 0,0 -0.423699,-0.0923 -0.207788,-0.38186 0.199106,-0.26704 0.186443,-0.7834 0.646722,-0.90673 0.427207,-0.11447 0.584796,0.30997 1.027058,0.31299 0.337517,0.002 0.386187,-0.16091 0.755202,-0.22593 0.620378,0.14361 0.620483,0.62555 0.789145,1.01555 l -0.219272,0.0887 -0.372603,-0.67799 c -0.113861,-0.20718 -0.50292,-0.0457 -0.683399,0.0254 -0.315827,0.5483 0.02959,1.71694 0.02959,1.71694 z"
       id="path996-0-59"
       inkscape:connector-curvature="0"
       sodipodi:nodetypes="cssssscccsccc" />
    <path
       style="fill:#009b0a;fill-opacity:1;stroke:none;stroke-width:0.66308135px;stroke-linecap:butt;stroke-linejoin:miter;stroke-opacity:1"
       d="m 66.521231,248.02459 c 0.207208,-0.79925 0.500546,-1.90139 -0.609641,-1.95433 -0.406717,-0.0194 -0.622354,1.03755 -0.562894,0.95758 0,0 -0.423699,-0.0923 -0.207788,-0.38186 0.199106,-0.26704 0.186443,-0.7834 0.646722,-0.90673 0.427207,-0.11447 0.584796,0.30997 1.027058,0.31299 0.337517,0.002 0.386187,-0.16091 0.755202,-0.22593 0.620378,0.14361 0.620483,0.62555 0.789145,1.01555 l -0.219272,0.0887 -0.372603,-0.67799 c -0.113861,-0.20718 -0.50292,-0.0457 -0.683399,0.0254 -0.315827,0.5483 0.02959,1.71694 0.02959,1.71694 z"
       id="path996-9-62"
       inkscape:connector-curvature="0"
       sodipodi:nodetypes="cssssscccsccc" />
    <path
       style="fill:#009b0a;fill-opacity:1;stroke:none;stroke-width:0.66308135px;stroke-linecap:butt;stroke-linejoin:miter;stroke-opacity:1"
       d="m 70.986074,247.8923 c 0.207208,-0.79925 0.500546,-1.90139 -0.609641,-1.95433 -0.406717,-0.0194 -0.622354,1.03755 -0.562894,0.95758 0,0 -0.423699,-0.0923 -0.207788,-0.38186 0.199106,-0.26704 0.186443,-0.7834 0.646722,-0.90673 0.427207,-0.11447 0.584796,0.30997 1.027058,0.31299 0.337517,0.002 0.386187,-0.16091 0.755202,-0.22593 0.620378,0.14361 0.620483,0.62555 0.789145,1.01555 l -0.219272,0.0887 -0.372603,-0.67799 c -0.113861,-0.20718 -0.50292,-0.0457 -0.683399,0.0254 -0.315827,0.5483 0.02959,1.71694 0.02959,1.71694 z"
       id="path996-1-1"
       inkscape:connector-curvature="0"
       sodipodi:nodetypes="cssssscccsccc" />
    <path
       style="fill:#009b0a;fill-opacity:1;stroke:none;stroke-width:0.66308135px;stroke-linecap:butt;stroke-linejoin:miter;stroke-opacity:1"
       d="m 75.020971,248.58683 c 0.207208,-0.79925 0.500546,-1.90139 -0.609642,-1.95433 -0.406717,-0.0194 -0.622354,1.03755 -0.562894,0.95758 0,0 -0.423699,-0.0923 -0.207788,-0.38186 0.199106,-0.26704 0.186443,-0.7834 0.646722,-0.90673 0.427208,-0.11447 0.584797,0.30997 1.027059,0.31299 0.337517,0.002 0.386187,-0.16091 0.755202,-0.22593 0.620378,0.14361 0.620483,0.62555 0.789144,1.01555 l -0.219271,0.0887 -0.372604,-0.67799 c -0.11386,-0.20718 -0.502919,-0.0457 -0.683398,0.0254 -0.315827,0.5483 0.02959,1.71694 0.02959,1.71694 z"
       id="path996-7-7"
       inkscape:connector-curvature="0"
       sodipodi:nodetypes="cssssscccsccc" />
    <path
       style="fill:#009b0a;fill-opacity:1;stroke:none;stroke-width:0.66308135px;stroke-linecap:butt;stroke-linejoin:miter;stroke-opacity:1"
       d="m 55.074307,253.50182 c 0.207208,-0.79925 0.500546,-1.90139 -0.609641,-1.95433 -0.406717,-0.0194 -0.622354,1.03755 -0.562894,0.95758 0,0 -0.423699,-0.0923 -0.207788,-0.38186 0.199106,-0.26704 0.186443,-0.7834 0.646722,-0.90673 0.427207,-0.11447 0.584796,0.30997 1.027058,0.31299 0.337517,0.002 0.386187,-0.16091 0.755202,-0.22593 0.620378,0.14361 0.620483,0.62555 0.789145,1.01555 l -0.219272,0.0887 -0.372603,-0.67799 c -0.113861,-0.20718 -0.50292,-0.0457 -0.683399,0.0254 -0.315827,0.5483 0.02959,1.71694 0.02959,1.71694 z"
       id="path996-8"
       inkscape:connector-curvature="0"
       sodipodi:nodetypes="cssssscccsccc" />
    <path
       style="fill:#ff7d00;fill-opacity:1;stroke:none;stroke-width:0.33545634px;stroke-linecap:butt;stroke-linejoin:miter;stroke-opacity:1"
       d="m 54.642519,254.39881 c 0,0 -0.08498,-0.43904 0.0021,-0.6316 0.06782,-0.15011 0.216362,-0.26927 0.371154,-0.33255 0.233734,-0.0956 0.529538,-0.14223 0.759003,-0.0373 0.134884,0.0617 0.212037,0.21438 0.268846,0.34903 0.07891,0.18706 0.08479,0.6014 0.08479,0.6014 -0.391522,-0.22664 -0.815666,-0.37668 -1.485848,0.0509 z"
       id="path1329-5"
       inkscape:connector-curvature="0"
       sodipodi:nodetypes="csssscc" />
    <path
       style="fill:#ff7d00;fill-opacity:1;stroke:none;stroke-width:0.25984645px;stroke-linecap:butt;stroke-linejoin:miter;stroke-opacity:1"
       d="m 58.605396,253.70327 c 0,0 -0.06932,-0.32294 0.0017,-0.46457 0.05532,-0.11041 0.176496,-0.19806 0.302766,-0.24461 0.190666,-0.0703 0.431966,-0.10461 0.619149,-0.0274 0.11003,0.0454 0.172967,0.15768 0.219309,0.25672 0.06437,0.13759 0.06916,0.44236 0.06916,0.44236 -0.31938,-0.16671 -0.665372,-0.27707 -1.212066,0.0374 z"
       id="path1329-1-74"
       inkscape:connector-curvature="0"
       sodipodi:nodetypes="csssscc" />
    <path
       style="fill:#ff7d00;fill-opacity:1;stroke:none;stroke-width:0.33545634px;stroke-linecap:butt;stroke-linejoin:miter;stroke-opacity:1"
       d="m 62.587878,253.91374 c 0,0 -0.08498,-0.43904 0.0021,-0.6316 0.06782,-0.15011 0.216362,-0.26927 0.371154,-0.33255 0.233734,-0.0956 0.529538,-0.14223 0.759003,-0.0373 0.134884,0.0617 0.212037,0.21438 0.268846,0.34903 0.07891,0.18706 0.08479,0.6014 0.08479,0.6014 -0.391521,-0.22664 -0.815665,-0.37668 -1.485847,0.0509 z"
       id="path1329-0-1"
       inkscape:connector-curvature="0"
       sodipodi:nodetypes="csssscc" />
    <path
       style="fill:#ff7d00;fill-opacity:1;stroke:none;stroke-width:0.27171764px;stroke-linecap:butt;stroke-linejoin:miter;stroke-opacity:1"
       d="m 66.719223,253.50164 c 0,0 -0.06883,-0.35562 0.0017,-0.51159 0.05493,-0.12159 0.175252,-0.21811 0.300633,-0.26937 0.189323,-0.0774 0.428923,-0.1152 0.614788,-0.0302 0.109255,0.05 0.171749,0.17365 0.217764,0.28271 0.06392,0.15152 0.06868,0.48713 0.06868,0.48713 -0.31713,-0.18357 -0.660684,-0.30511 -1.203527,0.0412 z"
       id="path1329-6-8"
       inkscape:connector-curvature="0"
       sodipodi:nodetypes="csssscc" />
    <path
       style="fill:#ff7d00;fill-opacity:1;stroke:none;stroke-width:0.37005734px;stroke-linecap:butt;stroke-linejoin:miter;stroke-opacity:1"
       d="m 70.989285,253.67944 c 0,0 -0.09374,-0.48433 0.0023,-0.69675 0.07482,-0.16559 0.238679,-0.29704 0.409437,-0.36685 0.257843,-0.10546 0.584158,-0.1569 0.837291,-0.0412 0.148797,0.0681 0.233908,0.23649 0.296577,0.38503 0.08705,0.20636 0.09354,0.66343 0.09354,0.66343 -0.431905,-0.25001 -0.899797,-0.41553 -1.639106,0.0562 z"
       id="path1329-15-5"
       inkscape:connector-curvature="0"
       sodipodi:nodetypes="csssscc" />
    <path
       style="fill:#ff7d00;fill-opacity:1;stroke:none;stroke-width:0.31143555px;stroke-linecap:butt;stroke-linejoin:miter;stroke-opacity:1"
       d="m 75.157077,254.1653 c 0,0 -0.07621,-0.42194 0.0019,-0.607 0.06082,-0.14426 0.194046,-0.25878 0.332871,-0.31959 0.209626,-0.0919 0.474919,-0.13669 0.680715,-0.0359 0.120971,0.0593 0.190166,0.20603 0.241116,0.33544 0.07077,0.17977 0.07604,0.57797 0.07604,0.57797 -0.351137,-0.21781 -0.731532,-0.36201 -1.332588,0.0489 z"
       id="path1329-9-97"
       inkscape:connector-curvature="0"
       sodipodi:nodetypes="csssscc" />
    <path
       style="fill:#009b0a;fill-opacity:1;stroke:none;stroke-width:0.66308135px;stroke-linecap:butt;stroke-linejoin:miter;stroke-opacity:1"
       d="m 58.869615,253.00124 c 0.207208,-0.79925 0.500546,-1.90139 -0.609641,-1.95433 -0.406717,-0.0194 -0.622354,1.03755 -0.562894,0.95758 0,0 -0.423699,-0.0923 -0.207788,-0.38186 0.199106,-0.26704 0.186443,-0.7834 0.646722,-0.90673 0.427207,-0.11447 0.584796,0.30997 1.027058,0.31299 0.337517,0.002 0.386187,-0.16091 0.755202,-0.22593 0.620378,0.14361 0.620483,0.62555 0.789145,1.01555 l -0.219272,0.0887 -0.372603,-0.67799 c -0.113861,-0.20718 -0.50292,-0.0457 -0.683399,0.0254 -0.315827,0.5483 0.02959,1.71694 0.02959,1.71694 z"
       id="path996-49-5"
       inkscape:connector-curvature="0"
       sodipodi:nodetypes="cssssscccsccc" />
    <path
       style="fill:#009b0a;fill-opacity:1;stroke:none;stroke-width:0.66308135px;stroke-linecap:butt;stroke-linejoin:miter;stroke-opacity:1"
       d="m 62.970657,253.00123 c 0.207208,-0.79925 0.500546,-1.90139 -0.609641,-1.95433 -0.406717,-0.0194 -0.622354,1.03755 -0.562894,0.95758 0,0 -0.423699,-0.0923 -0.207788,-0.38186 0.199106,-0.26704 0.186443,-0.7834 0.646722,-0.90673 0.427207,-0.11447 0.584796,0.30997 1.027058,0.31299 0.337517,0.002 0.386187,-0.16091 0.755202,-0.22593 0.620378,0.14361 0.620483,0.62555 0.789145,1.01555 l -0.219272,0.0887 -0.372603,-0.67799 c -0.113861,-0.20718 -0.50292,-0.0457 -0.683399,0.0254 -0.315827,0.5483 0.02959,1.71694 0.02959,1.71694 z"
       id="path996-0-3"
       inkscape:connector-curvature="0"
       sodipodi:nodetypes="cssssscccsccc" />
    <path
       style="fill:#009b0a;fill-opacity:1;stroke:none;stroke-width:0.66308135px;stroke-linecap:butt;stroke-linejoin:miter;stroke-opacity:1"
       d="m 67.038626,252.70357 c 0.207208,-0.79925 0.500546,-1.90139 -0.609641,-1.95433 -0.406717,-0.0194 -0.622354,1.03755 -0.562894,0.95758 0,0 -0.423699,-0.0923 -0.207788,-0.38186 0.199106,-0.26704 0.186443,-0.7834 0.646722,-0.90673 0.427207,-0.11447 0.584796,0.30997 1.027058,0.31299 0.337517,0.002 0.386187,-0.16091 0.755202,-0.22593 0.620378,0.14361 0.620483,0.62555 0.789145,1.01555 l -0.219272,0.0887 -0.372603,-0.67799 c -0.113861,-0.20718 -0.50292,-0.0457 -0.683399,0.0254 -0.315827,0.5483 0.02959,1.71694 0.02959,1.71694 z"
       id="path996-9-88"
       inkscape:connector-curvature="0"
       sodipodi:nodetypes="cssssscccsccc" />
    <path
       style="fill:#009b0a;fill-opacity:1;stroke:none;stroke-width:0.66308135px;stroke-linecap:butt;stroke-linejoin:miter;stroke-opacity:1"
       d="m 71.503469,252.57128 c 0.207208,-0.79925 0.500546,-1.90139 -0.609641,-1.95433 -0.406717,-0.0194 -0.622354,1.03755 -0.562894,0.95758 0,0 -0.423699,-0.0923 -0.207788,-0.38186 0.199106,-0.26704 0.186443,-0.7834 0.646722,-0.90673 0.427207,-0.11447 0.584796,0.30997 1.027058,0.31299 0.337517,0.002 0.386187,-0.16091 0.755202,-0.22593 0.620378,0.14361 0.620483,0.62555 0.789145,1.01555 l -0.219272,0.0887 -0.372603,-0.67799 c -0.113861,-0.20718 -0.50292,-0.0457 -0.683399,0.0254 -0.315827,0.5483 0.02959,1.71694 0.02959,1.71694 z"
       id="path996-1-31"
       inkscape:connector-curvature="0"
       sodipodi:nodetypes="cssssscccsccc" />
    <path
       style="fill:#009b0a;fill-opacity:1;stroke:none;stroke-width:0.66308135px;stroke-linecap:butt;stroke-linejoin:miter;stroke-opacity:1"
       d="m 75.538366,253.26581 c 0.207208,-0.79925 0.500546,-1.90139 -0.609642,-1.95433 -0.406717,-0.0194 -0.622354,1.03755 -0.562894,0.95758 0,0 -0.423699,-0.0923 -0.207788,-0.38186 0.199106,-0.26704 0.186443,-0.7834 0.646722,-0.90673 0.427208,-0.11447 0.584797,0.30997 1.027059,0.31299 0.337517,0.002 0.386187,-0.16091 0.755202,-0.22593 0.620378,0.14361 0.620483,0.62555 0.789144,1.01555 l -0.219271,0.0887 -0.372604,-0.67799 c -0.11386,-0.20718 -0.502919,-0.0457 -0.683398,0.0254 -0.315827,0.5483 0.02959,1.71694 0.02959,1.71694 z"
       id="path996-7-8"
       inkscape:connector-curvature="0"
       sodipodi:nodetypes="cssssscccsccc" />
  </g>
</svg>
