<?xml version="1.0" encoding="UTF-8" standalone="no"?>
<!-- Created with Inkscape (http://www.inkscape.org/) -->

<svg
   xmlns:dc="http://purl.org/dc/elements/1.1/"
   xmlns:cc="http://creativecommons.org/ns#"
   xmlns:rdf="http://www.w3.org/1999/02/22-rdf-syntax-ns#"
   xmlns:svg="http://www.w3.org/2000/svg"
   xmlns="http://www.w3.org/2000/svg"
   xmlns:xlink="http://www.w3.org/1999/xlink"
   xmlns:sodipodi="http://sodipodi.sourceforge.net/DTD/sodipodi-0.dtd"
   xmlns:inkscape="http://www.inkscape.org/namespaces/inkscape"
   width="210mm"
   height="297mm"
   viewBox="0 0 210 297"
   version="1.1"
   id="svg8"
   inkscape:version="0.91 r13725"
   sodipodi:docname="land-patato-growing.svg">
  <defs
     id="defs2">
    <linearGradient
       inkscape:collect="always"
       id="linearGradient878">
      <stop
         style="stop-color:#61370a;stop-opacity:1;"
         offset="0"
         id="stop874" />
      <stop
         style="stop-color:#61370a;stop-opacity:0;"
         offset="1"
         id="stop876" />
    </linearGradient>
    <linearGradient
       inkscape:collect="always"
       id="linearGradient825-3">
      <stop
         style="stop-color:#60330a;stop-opacity:1;"
         offset="0"
         id="stop821" />
      <stop
         style="stop-color:#60330a;stop-opacity:0;"
         offset="1"
         id="stop823" />
    </linearGradient>
    <linearGradient
       inkscape:collect="always"
       xlink:href="#linearGradient825-3"
       id="linearGradient827"
       x1="65.895508"
       y1="230.21138"
       x2="65.729057"
       y2="233.35179"
       gradientUnits="userSpaceOnUse" />
    <linearGradient
       inkscape:collect="always"
       xlink:href="#linearGradient878"
       id="linearGradient880"
       x1="65.180351"
       y1="230.43413"
       x2="65.257027"
       y2="234.34294"
       gradientUnits="userSpaceOnUse" />
    <linearGradient
       gradientTransform="translate(0.01177819,4.2586726)"
       inkscape:collect="always"
       xlink:href="#linearGradient878"
       id="linearGradient880-6"
       x1="65.180351"
       y1="230.43413"
       x2="65.257027"
       y2="234.34294"
       gradientUnits="userSpaceOnUse" />
    <linearGradient
       gradientTransform="translate(0.27904774,8.8022546)"
       inkscape:collect="always"
       xlink:href="#linearGradient878"
       id="linearGradient880-5"
       x1="65.180351"
       y1="230.43413"
       x2="65.257027"
       y2="234.34294"
       gradientUnits="userSpaceOnUse" />
    <linearGradient
       gradientTransform="translate(0.22970162,22.121416)"
       inkscape:collect="always"
       xlink:href="#linearGradient878"
       id="linearGradient880-5-2"
       x1="65.180351"
       y1="230.43413"
       x2="65.257027"
       y2="234.34294"
       gradientUnits="userSpaceOnUse" />
    <linearGradient
       gradientTransform="translate(-0.03756838,17.577836)"
       inkscape:collect="always"
       xlink:href="#linearGradient878"
       id="linearGradient880-6-8"
       x1="65.180351"
       y1="230.43413"
       x2="65.257027"
       y2="234.34294"
       gradientUnits="userSpaceOnUse" />
    <linearGradient
       gradientTransform="translate(-0.04934838,13.319166)"
       inkscape:collect="always"
       xlink:href="#linearGradient878"
       id="linearGradient880-7"
       x1="65.180351"
       y1="230.43413"
       x2="65.257027"
       y2="234.34294"
       gradientUnits="userSpaceOnUse" />
  </defs>
  <sodipodi:namedview
     id="base"
     pagecolor="#ffffff"
     bordercolor="#666666"
     borderopacity="1.0"
     inkscape:pageopacity="0.0"
     inkscape:pageshadow="2"
     inkscape:zoom="5.6568543"
     inkscape:cx="259.80573"
     inkscape:cy="202.46026"
     inkscape:document-units="mm"
     inkscape:current-layer="layer1"
     showgrid="false"
     inkscape:window-width="1867"
     inkscape:window-height="1056"
     inkscape:window-x="1333"
     inkscape:window-y="24"
     inkscape:window-maximized="1" />
  <metadata
     id="metadata5">
    <rdf:RDF>
      <cc:Work
         rdf:about="">
        <dc:format>image/svg+xml</dc:format>
        <dc:type
           rdf:resource="http://purl.org/dc/dcmitype/StillImage" />
        <dc:title />
      </cc:Work>
    </rdf:RDF>
  </metadata>
  <g
     inkscape:label="Layer 1"
     inkscape:groupmode="layer"
     id="layer1">
    <rect
       style="fill:#904e0a;fill-opacity:1;stroke:none;stroke-width:0.065;stroke-miterlimit:4;stroke-dasharray:none;stroke-opacity:1"
       id="rect817"
       width="28.631697"
       height="28.631697"
       x="50.554317"
       y="228.20834" />
    <path
       style="fill:url(#linearGradient880);fill-opacity:1;stroke:none;stroke-width:0.26458332px;stroke-linecap:butt;stroke-linejoin:miter;stroke-opacity:1"
       d="m 52.652096,233.38985 c 0,0 0.994221,-2.14843 2.004523,-2.47224 0.638054,-0.2045 1.335059,1.44244 2.004519,1.46997 0.837991,0.0344 1.050332,-1.64349 1.870887,-1.46998 0.767637,0.16232 0.89361,1.29291 1.670435,1.40317 0.976258,0.13857 1.394875,-1.45151 2.338609,-1.73725 0.972196,-0.29436 1.330526,1.22174 2.271791,1.60362 0.527395,0.21397 1.411653,-2.00664 1.870886,-1.67044 0.719298,0.5266 1.313557,1.59512 2.204974,1.60362 0,0 1.131935,-1.31098 1.804068,-1.73725 0.739545,-0.46903 2.204975,1.67044 2.472245,1.73725 0.267268,0.0668 1.546317,-1.74141 2.004522,-1.33634 0.383927,0.33941 1.764761,-0.17684 1.473117,2.77158 -5.114019,0.0322 -23.990576,-0.16571 -23.990576,-0.16571"
       id="path819"
       inkscape:connector-curvature="0"
       sodipodi:nodetypes="cssssssssssscc" />
    <path
       style="fill:url(#linearGradient880-6);fill-opacity:1;stroke:none;stroke-width:0.26458332px;stroke-linecap:butt;stroke-linejoin:miter;stroke-opacity:1"
       d="m 52.663874,237.64852 c 0,0 0.994221,-2.14843 2.004523,-2.47224 0.638054,-0.2045 1.335059,1.44244 2.004519,1.46997 0.837991,0.0344 1.050332,-1.64349 1.870887,-1.46998 0.767637,0.16232 0.893611,1.29291 1.670435,1.40317 0.976258,0.13857 1.394876,-1.45151 2.338609,-1.73725 0.972196,-0.29436 1.330526,1.22174 2.271791,1.60362 0.527395,0.21397 1.411653,-2.00664 1.870886,-1.67044 0.719298,0.5266 1.313557,1.59512 2.204974,1.60362 0,0 1.131935,-1.31098 1.804068,-1.73725 0.739545,-0.46903 2.204975,1.67044 2.472245,1.73725 0.267268,0.0668 1.546317,-1.74141 2.004522,-1.33634 0.383927,0.33941 1.764761,-0.17684 1.473117,2.77158 -5.114019,0.0322 -23.990576,-0.16571 -23.990576,-0.16571"
       id="path819-3"
       inkscape:connector-curvature="0"
       sodipodi:nodetypes="cssssssssssscc" />
    <path
       style="fill:url(#linearGradient880-5);fill-opacity:1;stroke:none;stroke-width:0.26458332px;stroke-linecap:butt;stroke-linejoin:miter;stroke-opacity:1"
       d="m 52.931144,242.1921 c 0,0 0.994221,-2.14843 2.004523,-2.47224 0.638054,-0.2045 1.335059,1.44244 2.004519,1.46997 0.837991,0.0344 1.050332,-1.64349 1.870887,-1.46998 0.767637,0.16232 0.89361,1.29291 1.670435,1.40317 0.976258,0.13857 1.394875,-1.45151 2.338609,-1.73725 0.972196,-0.29436 1.330526,1.22174 2.271791,1.60362 0.527395,0.21397 1.411653,-2.00664 1.870886,-1.67044 0.719298,0.5266 1.313557,1.59512 2.204974,1.60362 0,0 1.131935,-1.31098 1.804068,-1.73725 0.739545,-0.46903 2.204975,1.67044 2.472245,1.73725 0.267268,0.0668 1.546317,-1.74141 2.004522,-1.33634 0.383927,0.33941 1.764761,-0.17684 1.473117,2.77158 -5.114019,0.0322 -23.990576,-0.16571 -23.990576,-0.16571"
       id="path819-9"
       inkscape:connector-curvature="0"
       sodipodi:nodetypes="cssssssssssscc" />
    <path
       style="fill:#41a324;fill-opacity:1;fill-rule:evenodd;stroke:none;stroke-width:0.28222221px;stroke-linecap:butt;stroke-linejoin:miter;stroke-opacity:1"
       d="m 54.685134,231.55549 c 0,0 0.139903,-0.54098 0.131961,-0.85726 -0.005,-0.19767 0.04552,-0.42641 -0.01351,-0.61838 -0.03614,-0.11755 -0.219615,-0.18532 -0.341905,-0.21498 -0.138981,-0.0337 -0.356779,0.0548 -0.356779,0.0548 0,0 0.05075,0.032 0.09067,0.0798 0.06945,0.0896 -0.05755,0.25241 -0.273289,0.2257 -0.172321,-0.0282 -0.402746,-0.0647 -0.402746,-0.0647 0,0 0.04644,-0.11004 0.159478,-0.28548 0.114987,-0.13751 0.165365,-0.24916 0.351071,-0.2155 0.03371,0.0527 -0.0014,0.14929 -0.0014,0.14929 0,0 0.306636,-0.0944 0.463479,-0.0857 0.108334,0.006 0.313368,0.12952 0.389913,0.18391 0.0274,-0.0843 0.10281,-0.10408 0.187817,-0.15644 -0.144378,-0.0156 -0.17547,-0.0771 -0.08223,-0.10164 0.168887,-0.0443 0.272018,0.0208 0.277658,0.0238 0.0084,0.004 0.05095,0.11628 0.02268,0.17827 -0.01932,0.0423 -0.141757,3.2e-4 -0.17927,-0.08 -0.07778,0.0632 -0.1182,0.0835 -0.07321,0.17958 0.07102,-0.003 0.167254,-0.0289 0.260611,-0.01 0.105559,0.0219 0.313842,0.10715 0.313842,0.10715 -0.10299,-0.14957 0.06232,-0.1713 0.189614,-0.14655 0.210963,0.1941 0.166038,0.12273 0.255074,0.37728 -0.234811,0.067 -0.258425,0.12187 -0.508965,0.0569 -0.04977,-0.0312 -0.106724,-0.071 -0.09367,-0.12007 0.01207,-0.0454 0.130362,-0.0533 0.130362,-0.0533 0,0 -0.23728,-0.0832 -0.321984,-0.0923 -0.07807,-0.008 -0.193294,-0.0136 -0.228625,0.0553 -0.07004,0.1366 -0.0344,0.42915 -0.03812,0.61837 -0.0057,0.29146 -0.06861,0.765 -0.06861,0.765 z"
       id="path4172"
       inkscape:connector-curvature="0"
       sodipodi:nodetypes="cssscccccccsccscsccsccccacssscc" />
    <path
       style="fill:#41a324;fill-opacity:1;fill-rule:evenodd;stroke:none;stroke-width:0.28222221px;stroke-linecap:butt;stroke-linejoin:miter;stroke-opacity:1"
       d="m 58.287484,231.83138 c 0,0 0.183955,-0.68141 0.173512,-1.07979 -0.0066,-0.24898 0.05985,-0.53709 -0.01776,-0.77889 -0.04752,-0.14807 -0.288766,-0.23343 -0.449562,-0.27079 -0.182742,-0.0424 -0.469119,0.069 -0.469119,0.069 0,0 0.06673,0.0403 0.11922,0.10051 0.09132,0.11286 -0.07567,0.31793 -0.359341,0.28429 -0.22658,-0.0355 -0.52956,-0.0815 -0.52956,-0.0815 0,0 0.06106,-0.1386 0.209693,-0.35958 0.151194,-0.17321 0.217435,-0.31384 0.461614,-0.27144 0.04433,0.0664 -0.0018,0.18804 -0.0018,0.18804 0,0 0.403187,-0.1189 0.609416,-0.10794 0.142446,0.008 0.412039,0.16314 0.512686,0.23164 0.03603,-0.10618 0.135183,-0.13109 0.246956,-0.19704 -0.189839,-0.0197 -0.230721,-0.0971 -0.108122,-0.12803 0.222065,-0.0558 0.357669,0.0262 0.365085,0.03 0.01105,0.005 0.06699,0.14646 0.02982,0.22455 -0.0254,0.0533 -0.186393,4e-4 -0.235718,-0.10077 -0.102271,0.0796 -0.155418,0.10517 -0.09626,0.22619 0.09338,-0.004 0.219918,-0.0364 0.342671,-0.0126 0.138797,0.0276 0.412662,0.13496 0.412662,0.13496 -0.135418,-0.18839 0.08194,-0.21576 0.249319,-0.18459 0.27739,0.24449 0.218319,0.15459 0.33539,0.47522 -0.308747,0.0844 -0.339796,0.1535 -0.669225,0.0717 -0.06544,-0.0393 -0.140328,-0.0894 -0.123164,-0.15124 0.01587,-0.0572 0.17141,-0.0671 0.17141,-0.0671 0,0 -0.311994,-0.10479 -0.423369,-0.11626 -0.102652,-0.0101 -0.254157,-0.0171 -0.300613,0.0697 -0.09209,0.17206 -0.04523,0.54055 -0.05012,0.77888 -0.0075,0.36712 -0.09021,0.96358 -0.09021,0.96358 z"
       id="path4172-3"
       inkscape:connector-curvature="0"
       sodipodi:nodetypes="cssscccccccsccscsccsccccacssscc" />
    <path
       style="fill:#41a324;fill-opacity:1;fill-rule:evenodd;stroke:none;stroke-width:0.28222221px;stroke-linecap:butt;stroke-linejoin:miter;stroke-opacity:1"
       d="m 62.745866,231.75657 c 0,0 -0.166059,-0.55503 -0.156632,-0.87952 0.006,-0.2028 -0.05403,-0.43747 0.01603,-0.63443 0.0429,-0.1206 0.260674,-0.19013 0.405827,-0.22056 0.164964,-0.0345 0.423481,0.0562 0.423481,0.0562 0,0 -0.06024,0.0328 -0.107621,0.0819 -0.08244,0.0919 0.06831,0.25896 0.324383,0.23156 0.204537,-0.0289 0.478042,-0.0664 0.478042,-0.0664 0,0 -0.05512,-0.1129 -0.189293,-0.29289 -0.136486,-0.14108 -0.196282,-0.25563 -0.416707,-0.2211 -0.04002,0.0541 0.0016,0.15317 0.0016,0.15317 0,0 -0.363963,-0.0968 -0.55013,-0.0879 -0.128588,0.007 -0.371954,0.13288 -0.462809,0.18868 -0.03252,-0.0865 -0.122033,-0.10678 -0.222933,-0.1605 0.171371,-0.0161 0.208276,-0.0791 0.0976,-0.10428 -0.200462,-0.0455 -0.322874,0.0213 -0.329568,0.0244 -0.01,0.004 -0.06047,0.1193 -0.02692,0.1829 0.02293,0.0434 0.16826,3.3e-4 0.212786,-0.0821 0.09232,0.0648 0.140299,0.0857 0.0869,0.18424 -0.0843,-0.003 -0.198524,-0.0296 -0.309335,-0.0103 -0.125294,0.0225 -0.372517,0.10993 -0.372517,0.10993 0.122244,-0.15345 -0.07397,-0.17574 -0.225064,-0.15036 -0.250404,0.19915 -0.19708,0.12592 -0.302761,0.38708 0.27871,0.0687 0.306738,0.12503 0.604119,0.0584 0.05907,-0.032 0.126677,-0.0728 0.111182,-0.12319 -0.01433,-0.0466 -0.154734,-0.0547 -0.154734,-0.0547 0,0 0.281642,-0.0854 0.382182,-0.0947 0.09267,-0.008 0.229432,-0.0139 0.271368,0.0568 0.08313,0.14015 0.04083,0.44029 0.04524,0.63442 0.0068,0.29903 0.08143,0.78486 0.08143,0.78486 z"
       id="path4172-3-6"
       inkscape:connector-curvature="0"
       sodipodi:nodetypes="cssscccccccsccscsccsccccacssscc" />
    <path
       style="fill:#41a324;fill-opacity:1;fill-rule:evenodd;stroke:none;stroke-width:0.28222221px;stroke-linecap:butt;stroke-linejoin:miter;stroke-opacity:1"
       d="m 66.477013,231.63183 c 0,0 0.166896,-0.61822 0.157421,-0.97965 -0.006,-0.22589 0.0543,-0.48729 -0.01611,-0.70666 -0.04311,-0.13434 -0.261987,-0.21179 -0.407871,-0.24568 -0.165795,-0.0385 -0.425614,0.0626 -0.425614,0.0626 0,0 0.06054,0.0366 0.108164,0.0912 0.08285,0.10239 -0.06865,0.28845 -0.326017,0.25793 -0.205568,-0.0322 -0.480451,-0.0739 -0.480451,-0.0739 0,0 0.0554,-0.12574 0.190247,-0.32623 0.137173,-0.15715 0.197271,-0.28474 0.418805,-0.24627 0.04022,0.0602 -0.0016,0.1706 -0.0016,0.1706 0,0 0.365797,-0.10787 0.552901,-0.0979 0.129236,0.007 0.373828,0.14801 0.465142,0.21016 0.03269,-0.0963 0.122647,-0.11893 0.224055,-0.17876 -0.172234,-0.0179 -0.209325,-0.0881 -0.0981,-0.11616 0.201471,-0.0506 0.3245,0.0238 0.331228,0.0272 0.01002,0.005 0.06078,0.13287 0.02705,0.20372 -0.02304,0.0484 -0.169107,3.7e-4 -0.213858,-0.0914 -0.09279,0.0722 -0.141005,0.0954 -0.08733,0.20521 0.08472,-0.004 0.199524,-0.033 0.310893,-0.0114 0.125925,0.025 0.374393,0.12244 0.374393,0.12244 -0.12286,-0.17092 0.07434,-0.19575 0.226198,-0.16747 0.251666,0.22182 0.198073,0.14026 0.304287,0.43115 -0.280115,0.0766 -0.308284,0.13927 -0.607163,0.0651 -0.05937,-0.0357 -0.127315,-0.0811 -0.111742,-0.13721 0.0144,-0.0519 0.155514,-0.0609 0.155514,-0.0609 0,0 -0.283061,-0.0951 -0.384108,-0.10548 -0.09313,-0.009 -0.230587,-0.0155 -0.272735,0.0632 -0.08355,0.1561 -0.04104,0.49042 -0.04547,0.70665 -0.0068,0.33307 -0.08184,0.87422 -0.08184,0.87422 z"
       id="path4172-3-7"
       inkscape:connector-curvature="0"
       sodipodi:nodetypes="cssscccccccsccscsccsccccacssscc" />
    <path
       style="fill:#41a324;fill-opacity:1;fill-rule:evenodd;stroke:none;stroke-width:0.28222221px;stroke-linecap:butt;stroke-linejoin:miter;stroke-opacity:1"
       d="m 71.152956,231.53205 c 0,0 -0.183955,-0.68141 -0.173512,-1.07979 0.0066,-0.24898 -0.05985,-0.53709 0.01776,-0.77889 0.04752,-0.14807 0.288766,-0.23343 0.449562,-0.27079 0.182742,-0.0424 0.469119,0.069 0.469119,0.069 0,0 -0.06673,0.0403 -0.11922,0.10051 -0.09132,0.11286 0.07567,0.31793 0.359341,0.28429 0.22658,-0.0355 0.52956,-0.0815 0.52956,-0.0815 0,0 -0.06106,-0.1386 -0.209693,-0.35958 -0.151194,-0.17321 -0.217435,-0.31384 -0.461614,-0.27144 -0.04433,0.0664 0.0018,0.18804 0.0018,0.18804 0,0 -0.403187,-0.1189 -0.609416,-0.10794 -0.142446,0.008 -0.412039,0.16314 -0.512686,0.23164 -0.03603,-0.10618 -0.135183,-0.13109 -0.246956,-0.19704 0.189839,-0.0197 0.230721,-0.0971 0.108122,-0.12803 -0.222065,-0.0558 -0.357669,0.0262 -0.365085,0.03 -0.01105,0.005 -0.06699,0.14646 -0.02982,0.22455 0.0254,0.0533 0.186393,4e-4 0.235718,-0.10077 0.102271,0.0796 0.155418,0.10517 0.09626,0.22619 -0.09338,-0.004 -0.219918,-0.0364 -0.342671,-0.0126 -0.138797,0.0276 -0.412662,0.13496 -0.412662,0.13496 0.135418,-0.18839 -0.08194,-0.21576 -0.249319,-0.18459 -0.27739,0.24449 -0.218319,0.15459 -0.33539,0.47522 0.308747,0.0844 0.339796,0.1535 0.669225,0.0717 0.06544,-0.0393 0.140328,-0.0894 0.123164,-0.15124 -0.01587,-0.0572 -0.17141,-0.0671 -0.17141,-0.0671 0,0 0.311994,-0.10479 0.423369,-0.11626 0.102652,-0.0101 0.254157,-0.0171 0.300613,0.0697 0.09209,0.17206 0.04523,0.54055 0.05012,0.77888 0.0075,0.36712 0.09021,0.96358 0.09021,0.96358 z"
       id="path4172-3-5"
       inkscape:connector-curvature="0"
       sodipodi:nodetypes="cssscccccccsccscsccsccccacssscc" />
    <path
       style="fill:#41a324;fill-opacity:1;fill-rule:evenodd;stroke:none;stroke-width:0.28222221px;stroke-linecap:butt;stroke-linejoin:miter;stroke-opacity:1"
       d="m 75.364137,231.53206 c 0,0 -0.163105,-0.60418 -0.153845,-0.9574 0.0059,-0.22076 -0.05307,-0.47622 0.01575,-0.69061 0.04213,-0.13129 0.256036,-0.20697 0.398606,-0.2401 0.162029,-0.0376 0.415947,0.0612 0.415947,0.0612 0,0 -0.05917,0.0357 -0.105707,0.0891 -0.08097,0.10007 0.06709,0.2819 0.318612,0.25207 0.200898,-0.0315 0.469537,-0.0723 0.469537,-0.0723 0,0 -0.05414,-0.12289 -0.185925,-0.31883 -0.134057,-0.15358 -0.19279,-0.27827 -0.409293,-0.24067 -0.0393,0.0589 0.0016,0.16672 0.0016,0.16672 0,0 -0.357488,-0.10542 -0.540342,-0.0957 -0.126301,0.007 -0.365337,0.14465 -0.454576,0.20538 -0.03195,-0.0941 -0.119861,-0.11623 -0.218965,-0.1747 0.168322,-0.0175 0.20457,-0.0861 0.09587,-0.11352 -0.196895,-0.0495 -0.317129,0.0232 -0.323704,0.0266 -0.0098,0.004 -0.0594,0.12986 -0.02644,0.1991 0.02252,0.0473 0.165267,3.5e-4 0.209001,-0.0894 0.09068,0.0706 0.137802,0.0933 0.08535,0.20055 -0.0828,-0.004 -0.194992,-0.0323 -0.303832,-0.0112 -0.123065,0.0245 -0.365889,0.11966 -0.365889,0.11966 0.12007,-0.16703 -0.07265,-0.1913 -0.22106,-0.16366 -0.245949,0.21677 -0.193573,0.13706 -0.297375,0.42135 0.273752,0.0748 0.301282,0.1361 0.593372,0.0636 0.05802,-0.0348 0.124423,-0.0793 0.109204,-0.13409 -0.01407,-0.0507 -0.151982,-0.0595 -0.151982,-0.0595 0,0 0.276632,-0.0929 0.375383,-0.10308 0.09102,-0.009 0.22535,-0.0152 0.26654,0.0618 0.08165,0.15256 0.0401,0.47928 0.04444,0.6906 0.0067,0.32551 0.07999,0.85436 0.07999,0.85436 z"
       id="path4172-3-5-3"
       inkscape:connector-curvature="0"
       sodipodi:nodetypes="cssscccccccsccscsccsccccacssscc" />
    <path
       style="fill:#41a324;fill-opacity:1;fill-rule:evenodd;stroke:none;stroke-width:0.28222221px;stroke-linecap:butt;stroke-linejoin:miter;stroke-opacity:1"
       d="m 54.471143,236.12046 c 0,0 0.139903,-0.54098 0.131961,-0.85726 -0.005,-0.19767 0.04552,-0.42641 -0.01351,-0.61838 -0.03614,-0.11755 -0.219615,-0.18532 -0.341905,-0.21498 -0.138981,-0.0337 -0.356779,0.0548 -0.356779,0.0548 0,0 0.05075,0.032 0.09067,0.0798 0.06945,0.0896 -0.05755,0.25241 -0.273289,0.2257 -0.172321,-0.0282 -0.402746,-0.0647 -0.402746,-0.0647 0,0 0.04644,-0.11004 0.159478,-0.28548 0.114987,-0.13751 0.165365,-0.24916 0.351071,-0.2155 0.03371,0.0527 -0.0014,0.14929 -0.0014,0.14929 0,0 0.306636,-0.0944 0.463479,-0.0857 0.108334,0.006 0.313368,0.12952 0.389913,0.18391 0.0274,-0.0843 0.10281,-0.10408 0.187817,-0.15644 -0.144378,-0.0156 -0.17547,-0.0771 -0.08223,-0.10164 0.168887,-0.0443 0.272018,0.0208 0.277658,0.0238 0.0084,0.004 0.05095,0.11628 0.02268,0.17827 -0.01932,0.0423 -0.141757,3.2e-4 -0.17927,-0.08 -0.07778,0.0632 -0.1182,0.0835 -0.07321,0.17958 0.07102,-0.003 0.167254,-0.0289 0.260611,-0.01 0.105559,0.0219 0.313842,0.10715 0.313842,0.10715 -0.10299,-0.14957 0.06232,-0.1713 0.189614,-0.14655 0.210963,0.1941 0.166038,0.12273 0.255074,0.37728 -0.234811,0.067 -0.258425,0.12187 -0.508965,0.0569 -0.04977,-0.0312 -0.106724,-0.071 -0.09367,-0.12007 0.01207,-0.0454 0.130362,-0.0533 0.130362,-0.0533 0,0 -0.23728,-0.0832 -0.321984,-0.0923 -0.07807,-0.008 -0.193294,-0.0136 -0.228625,0.0553 -0.07004,0.1366 -0.0344,0.42915 -0.03812,0.61837 -0.0057,0.29146 -0.06861,0.765 -0.06861,0.765 z"
       id="path4172-5"
       inkscape:connector-curvature="0"
       sodipodi:nodetypes="cssscccccccsccscsccsccccacssscc" />
    <path
       style="fill:#41a324;fill-opacity:1;fill-rule:evenodd;stroke:none;stroke-width:0.28222221px;stroke-linecap:butt;stroke-linejoin:miter;stroke-opacity:1"
       d="m 74.836638,235.94734 c 0,0 0.183955,-0.68141 0.173512,-1.07979 -0.0066,-0.24898 0.05985,-0.53709 -0.01776,-0.77889 -0.04752,-0.14807 -0.288766,-0.23343 -0.449562,-0.27079 -0.182742,-0.0424 -0.469119,0.069 -0.469119,0.069 0,0 0.06673,0.0403 0.11922,0.10051 0.09132,0.11286 -0.07567,0.31793 -0.359341,0.28429 -0.22658,-0.0355 -0.52956,-0.0815 -0.52956,-0.0815 0,0 0.06106,-0.1386 0.209693,-0.35958 0.151194,-0.17321 0.217435,-0.31384 0.461614,-0.27144 0.04433,0.0664 -0.0018,0.18804 -0.0018,0.18804 0,0 0.403187,-0.1189 0.609416,-0.10794 0.142446,0.008 0.412039,0.16314 0.512686,0.23164 0.03603,-0.10618 0.135183,-0.13109 0.246956,-0.19704 -0.189839,-0.0197 -0.230721,-0.0971 -0.108122,-0.12803 0.222065,-0.0558 0.357669,0.0262 0.365085,0.03 0.01105,0.005 0.06699,0.14646 0.02982,0.22455 -0.0254,0.0533 -0.186393,4e-4 -0.235718,-0.10077 -0.102271,0.0796 -0.155418,0.10517 -0.09626,0.22619 0.09338,-0.004 0.219918,-0.0364 0.342671,-0.0126 0.138797,0.0276 0.412662,0.13496 0.412662,0.13496 -0.135418,-0.18839 0.08194,-0.21576 0.249319,-0.18459 0.27739,0.24449 0.218319,0.15459 0.335391,0.47522 -0.308748,0.0844 -0.339797,0.1535 -0.669226,0.0717 -0.06544,-0.0393 -0.140327,-0.0894 -0.123164,-0.15124 0.01587,-0.0572 0.17141,-0.0671 0.17141,-0.0671 0,0 -0.311994,-0.10479 -0.423369,-0.11626 -0.102652,-0.0101 -0.254156,-0.0171 -0.300613,0.0697 -0.09209,0.17206 -0.04523,0.54055 -0.05012,0.77888 -0.0075,0.36712 -0.09021,0.96358 -0.09021,0.96358 z"
       id="path4172-3-62"
       inkscape:connector-curvature="0"
       sodipodi:nodetypes="cssscccccccsccscsccsccccacssscc" />
    <path
       style="fill:#41a324;fill-opacity:1;fill-rule:evenodd;stroke:none;stroke-width:0.28222221px;stroke-linecap:butt;stroke-linejoin:miter;stroke-opacity:1"
       d="m 58.54065,236.17187 c 0,0 -0.166059,-0.55503 -0.156632,-0.87952 0.006,-0.2028 -0.05403,-0.43747 0.01603,-0.63443 0.0429,-0.1206 0.260674,-0.19013 0.405827,-0.22056 0.164964,-0.0345 0.423481,0.0562 0.423481,0.0562 0,0 -0.06024,0.0328 -0.107621,0.0819 -0.08244,0.0919 0.06831,0.25896 0.324383,0.23156 0.204537,-0.0289 0.478042,-0.0664 0.478042,-0.0664 0,0 -0.05512,-0.1129 -0.189293,-0.29289 -0.136486,-0.14108 -0.196282,-0.25563 -0.416707,-0.2211 -0.04002,0.0541 0.0016,0.15317 0.0016,0.15317 0,0 -0.363963,-0.0968 -0.550131,-0.0879 -0.128588,0.007 -0.371953,0.13288 -0.462808,0.18868 -0.03252,-0.0865 -0.122034,-0.10678 -0.222933,-0.1605 0.171371,-0.0161 0.208275,-0.0791 0.0976,-0.10428 -0.200462,-0.0455 -0.322874,0.0213 -0.329568,0.0244 -0.01,0.004 -0.06047,0.1193 -0.02692,0.1829 0.02293,0.0434 0.16826,3.3e-4 0.212786,-0.0821 0.09232,0.0648 0.140299,0.0857 0.0869,0.18424 -0.0843,-0.003 -0.198524,-0.0296 -0.309335,-0.0103 -0.125293,0.0225 -0.372516,0.10993 -0.372516,0.10993 0.122244,-0.15345 -0.07397,-0.17574 -0.225064,-0.15036 -0.250404,0.19915 -0.19708,0.12592 -0.302761,0.38708 0.27871,0.0687 0.306738,0.12503 0.604119,0.0584 0.05907,-0.032 0.126677,-0.0728 0.111182,-0.12319 -0.01433,-0.0466 -0.154734,-0.0547 -0.154734,-0.0547 0,0 0.281642,-0.0854 0.382182,-0.0947 0.09267,-0.008 0.229432,-0.0139 0.271368,0.0568 0.08313,0.14015 0.04083,0.44029 0.04524,0.63442 0.0068,0.29903 0.08143,0.78486 0.08143,0.78486 z"
       id="path4172-3-6-9"
       inkscape:connector-curvature="0"
       sodipodi:nodetypes="cssscccccccsccscsccsccccacssscc" />
    <path
       style="fill:#41a324;fill-opacity:1;fill-rule:evenodd;stroke:none;stroke-width:0.28222221px;stroke-linecap:butt;stroke-linejoin:miter;stroke-opacity:1"
       d="m 66.662145,235.54823 c 0,0 0.166896,-0.61822 0.157421,-0.97965 -0.006,-0.22589 0.0543,-0.48729 -0.01611,-0.70666 -0.04311,-0.13434 -0.261987,-0.21179 -0.407871,-0.24568 -0.165795,-0.0385 -0.425614,0.0626 -0.425614,0.0626 0,0 0.06054,0.0366 0.108164,0.0912 0.08285,0.10239 -0.06865,0.28845 -0.326016,0.25793 -0.205568,-0.0322 -0.480451,-0.0739 -0.480451,-0.0739 0,0 0.0554,-0.12574 0.190247,-0.32623 0.137173,-0.15715 0.197271,-0.28474 0.418805,-0.24627 0.04022,0.0602 -0.0016,0.1706 -0.0016,0.1706 0,0 0.365797,-0.10787 0.552901,-0.0979 0.129236,0.007 0.373828,0.14801 0.465142,0.21016 0.03269,-0.0963 0.122647,-0.11893 0.224055,-0.17876 -0.172234,-0.0179 -0.209325,-0.0881 -0.0981,-0.11616 0.201471,-0.0506 0.3245,0.0238 0.331228,0.0272 0.01002,0.005 0.06078,0.13287 0.02705,0.20372 -0.02304,0.0484 -0.169107,3.7e-4 -0.213858,-0.0914 -0.09279,0.0722 -0.141005,0.0954 -0.08733,0.20521 0.08472,-0.004 0.199524,-0.033 0.310893,-0.0114 0.125925,0.025 0.374393,0.12244 0.374393,0.12244 -0.12286,-0.17092 0.07434,-0.19575 0.226198,-0.16747 0.251666,0.22182 0.198073,0.14026 0.304287,0.43115 -0.280115,0.0766 -0.308284,0.13927 -0.607163,0.0651 -0.05937,-0.0357 -0.127315,-0.0811 -0.111742,-0.13721 0.0144,-0.0519 0.155514,-0.0609 0.155514,-0.0609 0,0 -0.283061,-0.0951 -0.384108,-0.10548 -0.09313,-0.009 -0.230587,-0.0155 -0.272735,0.0632 -0.08355,0.1561 -0.04104,0.49042 -0.04547,0.70665 -0.0068,0.33307 -0.08184,0.87422 -0.08184,0.87422 z"
       id="path4172-3-7-1"
       inkscape:connector-curvature="0"
       sodipodi:nodetypes="cssscccccccsccscsccsccccacssscc" />
    <path
       style="fill:#41a324;fill-opacity:1;fill-rule:evenodd;stroke:none;stroke-width:0.28222221px;stroke-linecap:butt;stroke-linejoin:miter;stroke-opacity:1"
       d="m 70.988856,235.6979 c 0,0 -0.183955,-0.68141 -0.173512,-1.07979 0.0066,-0.24898 -0.05985,-0.53709 0.01776,-0.77889 0.04752,-0.14807 0.288767,-0.23343 0.449562,-0.27079 0.182742,-0.0424 0.469119,0.069 0.469119,0.069 0,0 -0.06673,0.0403 -0.11922,0.10051 -0.09132,0.11286 0.07567,0.31793 0.359341,0.28429 0.22658,-0.0355 0.52956,-0.0815 0.52956,-0.0815 0,0 -0.06106,-0.1386 -0.209693,-0.35958 -0.151193,-0.17321 -0.217434,-0.31384 -0.461614,-0.27144 -0.04433,0.0664 0.0018,0.18804 0.0018,0.18804 0,0 -0.403187,-0.1189 -0.609416,-0.10794 -0.142446,0.008 -0.412039,0.16314 -0.512686,0.23164 -0.03603,-0.10618 -0.135183,-0.13109 -0.246956,-0.19704 0.189839,-0.0197 0.230721,-0.0971 0.108122,-0.12803 -0.222065,-0.0558 -0.357669,0.0262 -0.365085,0.03 -0.01105,0.005 -0.06699,0.14646 -0.02982,0.22455 0.0254,0.0533 0.186393,4e-4 0.235718,-0.10077 0.102271,0.0796 0.155418,0.10517 0.09626,0.22619 -0.09339,-0.004 -0.219925,-0.0364 -0.342678,-0.0126 -0.138797,0.0276 -0.412662,0.13496 -0.412662,0.13496 0.135418,-0.18839 -0.08194,-0.21576 -0.249319,-0.18459 -0.27739,0.24449 -0.218319,0.15459 -0.33539,0.47522 0.308747,0.0844 0.339796,0.1535 0.669225,0.0717 0.06544,-0.0393 0.140328,-0.0894 0.123164,-0.15124 -0.01587,-0.0572 -0.17141,-0.0671 -0.17141,-0.0671 0,0 0.311994,-0.10479 0.423369,-0.11626 0.102652,-0.0101 0.254157,-0.0171 0.300613,0.0697 0.09209,0.17206 0.04523,0.54055 0.05012,0.77888 0.0075,0.36712 0.09021,0.96358 0.09021,0.96358 z"
       id="path4172-3-5-2"
       inkscape:connector-curvature="0"
       sodipodi:nodetypes="cssscccccccsccscsccsccccacssscc" />
    <path
       style="fill:#41a324;fill-opacity:1;fill-rule:evenodd;stroke:none;stroke-width:0.28222221px;stroke-linecap:butt;stroke-linejoin:miter;stroke-opacity:1"
       d="m 62.92702,235.69791 c 0,0 -0.163105,-0.60418 -0.153845,-0.9574 0.0059,-0.22076 -0.05307,-0.47622 0.01575,-0.69061 0.04213,-0.13129 0.256036,-0.20697 0.398606,-0.2401 0.162029,-0.0376 0.415947,0.0612 0.415947,0.0612 0,0 -0.05917,0.0357 -0.105707,0.0891 -0.08097,0.10007 0.06709,0.2819 0.318612,0.25207 0.200898,-0.0315 0.469537,-0.0723 0.469537,-0.0723 0,0 -0.05414,-0.12289 -0.185925,-0.31883 -0.134057,-0.15358 -0.19279,-0.27827 -0.409293,-0.24067 -0.0393,0.0589 0.0016,0.16672 0.0016,0.16672 0,0 -0.357488,-0.10542 -0.540342,-0.0957 -0.126301,0.007 -0.365337,0.14465 -0.454576,0.20538 -0.03195,-0.0941 -0.119861,-0.11623 -0.218965,-0.1747 0.168322,-0.0175 0.20457,-0.0861 0.09587,-0.11352 -0.196895,-0.0495 -0.317129,0.0232 -0.323704,0.0266 -0.0098,0.004 -0.0594,0.12986 -0.02644,0.1991 0.02252,0.0473 0.165268,3.5e-4 0.209002,-0.0894 0.09068,0.0706 0.137801,0.0933 0.08535,0.20055 -0.08281,-0.004 -0.195,-0.0323 -0.30384,-0.0112 -0.123065,0.0245 -0.365889,0.11966 -0.365889,0.11966 0.12007,-0.16703 -0.07265,-0.1913 -0.22106,-0.16366 -0.245949,0.21677 -0.193573,0.13706 -0.297375,0.42135 0.273752,0.0748 0.301282,0.1361 0.593372,0.0636 0.05802,-0.0348 0.124423,-0.0793 0.109204,-0.13409 -0.01407,-0.0507 -0.151982,-0.0595 -0.151982,-0.0595 0,0 0.276632,-0.0929 0.375383,-0.10308 0.09102,-0.009 0.22535,-0.0152 0.26654,0.0618 0.08165,0.15256 0.0401,0.47928 0.04444,0.6906 0.0067,0.32551 0.07999,0.85436 0.07999,0.85436 z"
       id="path4172-3-5-3-7"
       inkscape:connector-curvature="0"
       sodipodi:nodetypes="cssscccccccsccscsccsccccacssscc" />
    <path
       style="fill:#41a324;fill-opacity:1;fill-rule:evenodd;stroke:none;stroke-width:0.28222221px;stroke-linecap:butt;stroke-linejoin:miter;stroke-opacity:1"
       d="m 66.494708,240.31125 c 0,0 0.139903,-0.54098 0.131961,-0.85726 -0.005,-0.19767 0.04552,-0.42641 -0.01351,-0.61838 -0.03614,-0.11755 -0.219615,-0.18532 -0.341905,-0.21498 -0.138981,-0.0337 -0.356779,0.0548 -0.356779,0.0548 0,0 0.05075,0.032 0.09067,0.0798 0.06945,0.0896 -0.05755,0.25241 -0.273289,0.2257 -0.172321,-0.0282 -0.402746,-0.0647 -0.402746,-0.0647 0,0 0.04644,-0.11004 0.159478,-0.28548 0.114987,-0.13751 0.165365,-0.24916 0.351071,-0.2155 0.03371,0.0527 -0.0014,0.14929 -0.0014,0.14929 0,0 0.306636,-0.0944 0.463479,-0.0857 0.108334,0.006 0.313368,0.12952 0.389913,0.18391 0.0274,-0.0843 0.10281,-0.10408 0.187817,-0.15644 -0.144378,-0.0156 -0.17547,-0.0771 -0.08223,-0.10164 0.168887,-0.0443 0.272018,0.0208 0.277658,0.0238 0.0084,0.004 0.05095,0.11628 0.02268,0.17827 -0.01932,0.0423 -0.141757,3.2e-4 -0.17927,-0.08 -0.07778,0.0632 -0.1182,0.0835 -0.07321,0.17958 0.07102,-0.003 0.167254,-0.0289 0.260611,-0.01 0.105559,0.0219 0.313842,0.10715 0.313842,0.10715 -0.10299,-0.14957 0.06232,-0.1713 0.189614,-0.14655 0.210963,0.1941 0.166038,0.12273 0.255074,0.37728 -0.234811,0.067 -0.258425,0.12187 -0.508965,0.0569 -0.04977,-0.0312 -0.106724,-0.071 -0.09367,-0.12007 0.01207,-0.0454 0.130362,-0.0533 0.130362,-0.0533 0,0 -0.23728,-0.0832 -0.321984,-0.0923 -0.07807,-0.008 -0.193294,-0.0136 -0.228625,0.0553 -0.07004,0.1366 -0.0344,0.42915 -0.03812,0.61837 -0.0057,0.29146 -0.06861,0.765 -0.06861,0.765 z"
       id="path4172-0"
       inkscape:connector-curvature="0"
       sodipodi:nodetypes="cssscccccccsccscsccsccccacssscc" />
    <path
       style="fill:#41a324;fill-opacity:1;fill-rule:evenodd;stroke:none;stroke-width:0.28222221px;stroke-linecap:butt;stroke-linejoin:miter;stroke-opacity:1"
       d="m 70.845413,240.63703 c 0,0 0.183955,-0.68141 0.173512,-1.07979 -0.0066,-0.24898 0.05985,-0.53709 -0.01776,-0.77889 -0.04752,-0.14807 -0.288766,-0.23343 -0.449562,-0.27079 -0.182742,-0.0424 -0.469119,0.069 -0.469119,0.069 0,0 0.06673,0.0403 0.119219,0.10051 0.09132,0.11286 -0.07567,0.31793 -0.35934,0.28429 -0.22658,-0.0355 -0.52956,-0.0815 -0.52956,-0.0815 0,0 0.06106,-0.1386 0.209693,-0.35958 0.151194,-0.17321 0.217435,-0.31384 0.461614,-0.27144 0.04433,0.0664 -0.0018,0.18804 -0.0018,0.18804 0,0 0.403186,-0.1189 0.609416,-0.10794 0.142446,0.008 0.412039,0.16314 0.512686,0.23164 0.03603,-0.10618 0.135183,-0.13109 0.246956,-0.19704 -0.189839,-0.0197 -0.230721,-0.0971 -0.108123,-0.12803 0.222066,-0.0558 0.35767,0.0262 0.365086,0.03 0.01105,0.005 0.06699,0.14646 0.02982,0.22455 -0.0254,0.0533 -0.186393,4e-4 -0.235718,-0.10077 -0.102271,0.0796 -0.155418,0.10517 -0.09626,0.22619 0.09338,-0.004 0.219918,-0.0364 0.342671,-0.0126 0.138797,0.0276 0.412662,0.13496 0.412662,0.13496 -0.135418,-0.18839 0.08194,-0.21576 0.249319,-0.18459 0.27739,0.24449 0.218319,0.15459 0.33539,0.47522 -0.308747,0.0844 -0.339796,0.1535 -0.669225,0.0717 -0.06544,-0.0393 -0.140328,-0.0894 -0.123164,-0.15124 0.01587,-0.0572 0.17141,-0.0671 0.17141,-0.0671 0,0 -0.311994,-0.10479 -0.423369,-0.11626 -0.102652,-0.0101 -0.254157,-0.0171 -0.300613,0.0697 -0.09209,0.17206 -0.04523,0.54055 -0.05012,0.77888 -0.0075,0.36712 -0.09021,0.96358 -0.09021,0.96358 z"
       id="path4172-3-9"
       inkscape:connector-curvature="0"
       sodipodi:nodetypes="cssscccccccsccscsccsccccacssscc" />
    <path
       style="fill:#41a324;fill-opacity:1;fill-rule:evenodd;stroke:none;stroke-width:0.28222221px;stroke-linecap:butt;stroke-linejoin:miter;stroke-opacity:1"
       d="m 75.453466,240.1631 c 0,0 -0.166059,-0.55503 -0.156632,-0.87952 0.006,-0.2028 -0.05403,-0.43747 0.01603,-0.63443 0.0429,-0.1206 0.260674,-0.19013 0.405826,-0.22056 0.164964,-0.0345 0.423481,0.0562 0.423481,0.0562 0,0 -0.06024,0.0328 -0.107621,0.0819 -0.08244,0.0919 0.06831,0.25896 0.324383,0.23156 0.204537,-0.0289 0.478042,-0.0664 0.478042,-0.0664 0,0 -0.05512,-0.1129 -0.189293,-0.29289 -0.136486,-0.14108 -0.196282,-0.25563 -0.416707,-0.2211 -0.04002,0.0541 0.0016,0.15317 0.0016,0.15317 0,0 -0.363963,-0.0968 -0.55013,-0.0879 -0.128588,0.007 -0.371954,0.13288 -0.462809,0.18868 -0.03252,-0.0865 -0.122033,-0.10678 -0.222933,-0.1605 0.171371,-0.0161 0.208276,-0.0791 0.0976,-0.10428 -0.200462,-0.0455 -0.322874,0.0213 -0.329568,0.0244 -0.01,0.004 -0.06047,0.1193 -0.02692,0.1829 0.02293,0.0434 0.16826,3.3e-4 0.212786,-0.0821 0.09232,0.0648 0.140299,0.0857 0.0869,0.18424 -0.0843,-0.003 -0.198524,-0.0296 -0.309335,-0.0103 -0.125292,0.0225 -0.372515,0.10993 -0.372515,0.10993 0.122244,-0.15345 -0.07397,-0.17574 -0.225065,-0.15036 -0.250403,0.19915 -0.197079,0.12592 -0.30276,0.38708 0.27871,0.0687 0.306738,0.12503 0.604119,0.0584 0.05907,-0.032 0.126677,-0.0728 0.111182,-0.12319 -0.01433,-0.0466 -0.154734,-0.0547 -0.154734,-0.0547 0,0 0.281642,-0.0854 0.382182,-0.0947 0.09267,-0.008 0.229432,-0.0139 0.271368,0.0568 0.08313,0.14015 0.04083,0.44029 0.04524,0.63442 0.0068,0.29903 0.08143,0.78486 0.08143,0.78486 z"
       id="path4172-3-6-3"
       inkscape:connector-curvature="0"
       sodipodi:nodetypes="cssscccccccsccscsccsccccacssscc" />
    <path
       style="fill:#41a324;fill-opacity:1;fill-rule:evenodd;stroke:none;stroke-width:0.28222221px;stroke-linecap:butt;stroke-linejoin:miter;stroke-opacity:1"
       d="m 54.389128,240.53726 c 0,0 0.166896,-0.61822 0.157421,-0.97965 -0.006,-0.22589 0.0543,-0.48729 -0.01611,-0.70666 -0.04311,-0.13434 -0.261987,-0.21179 -0.407871,-0.24568 -0.165795,-0.0385 -0.425614,0.0626 -0.425614,0.0626 0,0 0.06054,0.0366 0.108164,0.0912 0.08285,0.10239 -0.06865,0.28845 -0.326016,0.25793 -0.205568,-0.0322 -0.480451,-0.0739 -0.480451,-0.0739 0,0 0.0554,-0.12574 0.190247,-0.32623 0.137173,-0.15715 0.197271,-0.28474 0.418805,-0.24627 0.04022,0.0602 -0.0016,0.1706 -0.0016,0.1706 0,0 0.365797,-0.10787 0.552901,-0.0979 0.129236,0.007 0.373828,0.14801 0.465142,0.21016 0.03269,-0.0963 0.122647,-0.11893 0.224055,-0.17876 -0.172234,-0.0179 -0.209325,-0.0881 -0.0981,-0.11616 0.201471,-0.0506 0.3245,0.0238 0.331228,0.0272 0.01002,0.005 0.06078,0.13287 0.02705,0.20372 -0.02304,0.0484 -0.169107,3.7e-4 -0.213858,-0.0914 -0.09279,0.0722 -0.141005,0.0954 -0.08733,0.20521 0.08472,-0.004 0.199524,-0.033 0.310893,-0.0114 0.125925,0.025 0.374393,0.12244 0.374393,0.12244 -0.12286,-0.17092 0.07434,-0.19575 0.226198,-0.16747 0.251666,0.22182 0.198073,0.14026 0.304287,0.43115 -0.280115,0.0766 -0.308284,0.13927 -0.607163,0.0651 -0.05937,-0.0357 -0.127315,-0.0811 -0.111742,-0.13721 0.0144,-0.0519 0.155514,-0.0609 0.155514,-0.0609 0,0 -0.283061,-0.0951 -0.384108,-0.10548 -0.09313,-0.009 -0.230587,-0.0155 -0.272735,0.0632 -0.08355,0.1561 -0.04104,0.49042 -0.04547,0.70665 -0.0068,0.33307 -0.08184,0.87422 -0.08184,0.87422 z"
       id="path4172-3-7-6"
       inkscape:connector-curvature="0"
       sodipodi:nodetypes="cssscccccccsccscsccsccccacssscc" />
    <path
       style="fill:#41a324;fill-opacity:1;fill-rule:evenodd;stroke:none;stroke-width:0.28222221px;stroke-linecap:butt;stroke-linejoin:miter;stroke-opacity:1"
       d="m 59.065071,240.43748 c 0,0 -0.183955,-0.68141 -0.173512,-1.07979 0.0066,-0.24898 -0.05985,-0.53709 0.01776,-0.77889 0.04752,-0.14807 0.288767,-0.23343 0.449562,-0.27079 0.182742,-0.0424 0.469119,0.069 0.469119,0.069 0,0 -0.06673,0.0403 -0.11922,0.10051 -0.09132,0.11286 0.07567,0.31793 0.359341,0.28429 0.22658,-0.0355 0.52956,-0.0815 0.52956,-0.0815 0,0 -0.06106,-0.1386 -0.209693,-0.35958 -0.151193,-0.17321 -0.217434,-0.31384 -0.461614,-0.27144 -0.04433,0.0664 0.0018,0.18804 0.0018,0.18804 0,0 -0.403187,-0.1189 -0.609416,-0.10794 -0.142446,0.008 -0.412039,0.16314 -0.512686,0.23164 -0.03603,-0.10618 -0.135183,-0.13109 -0.246956,-0.19704 0.189839,-0.0197 0.230721,-0.0971 0.108122,-0.12803 -0.222065,-0.0558 -0.357669,0.0262 -0.365085,0.03 -0.01105,0.005 -0.06699,0.14646 -0.02982,0.22455 0.0254,0.0533 0.186393,4e-4 0.235718,-0.10077 0.102271,0.0796 0.155418,0.10517 0.09626,0.22619 -0.09339,-0.004 -0.219925,-0.0364 -0.342678,-0.0126 -0.138797,0.0276 -0.412662,0.13496 -0.412662,0.13496 0.135418,-0.18839 -0.08194,-0.21576 -0.249319,-0.18459 -0.27739,0.24449 -0.218319,0.15459 -0.33539,0.47522 0.308747,0.0844 0.339796,0.1535 0.669225,0.0717 0.06544,-0.0393 0.140328,-0.0894 0.123164,-0.15124 -0.01587,-0.0572 -0.17141,-0.0671 -0.17141,-0.0671 0,0 0.311994,-0.10479 0.423369,-0.11626 0.102652,-0.0101 0.254157,-0.0171 0.300613,0.0697 0.09209,0.17206 0.04523,0.54055 0.05012,0.77888 0.0075,0.36712 0.09021,0.96358 0.09021,0.96358 z"
       id="path4172-3-5-0"
       inkscape:connector-curvature="0"
       sodipodi:nodetypes="cssscccccccsccscsccsccccacssscc" />
    <path
       style="fill:#41a324;fill-opacity:1;fill-rule:evenodd;stroke:none;stroke-width:0.28222221px;stroke-linecap:butt;stroke-linejoin:miter;stroke-opacity:1"
       d="m 63.276252,240.43749 c 0,0 -0.163105,-0.60418 -0.153845,-0.9574 0.0059,-0.22076 -0.05307,-0.47622 0.01575,-0.69061 0.04213,-0.13129 0.256036,-0.20697 0.398606,-0.2401 0.162029,-0.0376 0.415947,0.0612 0.415947,0.0612 0,0 -0.05917,0.0357 -0.105707,0.0891 -0.08097,0.10007 0.06709,0.2819 0.318612,0.25207 0.200898,-0.0315 0.469537,-0.0723 0.469537,-0.0723 0,0 -0.05414,-0.12289 -0.185925,-0.31883 -0.134057,-0.15358 -0.19279,-0.27827 -0.409293,-0.24067 -0.0393,0.0589 0.0016,0.16672 0.0016,0.16672 0,0 -0.357488,-0.10542 -0.540342,-0.0957 -0.126301,0.007 -0.365337,0.14465 -0.454576,0.20538 -0.03195,-0.0941 -0.119861,-0.11623 -0.218965,-0.1747 0.168322,-0.0175 0.20457,-0.0861 0.09587,-0.11352 -0.196895,-0.0495 -0.317129,0.0232 -0.323704,0.0266 -0.0098,0.004 -0.0594,0.12986 -0.02644,0.1991 0.02252,0.0473 0.165268,3.5e-4 0.209002,-0.0894 0.09068,0.0706 0.137801,0.0933 0.08535,0.20055 -0.08281,-0.004 -0.195,-0.0323 -0.30384,-0.0112 -0.123065,0.0245 -0.365889,0.11966 -0.365889,0.11966 0.12007,-0.16703 -0.07265,-0.1913 -0.22106,-0.16366 -0.245949,0.21677 -0.193573,0.13706 -0.297375,0.42135 0.273752,0.0748 0.301282,0.1361 0.593372,0.0636 0.05802,-0.0348 0.124423,-0.0793 0.109204,-0.13409 -0.01407,-0.0507 -0.151982,-0.0595 -0.151982,-0.0595 0,0 0.276632,-0.0929 0.375383,-0.10308 0.09102,-0.009 0.22535,-0.0152 0.26654,0.0618 0.08165,0.15256 0.0401,0.47928 0.04444,0.6906 0.0067,0.32551 0.07999,0.85436 0.07999,0.85436 z"
       id="path4172-3-5-3-6"
       inkscape:connector-curvature="0"
       sodipodi:nodetypes="cssscccccccsccscsccsccccacssscc" />
    <path
       style="fill:url(#linearGradient880-7);fill-opacity:1;stroke:none;stroke-width:0.26458332px;stroke-linecap:butt;stroke-linejoin:miter;stroke-opacity:1"
       d="m 52.60275,246.70902 c 0,0 0.994221,-2.14843 2.004523,-2.47224 0.638054,-0.2045 1.335059,1.44244 2.004519,1.46997 0.837991,0.0344 1.050332,-1.64349 1.870887,-1.46998 0.767637,0.16232 0.89361,1.29291 1.670435,1.40317 0.976258,0.13857 1.394875,-1.45151 2.338609,-1.73725 0.972196,-0.29436 1.330526,1.22174 2.271791,1.60362 0.527395,0.21397 1.411653,-2.00664 1.870886,-1.67044 0.719298,0.5266 1.313557,1.59512 2.204974,1.60362 0,0 1.131935,-1.31098 1.804068,-1.73725 0.739545,-0.46903 2.204975,1.67044 2.472245,1.73725 0.267268,0.0668 1.546317,-1.74141 2.004522,-1.33634 0.383927,0.33941 1.764761,-0.17684 1.473117,2.77158 -5.114019,0.0322 -23.990576,-0.16571 -23.990576,-0.16571"
       id="path819-92"
       inkscape:connector-curvature="0"
       sodipodi:nodetypes="cssssssssssscc" />
    <path
       style="fill:url(#linearGradient880-6-8);fill-opacity:1;stroke:none;stroke-width:0.26458332px;stroke-linecap:butt;stroke-linejoin:miter;stroke-opacity:1"
       d="m 52.614528,250.96769 c 0,0 0.994221,-2.14843 2.004523,-2.47224 0.638054,-0.2045 1.335059,1.44244 2.004519,1.46997 0.837991,0.0344 1.050332,-1.64349 1.870887,-1.46998 0.767637,0.16232 0.893611,1.29291 1.670435,1.40317 0.976258,0.13857 1.394876,-1.45151 2.338609,-1.73725 0.972196,-0.29436 1.330526,1.22174 2.271791,1.60362 0.527395,0.21397 1.411653,-2.00664 1.870886,-1.67044 0.719298,0.5266 1.313557,1.59512 2.204974,1.60362 0,0 1.131935,-1.31098 1.804068,-1.73725 0.739545,-0.46903 2.204975,1.67044 2.472245,1.73725 0.267268,0.0668 1.546317,-1.74141 2.004522,-1.33634 0.383927,0.33941 1.764761,-0.17684 1.473117,2.77158 -5.114019,0.0322 -23.990576,-0.16571 -23.990576,-0.16571"
       id="path819-3-0"
       inkscape:connector-curvature="0"
       sodipodi:nodetypes="cssssssssssscc" />
    <path
       style="fill:url(#linearGradient880-5-2);fill-opacity:1;stroke:none;stroke-width:0.26458332px;stroke-linecap:butt;stroke-linejoin:miter;stroke-opacity:1"
       d="m 52.881798,255.51127 c 0,0 0.994221,-2.14843 2.004523,-2.47224 0.638054,-0.2045 1.335059,1.44244 2.004519,1.46997 0.837991,0.0344 1.050332,-1.64349 1.870887,-1.46998 0.767637,0.16232 0.89361,1.29291 1.670435,1.40317 0.976258,0.13857 1.394875,-1.45151 2.338609,-1.73725 0.972196,-0.29436 1.330526,1.22174 2.271791,1.60362 0.527395,0.21397 1.411653,-2.00664 1.870886,-1.67044 0.719298,0.5266 1.313557,1.59512 2.204974,1.60362 0,0 1.131935,-1.31098 1.804068,-1.73725 0.739545,-0.46903 2.204975,1.67044 2.472245,1.73725 0.267268,0.0668 1.546317,-1.74141 2.004522,-1.33634 0.383927,0.33941 1.764761,-0.17684 1.473117,2.77158 -5.114019,0.0322 -23.990576,-0.16571 -23.990576,-0.16571"
       id="path819-9-2"
       inkscape:connector-curvature="0"
       sodipodi:nodetypes="cssssssssssscc" />
    <path
       style="fill:#41a324;fill-opacity:1;fill-rule:evenodd;stroke:none;stroke-width:0.28222221px;stroke-linecap:butt;stroke-linejoin:miter;stroke-opacity:1"
       d="m 54.635788,244.87466 c 0,0 0.139903,-0.54098 0.131961,-0.85726 -0.005,-0.19767 0.04552,-0.42641 -0.01351,-0.61838 -0.03614,-0.11755 -0.219615,-0.18532 -0.341905,-0.21498 -0.138981,-0.0337 -0.356779,0.0548 -0.356779,0.0548 0,0 0.05075,0.032 0.09067,0.0798 0.06945,0.0896 -0.05755,0.25241 -0.273289,0.2257 -0.172321,-0.0282 -0.402746,-0.0647 -0.402746,-0.0647 0,0 0.04644,-0.11004 0.159478,-0.28548 0.114987,-0.13751 0.165365,-0.24916 0.351071,-0.2155 0.03371,0.0527 -0.0014,0.14929 -0.0014,0.14929 0,0 0.306636,-0.0944 0.463479,-0.0857 0.108334,0.006 0.313368,0.12952 0.389913,0.18391 0.0274,-0.0843 0.10281,-0.10408 0.187817,-0.15644 -0.144378,-0.0156 -0.17547,-0.0771 -0.08223,-0.10164 0.168887,-0.0443 0.272018,0.0208 0.277658,0.0238 0.0084,0.004 0.05095,0.11628 0.02268,0.17827 -0.01932,0.0423 -0.141757,3.2e-4 -0.17927,-0.08 -0.07778,0.0632 -0.1182,0.0835 -0.07321,0.17958 0.07102,-0.003 0.167254,-0.0289 0.260611,-0.01 0.105559,0.0219 0.313842,0.10715 0.313842,0.10715 -0.102991,-0.14957 0.06232,-0.1713 0.189613,-0.14655 0.210964,0.1941 0.166039,0.12273 0.255075,0.37728 -0.234812,0.067 -0.258425,0.12187 -0.508965,0.0569 -0.04977,-0.0312 -0.106724,-0.071 -0.09367,-0.12007 0.01207,-0.0454 0.130362,-0.0533 0.130362,-0.0533 0,0 -0.23728,-0.0832 -0.321984,-0.0923 -0.07807,-0.008 -0.193294,-0.0136 -0.228625,0.0553 -0.07004,0.1366 -0.0344,0.42915 -0.03812,0.61837 -0.0057,0.29146 -0.06861,0.765 -0.06861,0.765 z"
       id="path4172-37"
       inkscape:connector-curvature="0"
       sodipodi:nodetypes="cssscccccccsccscsccsccccacssscc" />
    <path
       style="fill:#41a324;fill-opacity:1;fill-rule:evenodd;stroke:none;stroke-width:0.28222221px;stroke-linecap:butt;stroke-linejoin:miter;stroke-opacity:1"
       d="m 58.238138,245.15055 c 0,0 0.183955,-0.68141 0.173512,-1.07979 -0.0066,-0.24898 0.05985,-0.53709 -0.01776,-0.77889 -0.04752,-0.14807 -0.288766,-0.23343 -0.449562,-0.27079 -0.182742,-0.0424 -0.469119,0.069 -0.469119,0.069 0,0 0.06673,0.0403 0.11922,0.10051 0.09132,0.11286 -0.07567,0.31793 -0.359341,0.28429 -0.22658,-0.0355 -0.52956,-0.0815 -0.52956,-0.0815 0,0 0.06106,-0.1386 0.209693,-0.35958 0.151194,-0.17321 0.217435,-0.31384 0.461614,-0.27144 0.04433,0.0664 -0.0018,0.18804 -0.0018,0.18804 0,0 0.403187,-0.1189 0.609416,-0.10794 0.142446,0.008 0.412039,0.16314 0.512686,0.23164 0.03603,-0.10618 0.135183,-0.13109 0.246956,-0.19704 -0.189839,-0.0197 -0.230721,-0.0971 -0.108122,-0.12803 0.222065,-0.0558 0.357669,0.0262 0.365085,0.03 0.01105,0.005 0.06699,0.14646 0.02982,0.22455 -0.0254,0.0533 -0.186393,4e-4 -0.235718,-0.10077 -0.102271,0.0796 -0.155418,0.10517 -0.09626,0.22619 0.09338,-0.004 0.219919,-0.0364 0.342671,-0.0126 0.138797,0.0276 0.412662,0.13496 0.412662,0.13496 -0.135418,-0.18839 0.08194,-0.21576 0.249319,-0.18459 0.27739,0.24449 0.218319,0.15459 0.33539,0.47522 -0.30874,0.0844 -0.339789,0.1535 -0.669218,0.0717 -0.06544,-0.0393 -0.140328,-0.0894 -0.123164,-0.15124 0.01587,-0.0572 0.17141,-0.0671 0.17141,-0.0671 0,0 -0.311994,-0.10479 -0.423369,-0.11626 -0.102652,-0.0101 -0.254157,-0.0171 -0.300613,0.0697 -0.09209,0.17206 -0.04523,0.54055 -0.05012,0.77888 -0.0075,0.36712 -0.09021,0.96358 -0.09021,0.96358 z"
       id="path4172-3-59"
       inkscape:connector-curvature="0"
       sodipodi:nodetypes="cssscccccccsccscsccsccccacssscc" />
    <path
       style="fill:#41a324;fill-opacity:1;fill-rule:evenodd;stroke:none;stroke-width:0.28222221px;stroke-linecap:butt;stroke-linejoin:miter;stroke-opacity:1"
       d="m 62.69652,245.07574 c 0,0 -0.166059,-0.55503 -0.156632,-0.87952 0.006,-0.2028 -0.05403,-0.43747 0.01603,-0.63443 0.0429,-0.1206 0.260674,-0.19013 0.405828,-0.22056 0.164963,-0.0345 0.42348,0.0562 0.42348,0.0562 0,0 -0.06024,0.0328 -0.10762,0.0819 -0.08244,0.0919 0.06831,0.25896 0.324382,0.23156 0.204538,-0.0289 0.478042,-0.0664 0.478042,-0.0664 0,0 -0.05512,-0.1129 -0.189293,-0.29289 -0.136486,-0.14108 -0.196282,-0.25563 -0.416707,-0.2211 -0.04002,0.0541 0.0016,0.15317 0.0016,0.15317 0,0 -0.363963,-0.0968 -0.55013,-0.0879 -0.128588,0.007 -0.371954,0.13288 -0.462809,0.18868 -0.03252,-0.0865 -0.122033,-0.10678 -0.222933,-0.1605 0.171371,-0.0161 0.208276,-0.0791 0.0976,-0.10428 -0.200462,-0.0455 -0.322874,0.0213 -0.329568,0.0244 -0.01,0.004 -0.06047,0.1193 -0.02692,0.1829 0.02293,0.0434 0.16826,3.3e-4 0.212786,-0.0821 0.09232,0.0648 0.140299,0.0857 0.0869,0.18424 -0.08431,-0.003 -0.198532,-0.0296 -0.309343,-0.0103 -0.125285,0.0225 -0.372508,0.10993 -0.372508,0.10993 0.122244,-0.15345 -0.07397,-0.17574 -0.225064,-0.15036 -0.250404,0.19915 -0.19708,0.12592 -0.302761,0.38708 0.27871,0.0687 0.306738,0.12503 0.604119,0.0584 0.05907,-0.032 0.126677,-0.0728 0.111182,-0.12319 -0.01433,-0.0466 -0.154734,-0.0547 -0.154734,-0.0547 0,0 0.281642,-0.0854 0.382182,-0.0947 0.09267,-0.008 0.229432,-0.0139 0.271368,0.0568 0.08313,0.14015 0.04083,0.44029 0.04524,0.63442 0.0068,0.29903 0.08143,0.78486 0.08143,0.78486 z"
       id="path4172-3-6-2"
       inkscape:connector-curvature="0"
       sodipodi:nodetypes="cssscccccccsccscsccsccccacssscc" />
    <path
       style="fill:#41a324;fill-opacity:1;fill-rule:evenodd;stroke:none;stroke-width:0.28222221px;stroke-linecap:butt;stroke-linejoin:miter;stroke-opacity:1"
       d="m 66.427667,244.951 c 0,0 0.166896,-0.61822 0.157421,-0.97965 -0.006,-0.22589 0.0543,-0.48729 -0.01611,-0.70666 -0.04311,-0.13434 -0.261987,-0.21179 -0.407871,-0.24568 -0.165795,-0.0385 -0.425614,0.0626 -0.425614,0.0626 0,0 0.06054,0.0366 0.108164,0.0912 0.08285,0.10239 -0.06865,0.28845 -0.326017,0.25793 -0.205568,-0.0322 -0.480451,-0.0739 -0.480451,-0.0739 0,0 0.0554,-0.12574 0.190247,-0.32623 0.137173,-0.15715 0.197271,-0.28474 0.418805,-0.24627 0.04022,0.0602 -0.0016,0.1706 -0.0016,0.1706 0,0 0.365797,-0.10787 0.552901,-0.0979 0.129236,0.007 0.373828,0.14801 0.465142,0.21016 0.0327,-0.0963 0.122655,-0.11893 0.224063,-0.17876 -0.172234,-0.0179 -0.209325,-0.0881 -0.0981,-0.11616 0.201471,-0.0506 0.3245,0.0238 0.331228,0.0272 0.01002,0.005 0.06078,0.13287 0.02705,0.20372 -0.02304,0.0484 -0.169107,3.7e-4 -0.213858,-0.0914 -0.09279,0.0722 -0.141005,0.0954 -0.08733,0.20521 0.08472,-0.004 0.199524,-0.033 0.310893,-0.0114 0.125925,0.025 0.374393,0.12244 0.374393,0.12244 -0.12286,-0.17092 0.07434,-0.19575 0.226198,-0.16747 0.251666,0.22182 0.198073,0.14026 0.304287,0.43115 -0.280115,0.0766 -0.308284,0.13927 -0.607163,0.0651 -0.05937,-0.0357 -0.127315,-0.0811 -0.111742,-0.13721 0.0144,-0.0519 0.155514,-0.0609 0.155514,-0.0609 0,0 -0.283061,-0.0951 -0.384108,-0.10548 -0.09313,-0.009 -0.230587,-0.0155 -0.272735,0.0632 -0.08355,0.1561 -0.04104,0.49042 -0.04547,0.70665 -0.0068,0.33307 -0.08184,0.87422 -0.08184,0.87422 z"
       id="path4172-3-7-2"
       inkscape:connector-curvature="0"
       sodipodi:nodetypes="cssscccccccsccscsccsccccacssscc" />
    <path
       style="fill:#41a324;fill-opacity:1;fill-rule:evenodd;stroke:none;stroke-width:0.28222221px;stroke-linecap:butt;stroke-linejoin:miter;stroke-opacity:1"
       d="m 71.10361,244.85122 c 0,0 -0.183955,-0.68141 -0.173512,-1.07979 0.0066,-0.24898 -0.05985,-0.53709 0.01776,-0.77889 0.04752,-0.14807 0.288766,-0.23343 0.449563,-0.27079 0.182742,-0.0424 0.469118,0.069 0.469118,0.069 0,0 -0.06673,0.0403 -0.11922,0.10051 -0.09132,0.11286 0.07567,0.31793 0.359342,0.28429 0.226579,-0.0355 0.529559,-0.0815 0.529559,-0.0815 0,0 -0.06106,-0.1386 -0.209692,-0.35958 -0.151195,-0.17321 -0.217435,-0.31384 -0.461614,-0.27144 -0.04433,0.0664 0.0018,0.18804 0.0018,0.18804 0,0 -0.403187,-0.1189 -0.609416,-0.10794 -0.142453,0.008 -0.412046,0.16314 -0.512693,0.23164 -0.03603,-0.10618 -0.135183,-0.13109 -0.246956,-0.19704 0.189839,-0.0197 0.230721,-0.0971 0.108122,-0.12803 -0.222065,-0.0558 -0.357669,0.0262 -0.365085,0.03 -0.01105,0.005 -0.06699,0.14646 -0.02982,0.22455 0.0254,0.0533 0.186393,4e-4 0.235718,-0.10077 0.102271,0.0796 0.155418,0.10517 0.09626,0.22619 -0.09338,-0.004 -0.219918,-0.0364 -0.342671,-0.0126 -0.138797,0.0276 -0.412662,0.13496 -0.412662,0.13496 0.135418,-0.18839 -0.08194,-0.21576 -0.249319,-0.18459 -0.27739,0.24449 -0.218319,0.15459 -0.33539,0.47522 0.308747,0.0844 0.339796,0.1535 0.669225,0.0717 0.06544,-0.0393 0.140328,-0.0894 0.123164,-0.15124 -0.01587,-0.0572 -0.17141,-0.0671 -0.17141,-0.0671 0,0 0.311994,-0.10479 0.423369,-0.11626 0.102652,-0.0101 0.254157,-0.0171 0.300613,0.0697 0.09209,0.17206 0.04523,0.54055 0.05012,0.77888 0.0075,0.36712 0.09021,0.96358 0.09021,0.96358 z"
       id="path4172-3-5-8"
       inkscape:connector-curvature="0"
       sodipodi:nodetypes="cssscccccccsccscsccsccccacssscc" />
    <path
       style="fill:#41a324;fill-opacity:1;fill-rule:evenodd;stroke:none;stroke-width:0.28222221px;stroke-linecap:butt;stroke-linejoin:miter;stroke-opacity:1"
       d="m 75.314791,244.85123 c 0,0 -0.163105,-0.60418 -0.153845,-0.9574 0.0059,-0.22076 -0.05307,-0.47622 0.01575,-0.69061 0.04213,-0.13129 0.256036,-0.20697 0.398606,-0.2401 0.162029,-0.0376 0.415947,0.0612 0.415947,0.0612 0,0 -0.05917,0.0357 -0.105707,0.0891 -0.08097,0.10007 0.06709,0.2819 0.318612,0.25207 0.200898,-0.0315 0.469537,-0.0723 0.469537,-0.0723 0,0 -0.05414,-0.12289 -0.185925,-0.31883 -0.134057,-0.15358 -0.19279,-0.27827 -0.409293,-0.24067 -0.0393,0.0589 0.0016,0.16672 0.0016,0.16672 0,0 -0.357488,-0.10542 -0.540342,-0.0957 -0.126301,0.007 -0.365337,0.14465 -0.454576,0.20538 -0.03195,-0.0941 -0.119861,-0.11623 -0.218965,-0.1747 0.168322,-0.0175 0.20457,-0.0861 0.09587,-0.11352 -0.196895,-0.0495 -0.317129,0.0232 -0.323704,0.0266 -0.0098,0.004 -0.0594,0.12986 -0.02644,0.1991 0.02252,0.0473 0.165267,3.5e-4 0.209001,-0.0894 0.09068,0.0706 0.137802,0.0933 0.08535,0.20055 -0.08281,-0.004 -0.195003,-0.0323 -0.303843,-0.0112 -0.123065,0.0245 -0.365889,0.11966 -0.365889,0.11966 0.12007,-0.16703 -0.07265,-0.1913 -0.22106,-0.16366 -0.245949,0.21677 -0.193573,0.13706 -0.297375,0.42135 0.273752,0.0748 0.301282,0.1361 0.593372,0.0636 0.05802,-0.0348 0.124423,-0.0793 0.109204,-0.13409 -0.01407,-0.0507 -0.151982,-0.0595 -0.151982,-0.0595 0,0 0.276632,-0.0929 0.375383,-0.10308 0.09102,-0.009 0.22535,-0.0152 0.26654,0.0618 0.08165,0.15256 0.0401,0.47928 0.04444,0.6906 0.0067,0.32551 0.07999,0.85436 0.07999,0.85436 z"
       id="path4172-3-5-3-9"
       inkscape:connector-curvature="0"
       sodipodi:nodetypes="cssscccccccsccscsccsccccacssscc" />
    <path
       style="fill:#41a324;fill-opacity:1;fill-rule:evenodd;stroke:none;stroke-width:0.28222221px;stroke-linecap:butt;stroke-linejoin:miter;stroke-opacity:1"
       d="m 54.421797,249.43963 c 0,0 0.139903,-0.54098 0.131961,-0.85726 -0.005,-0.19767 0.04552,-0.42641 -0.01351,-0.61838 -0.03614,-0.11755 -0.219615,-0.18532 -0.341905,-0.21498 -0.138981,-0.0337 -0.356779,0.0548 -0.356779,0.0548 0,0 0.05075,0.032 0.09067,0.0798 0.06945,0.0896 -0.05755,0.25241 -0.273289,0.2257 -0.172321,-0.0282 -0.402746,-0.0647 -0.402746,-0.0647 0,0 0.04644,-0.11004 0.159478,-0.28548 0.114987,-0.13751 0.165365,-0.24916 0.351071,-0.2155 0.03371,0.0527 -0.0014,0.14929 -0.0014,0.14929 0,0 0.306636,-0.0944 0.463479,-0.0857 0.108334,0.006 0.313368,0.12952 0.389913,0.18391 0.0274,-0.0843 0.10281,-0.10408 0.187817,-0.15644 -0.144378,-0.0156 -0.17547,-0.0771 -0.08223,-0.10164 0.168887,-0.0443 0.272018,0.0208 0.277658,0.0238 0.0084,0.004 0.05095,0.11628 0.02268,0.17827 -0.01932,0.0423 -0.141757,3.2e-4 -0.17927,-0.08 -0.07778,0.0632 -0.1182,0.0835 -0.07321,0.17958 0.07102,-0.003 0.167254,-0.0289 0.260611,-0.01 0.105559,0.0219 0.313842,0.10715 0.313842,0.10715 -0.10299,-0.14957 0.06232,-0.1713 0.189614,-0.14655 0.210963,0.1941 0.166038,0.12273 0.255074,0.37728 -0.234811,0.067 -0.258425,0.12187 -0.508965,0.0569 -0.04977,-0.0312 -0.106724,-0.071 -0.09367,-0.12007 0.01207,-0.0454 0.130362,-0.0533 0.130362,-0.0533 0,0 -0.23728,-0.0832 -0.321984,-0.0923 -0.07807,-0.008 -0.193294,-0.0136 -0.228625,0.0553 -0.07004,0.1366 -0.0344,0.42915 -0.03812,0.61837 -0.0057,0.29146 -0.06861,0.765 -0.06861,0.765 z"
       id="path4172-5-7"
       inkscape:connector-curvature="0"
       sodipodi:nodetypes="cssscccccccsccscsccsccccacssscc" />
    <path
       style="fill:#41a324;fill-opacity:1;fill-rule:evenodd;stroke:none;stroke-width:0.28222221px;stroke-linecap:butt;stroke-linejoin:miter;stroke-opacity:1"
       d="m 74.787292,249.26651 c 0,0 0.183955,-0.68141 0.173512,-1.07979 -0.0066,-0.24898 0.05985,-0.53709 -0.01776,-0.77889 -0.04752,-0.14807 -0.288766,-0.23343 -0.449562,-0.27079 -0.182742,-0.0424 -0.469119,0.069 -0.469119,0.069 0,0 0.06673,0.0403 0.11922,0.10051 0.09132,0.11286 -0.07567,0.31793 -0.359341,0.28429 -0.22658,-0.0355 -0.52956,-0.0815 -0.52956,-0.0815 0,0 0.06106,-0.1386 0.209693,-0.35958 0.151194,-0.17321 0.217435,-0.31384 0.461614,-0.27144 0.04433,0.0664 -0.0018,0.18804 -0.0018,0.18804 0,0 0.403187,-0.1189 0.609416,-0.10794 0.142446,0.008 0.412039,0.16314 0.512686,0.23164 0.03603,-0.10618 0.135183,-0.13109 0.246956,-0.19704 -0.189839,-0.0197 -0.230721,-0.0971 -0.108122,-0.12803 0.222065,-0.0558 0.357669,0.0262 0.365085,0.03 0.01105,0.005 0.06699,0.14646 0.02982,0.22455 -0.0254,0.0533 -0.186393,3.9e-4 -0.235718,-0.10077 -0.102271,0.0796 -0.155418,0.10517 -0.09626,0.22619 0.09338,-0.004 0.219918,-0.0364 0.342671,-0.0126 0.138797,0.0276 0.412662,0.13496 0.412662,0.13496 -0.135418,-0.18839 0.08194,-0.21576 0.249319,-0.18459 0.27739,0.24449 0.218319,0.15459 0.335391,0.47522 -0.308748,0.0844 -0.339797,0.1535 -0.669226,0.0717 -0.06544,-0.0393 -0.140327,-0.0894 -0.123164,-0.15124 0.01587,-0.0572 0.17141,-0.0671 0.17141,-0.0671 0,0 -0.311994,-0.10479 -0.423369,-0.11626 -0.102652,-0.0101 -0.254156,-0.0171 -0.300613,0.0697 -0.09209,0.17206 -0.04523,0.54055 -0.05012,0.77888 -0.0075,0.36712 -0.09021,0.96358 -0.09021,0.96358 z"
       id="path4172-3-62-3"
       inkscape:connector-curvature="0"
       sodipodi:nodetypes="cssscccccccsccscsccsccccacssscc" />
    <path
       style="fill:#41a324;fill-opacity:1;fill-rule:evenodd;stroke:none;stroke-width:0.28222221px;stroke-linecap:butt;stroke-linejoin:miter;stroke-opacity:1"
       d="m 58.491304,249.49104 c 0,0 -0.166059,-0.55503 -0.156632,-0.87952 0.006,-0.2028 -0.05403,-0.43747 0.01603,-0.63443 0.0429,-0.1206 0.260674,-0.19013 0.405827,-0.22056 0.164964,-0.0345 0.423481,0.0562 0.423481,0.0562 0,0 -0.06024,0.0328 -0.107621,0.0819 -0.08244,0.0919 0.06831,0.25896 0.324383,0.23156 0.204537,-0.0289 0.478042,-0.0664 0.478042,-0.0664 0,0 -0.05512,-0.1129 -0.189293,-0.29289 -0.136486,-0.14108 -0.196282,-0.25563 -0.416707,-0.2211 -0.04002,0.0541 0.0016,0.15317 0.0016,0.15317 0,0 -0.363963,-0.0968 -0.550131,-0.0879 -0.128589,0.007 -0.371954,0.13288 -0.462809,0.18868 -0.03252,-0.0865 -0.122034,-0.10678 -0.222933,-0.1605 0.171371,-0.0161 0.208275,-0.0791 0.0976,-0.10428 -0.200462,-0.0455 -0.322874,0.0213 -0.329568,0.0244 -0.01,0.004 -0.06047,0.1193 -0.02692,0.1829 0.02293,0.0434 0.16826,3.4e-4 0.212786,-0.0821 0.09232,0.0648 0.140299,0.0857 0.0869,0.18424 -0.0843,-0.003 -0.198524,-0.0296 -0.309335,-0.0103 -0.125293,0.0225 -0.372516,0.10993 -0.372516,0.10993 0.122244,-0.15345 -0.07397,-0.17574 -0.225064,-0.15036 -0.250404,0.19915 -0.19708,0.12592 -0.302761,0.38708 0.27871,0.0687 0.306738,0.12503 0.604119,0.0584 0.05907,-0.032 0.126677,-0.0728 0.111182,-0.12319 -0.01433,-0.0466 -0.154734,-0.0547 -0.154734,-0.0547 0,0 0.281642,-0.0854 0.382182,-0.0947 0.09267,-0.008 0.229432,-0.0139 0.271368,0.0568 0.08313,0.14015 0.04083,0.44029 0.04524,0.63442 0.0068,0.29903 0.08143,0.78486 0.08143,0.78486 z"
       id="path4172-3-6-9-6"
       inkscape:connector-curvature="0"
       sodipodi:nodetypes="cssscccccccsccscsccsccccacssscc" />
    <path
       style="fill:#41a324;fill-opacity:1;fill-rule:evenodd;stroke:none;stroke-width:0.28222221px;stroke-linecap:butt;stroke-linejoin:miter;stroke-opacity:1"
       d="m 66.612799,248.8674 c 0,0 0.166896,-0.61822 0.157421,-0.97965 -0.006,-0.22589 0.0543,-0.48729 -0.01611,-0.70666 -0.04311,-0.13434 -0.261987,-0.21179 -0.407871,-0.24568 -0.165795,-0.0385 -0.425614,0.0626 -0.425614,0.0626 0,0 0.06054,0.0366 0.108164,0.0912 0.08285,0.10239 -0.06865,0.28845 -0.326016,0.25793 -0.205568,-0.0322 -0.480451,-0.0739 -0.480451,-0.0739 0,0 0.0554,-0.12574 0.190247,-0.32623 0.137173,-0.15715 0.197271,-0.28474 0.418805,-0.24627 0.04022,0.0602 -0.0016,0.1706 -0.0016,0.1706 0,0 0.365797,-0.10787 0.552901,-0.0979 0.129236,0.007 0.373828,0.14801 0.465142,0.21016 0.03269,-0.0963 0.122647,-0.11893 0.224055,-0.17876 -0.172234,-0.0179 -0.209325,-0.0881 -0.0981,-0.11616 0.201471,-0.0506 0.3245,0.0238 0.331228,0.0272 0.01002,0.005 0.06078,0.13287 0.02705,0.20372 -0.02304,0.0484 -0.169107,3.7e-4 -0.213858,-0.0914 -0.09279,0.0722 -0.141005,0.0954 -0.08733,0.20521 0.08472,-0.004 0.199524,-0.033 0.310893,-0.0114 0.125925,0.025 0.374393,0.12244 0.374393,0.12244 -0.12286,-0.17092 0.07434,-0.19575 0.226198,-0.16747 0.251666,0.22182 0.198073,0.14026 0.304287,0.43115 -0.280115,0.0766 -0.308284,0.13927 -0.607163,0.0651 -0.05937,-0.0357 -0.127315,-0.0811 -0.111741,-0.13721 0.0144,-0.0519 0.155513,-0.0609 0.155513,-0.0609 0,0 -0.283061,-0.0951 -0.384108,-0.10548 -0.09313,-0.009 -0.230587,-0.0155 -0.272735,0.0632 -0.08355,0.1561 -0.04104,0.49042 -0.04547,0.70665 -0.0068,0.33307 -0.08184,0.87422 -0.08184,0.87422 z"
       id="path4172-3-7-1-1"
       inkscape:connector-curvature="0"
       sodipodi:nodetypes="cssscccccccsccscsccsccccacssscc" />
    <path
       style="fill:#41a324;fill-opacity:1;fill-rule:evenodd;stroke:none;stroke-width:0.28222221px;stroke-linecap:butt;stroke-linejoin:miter;stroke-opacity:1"
       d="m 70.93951,249.01707 c 0,0 -0.183955,-0.68141 -0.173512,-1.07979 0.0066,-0.24898 -0.05985,-0.53709 0.01776,-0.77889 0.04752,-0.14807 0.288766,-0.23343 0.449561,-0.27079 0.182742,-0.0424 0.46912,0.069 0.46912,0.069 0,0 -0.06673,0.0403 -0.11922,0.10051 -0.09132,0.11286 0.07567,0.31793 0.35934,0.28429 0.226581,-0.0355 0.529561,-0.0815 0.529561,-0.0815 0,0 -0.06106,-0.1386 -0.209694,-0.35958 -0.151192,-0.17321 -0.217433,-0.31384 -0.461614,-0.27144 -0.04433,0.0664 0.0018,0.18804 0.0018,0.18804 0,0 -0.403187,-0.1189 -0.609416,-0.10794 -0.142446,0.008 -0.412039,0.16314 -0.512686,0.23164 -0.03603,-0.10618 -0.135183,-0.13109 -0.246956,-0.19704 0.189839,-0.0197 0.230721,-0.0971 0.108122,-0.12803 -0.222065,-0.0558 -0.357669,0.0262 -0.365085,0.03 -0.01105,0.005 -0.06699,0.14646 -0.02982,0.22455 0.0254,0.0533 0.186393,3.9e-4 0.235718,-0.10077 0.102271,0.0796 0.155418,0.10517 0.09626,0.22619 -0.09339,-0.004 -0.219925,-0.0364 -0.342678,-0.0126 -0.138797,0.0276 -0.412662,0.13496 -0.412662,0.13496 0.135418,-0.18839 -0.08194,-0.21576 -0.249319,-0.18459 -0.27739,0.24449 -0.218319,0.15459 -0.33539,0.47522 0.308747,0.0844 0.339796,0.1535 0.669225,0.0717 0.06544,-0.0393 0.140328,-0.0894 0.123164,-0.15124 -0.01587,-0.0572 -0.17141,-0.0671 -0.17141,-0.0671 0,0 0.311994,-0.10479 0.423369,-0.11626 0.102652,-0.0101 0.254157,-0.0171 0.300613,0.0697 0.09209,0.17206 0.04523,0.54055 0.05012,0.77888 0.0075,0.36712 0.09021,0.96358 0.09021,0.96358 z"
       id="path4172-3-5-2-2"
       inkscape:connector-curvature="0"
       sodipodi:nodetypes="cssscccccccsccscsccsccccacssscc" />
    <path
       style="fill:#41a324;fill-opacity:1;fill-rule:evenodd;stroke:none;stroke-width:0.28222221px;stroke-linecap:butt;stroke-linejoin:miter;stroke-opacity:1"
       d="m 62.877674,249.01708 c 0,0 -0.163105,-0.60418 -0.153845,-0.9574 0.0059,-0.22076 -0.05307,-0.47622 0.01575,-0.69061 0.04213,-0.13129 0.256036,-0.20697 0.398606,-0.2401 0.162029,-0.0376 0.415947,0.0612 0.415947,0.0612 0,0 -0.05917,0.0357 -0.105707,0.0891 -0.08097,0.10007 0.06709,0.2819 0.318612,0.25207 0.200898,-0.0315 0.469537,-0.0723 0.469537,-0.0723 0,0 -0.05414,-0.12289 -0.185925,-0.31883 -0.134057,-0.15358 -0.19279,-0.27827 -0.409293,-0.24067 -0.0393,0.0589 0.0016,0.16672 0.0016,0.16672 0,0 -0.357488,-0.10542 -0.540342,-0.0957 -0.126301,0.007 -0.365337,0.14465 -0.454576,0.20538 -0.03195,-0.0941 -0.119862,-0.11623 -0.218966,-0.1747 0.168323,-0.0175 0.204571,-0.0861 0.09587,-0.11352 -0.196895,-0.0495 -0.317129,0.0232 -0.323704,0.0266 -0.0098,0.004 -0.0594,0.12986 -0.02644,0.1991 0.02252,0.0473 0.165268,3.4e-4 0.209002,-0.0894 0.09068,0.0706 0.137802,0.0933 0.08535,0.20055 -0.08281,-0.004 -0.195,-0.0323 -0.30384,-0.0112 -0.123065,0.0245 -0.365889,0.11966 -0.365889,0.11966 0.12008,-0.16703 -0.07264,-0.1913 -0.22105,-0.16366 -0.245949,0.21677 -0.193573,0.13706 -0.297375,0.42135 0.273752,0.0748 0.301282,0.1361 0.593372,0.0636 0.05802,-0.0348 0.124423,-0.0793 0.109204,-0.13409 -0.01407,-0.0507 -0.151982,-0.0595 -0.151982,-0.0595 0,0 0.276632,-0.0929 0.375383,-0.10308 0.09102,-0.009 0.22535,-0.0152 0.26654,0.0618 0.08165,0.15256 0.0401,0.47928 0.04444,0.6906 0.0067,0.32551 0.07999,0.85436 0.07999,0.85436 z"
       id="path4172-3-5-3-7-9"
       inkscape:connector-curvature="0"
       sodipodi:nodetypes="cssscccccccsccscsccsccccacssscc" />
    <path
       style="fill:#41a324;fill-opacity:1;fill-rule:evenodd;stroke:none;stroke-width:0.28222221px;stroke-linecap:butt;stroke-linejoin:miter;stroke-opacity:1"
       d="m 66.445362,253.63042 c 0,0 0.139903,-0.54098 0.131961,-0.85726 -0.005,-0.19767 0.04552,-0.42641 -0.01351,-0.61838 -0.03614,-0.11755 -0.219615,-0.18532 -0.341905,-0.21498 -0.138981,-0.0337 -0.356779,0.0548 -0.356779,0.0548 0,0 0.05075,0.032 0.09067,0.0798 0.06945,0.0896 -0.05755,0.25241 -0.273289,0.2257 -0.172321,-0.0282 -0.402746,-0.0647 -0.402746,-0.0647 0,0 0.04644,-0.11004 0.159478,-0.28548 0.114987,-0.13751 0.165365,-0.24916 0.351071,-0.2155 0.03371,0.0527 -0.0014,0.14929 -0.0014,0.14929 0,0 0.306636,-0.0944 0.463479,-0.0857 0.108334,0.006 0.313368,0.12952 0.389913,0.18391 0.0274,-0.0843 0.10281,-0.10408 0.187817,-0.15644 -0.144378,-0.0156 -0.17547,-0.0771 -0.08223,-0.10164 0.168887,-0.0443 0.272018,0.0208 0.277658,0.0238 0.0084,0.004 0.05095,0.11628 0.02268,0.17827 -0.01932,0.0423 -0.141758,3.1e-4 -0.17927,-0.08 -0.07778,0.0632 -0.118201,0.0835 -0.07321,0.17958 0.07102,-0.003 0.167254,-0.0289 0.26061,-0.01 0.105559,0.0219 0.313843,0.10715 0.313843,0.10715 -0.10299,-0.14957 0.06232,-0.1713 0.189614,-0.14655 0.210962,0.1941 0.166037,0.12273 0.255074,0.37728 -0.234811,0.067 -0.258425,0.12187 -0.508965,0.0569 -0.04977,-0.0312 -0.106724,-0.071 -0.09367,-0.12007 0.01207,-0.0454 0.130363,-0.0533 0.130363,-0.0533 0,0 -0.23728,-0.0832 -0.321984,-0.0923 -0.07807,-0.008 -0.193294,-0.0136 -0.228625,0.0553 -0.07004,0.1366 -0.0344,0.42915 -0.03812,0.61837 -0.0057,0.29146 -0.06861,0.765 -0.06861,0.765 z"
       id="path4172-0-3"
       inkscape:connector-curvature="0"
       sodipodi:nodetypes="cssscccccccsccscsccsccccacssscc" />
    <path
       style="fill:#41a324;fill-opacity:1;fill-rule:evenodd;stroke:none;stroke-width:0.28222221px;stroke-linecap:butt;stroke-linejoin:miter;stroke-opacity:1"
       d="m 70.796067,253.9562 c 0,0 0.183955,-0.68141 0.173512,-1.07979 -0.0066,-0.24898 0.05985,-0.53709 -0.01776,-0.77889 -0.04752,-0.14807 -0.288766,-0.23343 -0.449562,-0.27079 -0.182742,-0.0424 -0.469119,0.069 -0.469119,0.069 0,0 0.06673,0.0403 0.119219,0.10051 0.09132,0.11286 -0.07567,0.31793 -0.35934,0.28429 -0.22658,-0.0355 -0.52956,-0.0815 -0.52956,-0.0815 0,0 0.06106,-0.1386 0.209693,-0.35958 0.151194,-0.17321 0.217435,-0.31384 0.461614,-0.27144 0.04433,0.0664 -0.0018,0.18804 -0.0018,0.18804 0,0 0.403186,-0.1189 0.609416,-0.10794 0.142446,0.008 0.412039,0.16314 0.512686,0.23164 0.03603,-0.10618 0.135183,-0.13109 0.246956,-0.19704 -0.189839,-0.0197 -0.230721,-0.0971 -0.108123,-0.12803 0.222066,-0.0558 0.35767,0.0262 0.365086,0.03 0.01105,0.005 0.06699,0.14646 0.02982,0.22455 -0.0254,0.0533 -0.186393,3.9e-4 -0.235718,-0.10077 -0.102271,0.0796 -0.155418,0.10517 -0.09626,0.22619 0.09338,-0.004 0.219918,-0.0364 0.342671,-0.0126 0.138797,0.0276 0.412662,0.13496 0.412662,0.13496 -0.135418,-0.18839 0.08194,-0.21576 0.249319,-0.18459 0.27739,0.24449 0.218319,0.15459 0.33539,0.47522 -0.308747,0.0844 -0.339796,0.1535 -0.669225,0.0717 -0.06544,-0.0393 -0.140328,-0.0894 -0.123164,-0.15124 0.01587,-0.0572 0.17141,-0.0671 0.17141,-0.0671 0,0 -0.311994,-0.10479 -0.423369,-0.11626 -0.102652,-0.0101 -0.254157,-0.0171 -0.300613,0.0697 -0.09209,0.17206 -0.04523,0.54055 -0.05012,0.77888 -0.0075,0.36712 -0.09021,0.96358 -0.09021,0.96358 z"
       id="path4172-3-9-1"
       inkscape:connector-curvature="0"
       sodipodi:nodetypes="cssscccccccsccscsccsccccacssscc" />
    <path
       style="fill:#41a324;fill-opacity:1;fill-rule:evenodd;stroke:none;stroke-width:0.28222221px;stroke-linecap:butt;stroke-linejoin:miter;stroke-opacity:1"
       d="m 75.40412,253.48227 c 0,0 -0.166059,-0.55503 -0.156632,-0.87952 0.006,-0.2028 -0.05403,-0.43747 0.01603,-0.63443 0.0429,-0.1206 0.260674,-0.19013 0.405826,-0.22056 0.164964,-0.0345 0.423482,0.0562 0.423482,0.0562 0,0 -0.06024,0.0328 -0.107622,0.0819 -0.08244,0.0919 0.06831,0.25896 0.324384,0.23156 0.204536,-0.0289 0.478041,-0.0664 0.478041,-0.0664 0,0 -0.05512,-0.1129 -0.189293,-0.29289 -0.136486,-0.14108 -0.196281,-0.25563 -0.416707,-0.2211 -0.04002,0.0541 0.0016,0.15317 0.0016,0.15317 0,0 -0.363963,-0.0968 -0.55013,-0.0879 -0.128588,0.007 -0.371954,0.13288 -0.462809,0.18868 -0.03252,-0.0865 -0.122033,-0.10678 -0.222933,-0.1605 0.171371,-0.0161 0.208276,-0.0791 0.0976,-0.10428 -0.200462,-0.0455 -0.322874,0.0213 -0.329568,0.0244 -0.01,0.004 -0.06047,0.1193 -0.02692,0.1829 0.02293,0.0434 0.16826,3.4e-4 0.212786,-0.0821 0.09232,0.0648 0.140299,0.0857 0.0869,0.18424 -0.0843,-0.003 -0.198524,-0.0296 -0.309335,-0.0103 -0.125292,0.0225 -0.372515,0.10993 -0.372515,0.10993 0.122244,-0.15345 -0.07397,-0.17574 -0.225065,-0.15036 -0.250403,0.19915 -0.197079,0.12592 -0.30276,0.38708 0.27871,0.0687 0.306738,0.12503 0.604119,0.0584 0.05907,-0.032 0.126677,-0.0728 0.111182,-0.12319 -0.01433,-0.0466 -0.154734,-0.0547 -0.154734,-0.0547 0,0 0.281642,-0.0854 0.382182,-0.0947 0.09267,-0.008 0.229432,-0.0139 0.271368,0.0568 0.08313,0.14015 0.04083,0.44029 0.04524,0.63442 0.0068,0.29903 0.08143,0.78486 0.08143,0.78486 z"
       id="path4172-3-6-3-9"
       inkscape:connector-curvature="0"
       sodipodi:nodetypes="cssscccccccsccscsccsccccacssscc" />
    <path
       style="fill:#41a324;fill-opacity:1;fill-rule:evenodd;stroke:none;stroke-width:0.28222221px;stroke-linecap:butt;stroke-linejoin:miter;stroke-opacity:1"
       d="m 54.339782,253.85643 c 0,0 0.166896,-0.61822 0.157421,-0.97965 -0.006,-0.22589 0.0543,-0.48729 -0.01611,-0.70666 -0.04311,-0.13434 -0.261987,-0.21179 -0.407871,-0.24568 -0.165795,-0.0385 -0.425614,0.0626 -0.425614,0.0626 0,0 0.06054,0.0366 0.108164,0.0912 0.08285,0.10239 -0.06865,0.28845 -0.326016,0.25793 -0.205568,-0.0322 -0.480451,-0.0739 -0.480451,-0.0739 0,0 0.0554,-0.12574 0.190247,-0.32623 0.137173,-0.15715 0.197271,-0.28474 0.418805,-0.24627 0.04022,0.0602 -0.0016,0.1706 -0.0016,0.1706 0,0 0.365797,-0.10787 0.552901,-0.0979 0.129236,0.007 0.373828,0.14801 0.465142,0.21016 0.03269,-0.0963 0.122647,-0.11893 0.224055,-0.17876 -0.172234,-0.0179 -0.209325,-0.0881 -0.0981,-0.11616 0.201471,-0.0506 0.3245,0.0238 0.331228,0.0272 0.01002,0.005 0.06078,0.13287 0.02705,0.20372 -0.02304,0.0484 -0.169107,3.7e-4 -0.213858,-0.0914 -0.09279,0.0722 -0.141005,0.0954 -0.08733,0.20521 0.08472,-0.004 0.199524,-0.033 0.310893,-0.0114 0.125925,0.025 0.374393,0.12244 0.374393,0.12244 -0.12286,-0.17092 0.07434,-0.19575 0.226198,-0.16747 0.251666,0.22182 0.198073,0.14026 0.304287,0.43115 -0.280115,0.0766 -0.308284,0.13927 -0.607163,0.0651 -0.05937,-0.0357 -0.127315,-0.0811 -0.111742,-0.13721 0.0144,-0.0519 0.155514,-0.0609 0.155514,-0.0609 0,0 -0.283061,-0.0951 -0.384108,-0.10548 -0.09313,-0.009 -0.230587,-0.0155 -0.272735,0.0632 -0.08355,0.1561 -0.04104,0.49042 -0.04547,0.70665 -0.0068,0.33307 -0.08184,0.87422 -0.08184,0.87422 z"
       id="path4172-3-7-6-4"
       inkscape:connector-curvature="0"
       sodipodi:nodetypes="cssscccccccsccscsccsccccacssscc" />
    <path
       style="fill:#41a324;fill-opacity:1;fill-rule:evenodd;stroke:none;stroke-width:0.28222221px;stroke-linecap:butt;stroke-linejoin:miter;stroke-opacity:1"
       d="m 59.015725,253.75665 c 0,0 -0.183955,-0.68141 -0.173512,-1.07979 0.0066,-0.24898 -0.05985,-0.53709 0.01776,-0.77889 0.04752,-0.14807 0.288767,-0.23343 0.449562,-0.27079 0.182742,-0.0424 0.469119,0.069 0.469119,0.069 0,0 -0.06673,0.0403 -0.11922,0.10051 -0.09132,0.11286 0.07567,0.31793 0.359341,0.28429 0.22658,-0.0355 0.52956,-0.0815 0.52956,-0.0815 0,0 -0.06106,-0.1386 -0.209693,-0.35958 -0.151193,-0.17321 -0.217434,-0.31384 -0.461614,-0.27144 -0.04433,0.0664 0.0018,0.18804 0.0018,0.18804 0,0 -0.403187,-0.1189 -0.609416,-0.10794 -0.142446,0.008 -0.412039,0.16314 -0.512686,0.23164 -0.03603,-0.10618 -0.135183,-0.13109 -0.246956,-0.19704 0.189839,-0.0197 0.230721,-0.0971 0.108122,-0.12803 -0.222065,-0.0558 -0.357669,0.0262 -0.365085,0.03 -0.01105,0.005 -0.06699,0.14646 -0.02982,0.22455 0.0254,0.0533 0.186393,3.9e-4 0.235718,-0.10077 0.102271,0.0796 0.155418,0.10517 0.09626,0.22619 -0.09339,-0.004 -0.219925,-0.0364 -0.342678,-0.0126 -0.138797,0.0276 -0.412662,0.13496 -0.412662,0.13496 0.135418,-0.18839 -0.08194,-0.21576 -0.249319,-0.18459 -0.27739,0.24449 -0.218319,0.15459 -0.33539,0.47522 0.308747,0.0844 0.339796,0.1535 0.669225,0.0717 0.06544,-0.0393 0.140328,-0.0894 0.123164,-0.15124 -0.01587,-0.0572 -0.17141,-0.0671 -0.17141,-0.0671 0,0 0.311994,-0.10479 0.423369,-0.11626 0.102652,-0.0101 0.254157,-0.0171 0.300613,0.0697 0.09209,0.17206 0.04523,0.54055 0.05012,0.77888 0.0075,0.36712 0.09021,0.96358 0.09021,0.96358 z"
       id="path4172-3-5-0-7"
       inkscape:connector-curvature="0"
       sodipodi:nodetypes="cssscccccccsccscsccsccccacssscc" />
    <path
       style="fill:#41a324;fill-opacity:1;fill-rule:evenodd;stroke:none;stroke-width:0.28222221px;stroke-linecap:butt;stroke-linejoin:miter;stroke-opacity:1"
       d="m 63.226906,253.75666 c 0,0 -0.163105,-0.60418 -0.153845,-0.9574 0.0059,-0.22076 -0.05307,-0.47622 0.01575,-0.69061 0.04213,-0.13129 0.256036,-0.20697 0.398606,-0.2401 0.162029,-0.0376 0.415947,0.0612 0.415947,0.0612 0,0 -0.05917,0.0357 -0.105707,0.0891 -0.08097,0.10007 0.06709,0.2819 0.318612,0.25207 0.200898,-0.0315 0.469537,-0.0723 0.469537,-0.0723 0,0 -0.05414,-0.12289 -0.185925,-0.31883 -0.134057,-0.15358 -0.19279,-0.27827 -0.409293,-0.24067 -0.0393,0.0589 0.0016,0.16672 0.0016,0.16672 0,0 -0.357489,-0.10542 -0.540343,-0.0957 -0.1263,0.007 -0.365337,0.14465 -0.454575,0.20538 -0.03195,-0.0941 -0.119862,-0.11623 -0.218966,-0.1747 0.168322,-0.0175 0.204571,-0.0861 0.09587,-0.11352 -0.196894,-0.0495 -0.317129,0.0232 -0.323704,0.0266 -0.0098,0.004 -0.0594,0.12986 -0.02644,0.1991 0.02252,0.0473 0.165268,3.4e-4 0.209002,-0.0894 0.09068,0.0706 0.137801,0.0933 0.08535,0.20055 -0.08281,-0.004 -0.195,-0.0323 -0.30384,-0.0112 -0.123065,0.0245 -0.365889,0.11966 -0.365889,0.11966 0.12008,-0.16703 -0.07264,-0.1913 -0.22105,-0.16366 -0.245949,0.21677 -0.193573,0.13706 -0.297375,0.42135 0.273752,0.0748 0.301282,0.1361 0.593372,0.0636 0.05802,-0.0348 0.124423,-0.0793 0.109204,-0.13409 -0.01407,-0.0507 -0.151982,-0.0595 -0.151982,-0.0595 0,0 0.276632,-0.0929 0.375383,-0.10308 0.09102,-0.009 0.22535,-0.0152 0.26654,0.0618 0.08165,0.15256 0.0401,0.47928 0.04444,0.6906 0.0067,0.32551 0.07999,0.85436 0.07999,0.85436 z"
       id="path4172-3-5-3-6-8"
       inkscape:connector-curvature="0"
       sodipodi:nodetypes="cssscccccccsccscsccsccccacssscc" />
  </g>
</svg>
