<?xml version="1.0" encoding="UTF-8" standalone="no"?>
<!-- Created with Inkscape (http://www.inkscape.org/) -->

<svg
   xmlns:dc="http://purl.org/dc/elements/1.1/"
   xmlns:cc="http://creativecommons.org/ns#"
   xmlns:rdf="http://www.w3.org/1999/02/22-rdf-syntax-ns#"
   xmlns:svg="http://www.w3.org/2000/svg"
   xmlns="http://www.w3.org/2000/svg"
   xmlns:sodipodi="http://sodipodi.sourceforge.net/DTD/sodipodi-0.dtd"
   xmlns:inkscape="http://www.inkscape.org/namespaces/inkscape"
   width="210mm"
   height="297mm"
   viewBox="0 0 744.09448819 1052.3622047"
   id="svg2"
   version="1.1"
   inkscape:version="0.91 r13725"
   sodipodi:docname="trees.svg">
  <defs
     id="defs4" />
  <sodipodi:namedview
     id="base"
     pagecolor="#ffffff"
     bordercolor="#666666"
     borderopacity="1.0"
     inkscape:pageopacity="0.0"
     inkscape:pageshadow="2"
     inkscape:zoom="1.4"
     inkscape:cx="386.10137"
     inkscape:cy="471.18284"
     inkscape:document-units="px"
     inkscape:current-layer="layer1"
     showgrid="false"
     inkscape:window-width="1867"
     inkscape:window-height="1056"
     inkscape:window-x="1333"
     inkscape:window-y="24"
     inkscape:window-maximized="1" />
  <metadata
     id="metadata7">
    <rdf:RDF>
      <cc:Work
         rdf:about="">
        <dc:format>image/svg+xml</dc:format>
        <dc:type
           rdf:resource="http://purl.org/dc/dcmitype/StillImage" />
        <dc:title></dc:title>
      </cc:Work>
    </rdf:RDF>
  </metadata>
  <g
     inkscape:label="Layer 1"
     inkscape:groupmode="layer"
     id="layer1">
    <path
       style="fill:#007a00;fill-opacity:1;fill-rule:evenodd;stroke:none;stroke-width:1px;stroke-linecap:butt;stroke-linejoin:miter;stroke-opacity:1"
       d="M 152.14286,565.93363 C 93.795164,552.9794 26.663695,514.36589 47.857143,469.50506 9.8824256,454.52894 7.3905414,391.98958 44.28571,378.79077 c -25.94165,-40.29572 32.424766,-79.37078 62.85715,-68.57143 0.60418,-31.69619 104.92055,-49.64678 114.28571,-2.85714 41.06205,-28.36656 100.49644,33.49341 73.57144,82.14286 41.79568,-0.39232 49.7659,81.97525 -10e-6,97.14286 10.51247,53.88432 -52.6836,77.2344 -85.71428,81.42857 -18.90918,2.40105 -38.49122,1.7863 -57.14286,-2.14286 z"
       id="path4138"
       inkscape:connector-curvature="0"
       sodipodi:nodetypes="cccccccsc" />
    <path
       style="fill:#653000;fill-opacity:1;fill-rule:evenodd;stroke:none;stroke-width:1px;stroke-linecap:butt;stroke-linejoin:miter;stroke-opacity:1"
       d="m 107.33714,677.3622 c 0,0 35.81589,-30.39961 44.44,-49.18032 9.9864,-21.74736 18.46753,-47.82964 6.34858,-68.94029 -9.5845,-16.69576 -55.98286,-34.25059 -55.98286,-34.25059 l 69.25715,18.88174 10.38857,-21.07728 10.38857,20.63817 52.51999,-26.78572 c 0,0 -34.784,26.58939 -40.97713,43.91101 -8.21113,22.96577 -1.43197,48.46248 8.08,71.13583 6.92254,16.50103 34.62857,44.78923 34.62857,44.78923 z"
       id="path4136"
       inkscape:connector-curvature="0"
       sodipodi:nodetypes="csscccccsscc" />
    <path
       style="fill:#007a00;fill-opacity:1;fill-rule:evenodd;stroke:none;stroke-width:1px;stroke-linecap:butt;stroke-linejoin:miter;stroke-opacity:1"
       d="M 527.03948,560.90133 C 468.69179,547.9471 401.56032,509.33359 422.75377,464.47276 c -37.97472,-14.97612 -40.46661,-77.51548 -3.57144,-90.71429 -25.94165,-40.29572 32.42477,-79.37078 62.85715,-68.57143 0.60418,-31.69619 104.92055,-49.64678 114.28571,-2.85714 41.06205,-28.36656 100.49644,33.49341 73.57144,82.14286 41.79568,-0.39232 49.7659,81.97525 -10e-6,97.14286 10.51247,53.88432 -52.6836,77.2344 -85.71428,81.42857 -18.90918,2.40105 -38.49122,1.7863 -57.14286,-2.14286 z"
       id="path4138-5"
       inkscape:connector-curvature="0"
       sodipodi:nodetypes="cccccccsc" />
    <path
       style="fill:#653000;fill-opacity:1;fill-rule:evenodd;stroke:none;stroke-width:1px;stroke-linecap:butt;stroke-linejoin:miter;stroke-opacity:1"
       d="m 482.23376,672.32986 c 0,0 35.81589,-30.3996 44.44,-49.1803 9.9864,-21.74734 18.46753,-47.82962 6.34858,-68.94027 -9.5845,-16.69576 -55.98286,-34.25059 -55.98286,-34.25059 l 69.25715,18.88174 10.38857,-21.07728 10.38857,20.63817 52.51999,-26.78572 c 0,0 -34.784,26.58939 -40.97713,43.91101 -8.21113,22.96577 -1.43197,48.46248 8.08,71.13584 6.92254,16.501 34.62857,44.7892 34.62857,44.7892 z"
       id="path4136-3"
       inkscape:connector-curvature="0"
       sodipodi:nodetypes="csscccccsscc" />
    <path
       style="fill:#4f2e00;fill-opacity:1;fill-rule:evenodd;stroke:none;stroke-width:1px;stroke-linecap:butt;stroke-linejoin:miter;stroke-opacity:1"
       d="m 473.47649,445.43439 2.65456,-9.19591 1.72249,0.49778 -3.37962,8.50502 z"
       id="path4195"
       inkscape:connector-curvature="0" />
    <path
       style="fill:#ff0000;fill-rule:evenodd;stroke:none;stroke-width:1px;stroke-linecap:butt;stroke-linejoin:miter;stroke-opacity:1"
       d="m 474.24168,444.78574 c 0,0 -6.92692,-4.21767 -10.25879,-2.89485 -2.56377,1.01787 -4.89407,4.22843 -5.1294,7.39794 -0.49972,6.73038 3.0661,15.21428 8.4122,17.69073 2.36114,1.09375 7.24955,-2.73402 7.24955,-2.73402 0,0 4.74319,3.90157 7.04437,2.81444 5.50647,-2.60141 9.16085,-11.68862 8.20703,-18.57527 -0.46904,-3.38642 -3.45092,-6.37373 -6.29206,-7.15671 -3.14476,-0.86664 -9.2329,3.45774 -9.2329,3.45774 z"
       id="path4193"
       inkscape:connector-curvature="0"
       sodipodi:nodetypes="cssscsssc" />
    <path
       style="fill:#4f2e00;fill-opacity:1;fill-rule:evenodd;stroke:none;stroke-width:1px;stroke-linecap:butt;stroke-linejoin:miter;stroke-opacity:1"
       d="m 578.39981,413.90886 2.65456,-9.19591 1.72249,0.49778 -3.37962,8.50502 z"
       id="path4195-1"
       inkscape:connector-curvature="0" />
    <path
       style="fill:#ff0000;fill-rule:evenodd;stroke:none;stroke-width:1px;stroke-linecap:butt;stroke-linejoin:miter;stroke-opacity:1"
       d="m 579.165,413.26021 c 0,0 -6.92692,-4.21767 -10.25879,-2.89485 -2.56377,1.01787 -4.89407,4.22843 -5.1294,7.39794 -0.49972,6.73038 3.0661,15.21428 8.4122,17.69073 2.36114,1.09375 7.24955,-2.73402 7.24955,-2.73402 0,0 4.74319,3.90157 7.04437,2.81444 5.50647,-2.60141 9.16085,-11.68862 8.20703,-18.57527 -0.46904,-3.38642 -3.45092,-6.37373 -6.29206,-7.15671 -3.14476,-0.86664 -9.2329,3.45774 -9.2329,3.45774 z"
       id="path4193-2"
       inkscape:connector-curvature="0"
       sodipodi:nodetypes="cssscsssc" />
    <path
       style="fill:#4f2e00;fill-opacity:1;fill-rule:evenodd;stroke:none;stroke-width:1px;stroke-linecap:butt;stroke-linejoin:miter;stroke-opacity:1"
       d="m 471.25695,361.05172 2.65456,-9.19591 1.72249,0.49778 -3.37962,8.50502 z"
       id="path4195-7"
       inkscape:connector-curvature="0" />
    <path
       style="fill:#ff0000;fill-rule:evenodd;stroke:none;stroke-width:1px;stroke-linecap:butt;stroke-linejoin:miter;stroke-opacity:1"
       d="m 472.02214,360.40307 c 0,0 -6.92692,-4.21767 -10.25879,-2.89485 -2.56377,1.01787 -4.89407,4.22843 -5.1294,7.39794 -0.49972,6.73038 3.0661,15.21428 8.4122,17.69073 2.36114,1.09375 7.24955,-2.73402 7.24955,-2.73402 0,0 4.74319,3.90157 7.04437,2.81444 5.50647,-2.60141 9.16085,-11.68862 8.20703,-18.57527 -0.46904,-3.38642 -3.45092,-6.37373 -6.29206,-7.15671 -3.14476,-0.86664 -9.2329,3.45774 -9.2329,3.45774 z"
       id="path4193-0"
       inkscape:connector-curvature="0"
       sodipodi:nodetypes="cssscsssc" />
    <path
       style="fill:#4f2e00;fill-opacity:1;fill-rule:evenodd;stroke:none;stroke-width:1px;stroke-linecap:butt;stroke-linejoin:miter;stroke-opacity:1"
       d="m 559.1141,330.33744 2.65456,-9.19591 1.72249,0.49778 -3.37962,8.50502 z"
       id="path4195-9"
       inkscape:connector-curvature="0" />
    <path
       style="fill:#ff0000;fill-rule:evenodd;stroke:none;stroke-width:1px;stroke-linecap:butt;stroke-linejoin:miter;stroke-opacity:1"
       d="m 559.87929,329.68879 c 0,0 -6.92692,-4.21767 -10.25879,-2.89485 -2.56377,1.01787 -4.89407,4.22843 -5.1294,7.39794 -0.49972,6.73038 3.0661,15.21428 8.4122,17.69073 2.36114,1.09375 7.24955,-2.73402 7.24955,-2.73402 0,0 4.74319,3.90157 7.04437,2.81444 5.50647,-2.60141 9.16085,-11.68862 8.20703,-18.57527 -0.46904,-3.38642 -3.45092,-6.37373 -6.29206,-7.15671 -3.14476,-0.86664 -9.2329,3.45774 -9.2329,3.45774 z"
       id="path4193-3"
       inkscape:connector-curvature="0"
       sodipodi:nodetypes="cssscsssc" />
    <path
       style="fill:#4f2e00;fill-opacity:1;fill-rule:evenodd;stroke:none;stroke-width:1px;stroke-linecap:butt;stroke-linejoin:miter;stroke-opacity:1"
       d="m 636.25695,363.90887 2.65456,-9.19591 1.72249,0.49778 -3.37962,8.50502 z"
       id="path4195-6"
       inkscape:connector-curvature="0" />
    <path
       style="fill:#ff0000;fill-rule:evenodd;stroke:none;stroke-width:1px;stroke-linecap:butt;stroke-linejoin:miter;stroke-opacity:1"
       d="m 637.02214,363.26022 c 0,0 -6.92692,-4.21767 -10.25879,-2.89485 -2.56377,1.01787 -4.89407,4.22843 -5.1294,7.39794 -0.49972,6.73038 3.0661,15.21428 8.4122,17.69073 2.36114,1.09375 7.24955,-2.73402 7.24955,-2.73402 0,0 4.74319,3.90157 7.04437,2.81444 5.50647,-2.60141 9.16085,-11.68862 8.20703,-18.57527 -0.46904,-3.38642 -3.45092,-6.37373 -6.29206,-7.15671 -3.14476,-0.86664 -9.2329,3.45774 -9.2329,3.45774 z"
       id="path4193-06"
       inkscape:connector-curvature="0"
       sodipodi:nodetypes="cssscsssc" />
    <path
       style="fill:#4f2e00;fill-opacity:1;fill-rule:evenodd;stroke:none;stroke-width:1px;stroke-linecap:butt;stroke-linejoin:miter;stroke-opacity:1"
       d="m 614.1141,479.62315 2.65456,-9.19591 1.72249,0.49778 -3.37962,8.50502 z"
       id="path4195-2"
       inkscape:connector-curvature="0" />
    <path
       style="fill:#ff0000;fill-rule:evenodd;stroke:none;stroke-width:1px;stroke-linecap:butt;stroke-linejoin:miter;stroke-opacity:1"
       d="m 614.87929,478.9745 c 0,0 -6.92692,-4.21767 -10.25879,-2.89485 -2.56377,1.01787 -4.89407,4.22843 -5.1294,7.39794 -0.49972,6.73038 3.0661,15.21428 8.4122,17.69073 2.36114,1.09375 7.24955,-2.73402 7.24955,-2.73402 0,0 4.74319,3.90157 7.04437,2.81444 5.50647,-2.60141 9.16085,-11.68862 8.20703,-18.57527 -0.46904,-3.38642 -3.45092,-6.37373 -6.29206,-7.15671 -3.14476,-0.86664 -9.2329,3.45774 -9.2329,3.45774 z"
       id="path4193-6"
       inkscape:connector-curvature="0"
       sodipodi:nodetypes="cssscsssc" />
    <path
       style="fill:#4f2e00;fill-opacity:1;fill-rule:evenodd;stroke:none;stroke-width:1px;stroke-linecap:butt;stroke-linejoin:miter;stroke-opacity:1"
       d="m 534.82837,487.4803 2.65456,-9.19591 1.72249,0.49778 -3.37962,8.50502 z"
       id="path4195-18"
       inkscape:connector-curvature="0" />
    <path
       style="fill:#ff0000;fill-rule:evenodd;stroke:none;stroke-width:1px;stroke-linecap:butt;stroke-linejoin:miter;stroke-opacity:1"
       d="m 535.59356,486.83165 c 0,0 -6.92692,-4.21767 -10.25879,-2.89485 -2.56377,1.01787 -4.89407,4.22843 -5.1294,7.39794 -0.49972,6.73038 3.0661,15.21428 8.4122,17.69073 2.36114,1.09375 7.24955,-2.73402 7.24955,-2.73402 0,0 4.74319,3.90157 7.04437,2.81444 5.50647,-2.60141 9.16085,-11.68862 8.20703,-18.57527 -0.46904,-3.38642 -3.45092,-6.37373 -6.29206,-7.15671 -3.14476,-0.86664 -9.2329,3.45774 -9.2329,3.45774 z"
       id="path4193-7"
       inkscape:connector-curvature="0"
       sodipodi:nodetypes="cssscsssc" />
    <path
       style="fill:#007a00;fill-opacity:1;fill-rule:evenodd;stroke:none;stroke-width:1px;stroke-linecap:butt;stroke-linejoin:miter;stroke-opacity:1"
       d="m 222.75376,825.55077 c -16.20483,-3.66852 -30.47916,-17.28203 -18.57142,-35.71428 -17.97472,7.16673 -26.89518,-37.51548 -2.85715,-42.85715 -15.94165,-16.01001 4.56762,-44.37078 22.85715,-32.85715 -16.53868,-18.12476 35.49197,-25.93249 35.57142,-6.99999 9.63347,-14.08085 40.21072,5.06484 29.00001,28.71429 21.08139,0.32196 21.7659,37.68953 -0.14287,42.85714 13.36961,15.31289 12.88783,46.94869 -8.71428,49 -18.97565,1.80191 -38.49122,1.7863 -57.14286,-2.14286 z"
       id="path4138-0"
       inkscape:connector-curvature="0"
       sodipodi:nodetypes="cccccccsc" />
    <path
       style="fill:#653000;fill-opacity:1;fill-rule:evenodd;stroke:none;stroke-width:1px;stroke-linecap:butt;stroke-linejoin:miter;stroke-opacity:1"
       d="m 233.16647,895.1255 c 0,0 7.83551,-16.33419 9.53173,-30.08686 1.97468,-16.01035 7.36833,-30.13898 -1.04761,-44.2866 -6.6559,-11.18892 -9.6111,-14.33715 -9.6111,-14.33715 l 13.86904,4.99486 5.23016,-13.64658 2.75,14.78837 11.1746,-7.89838 c 0,0 -0.84207,1.06515 -5.14286,12.6735 -5.70217,15.39086 -7.44283,31.99921 -4.80555,47.67276 1.99174,11.83707 12.63888,31.45223 12.63888,31.45223 z"
       id="path4136-2"
       inkscape:connector-curvature="0"
       sodipodi:nodetypes="csscccccsscc" />
  </g>
</svg>
